STARTFONT 2.1
COMMENT This font was automatically resized by bdfresize-1.5
COMMENT   mag_x = 2/1, mag_y = 2/1, blackness = 4
COMMENT "$Id: 9x18.bdf,v 1.53 2009-04-06 18:50:15+01 mgk25 Rel $"
COMMENT "Send bug reports to Markus Kuhn <http://www.cl.cam.ac.uk/~mgk25/>"
FONT -Misc-Fixed-Medium-R-Normal--36-240-100-100-C-180-ISO10646-1
SIZE 24 100 100
FONTBOUNDINGBOX 18 36 0 -8
STARTPROPERTIES 22
FONTNAME_REGISTRY ""
FOUNDRY "Misc"
FAMILY_NAME "Fixed"
WEIGHT_NAME "Medium"
SLANT "R"
SETWIDTH_NAME "Normal"
ADD_STYLE_NAME ""
PIXEL_SIZE 36
POINT_SIZE 240
RESOLUTION_X 100
RESOLUTION_Y 100
SPACING "C"
AVERAGE_WIDTH 180
CHARSET_REGISTRY "ISO10646"
CHARSET_ENCODING "1"
DEFAULT_CHAR 0
FONT_DESCENT 8
FONT_ASCENT 28
COPYRIGHT "Public domain font.  Share and enjoy."
CAP_HEIGHT 10
X_HEIGHT 7
_GBDFED_INFO "Edited with gbdfed 1.3."
ENDPROPERTIES
CHARS 4766
STARTCHAR char0
ENCODING 0
SWIDTH 1080 0
DWIDTH 18 0
BBX 18 36 0 -8
BITMAP
000000
000000
000000
000000
000000
000000
000000
000000
3CF300
3CF300
000300
000300
300000
300000
300300
300300
000300
000300
300000
300000
300300
300300
000300
000300
300000
300000
33CF00
33CF00
000000
000000
000000
000000
000000
000000
000000
000000
ENDCHAR
STARTCHAR space
ENCODING 32
SWIDTH 1080 0
DWIDTH 18 0
BBX 18 36 0 -8
BITMAP
000000
000000
000000
000000
000000
000000
000000
000000
000000
000000
000000
000000
000000
000000
000000
000000
000000
000000
000000
000000
000000
000000
000000
000000
000000
000000
000000
000000
000000
000000
000000
000000
000000
000000
000000
000000
ENDCHAR
STARTCHAR exclam
ENCODING 33
SWIDTH 1080 0
DWIDTH 18 0
BBX 18 36 0 -8
BITMAP
000000
000000
000000
000000
000000
000000
00C000
00C000
00C000
00C000
00C000
00C000
00C000
00C000
00C000
00C000
00C000
00C000
00C000
00C000
000000
000000
000000
000000
00C000
00C000
00C000
00C000
000000
000000
000000
000000
000000
000000
000000
000000
ENDCHAR
STARTCHAR quotedbl
ENCODING 34
SWIDTH 1080 0
DWIDTH 18 0
BBX 18 36 0 -8
BITMAP
000000
000000
000000
000000
000000
000000
030C00
030C00
030C00
030C00
030C00
030C00
030C00
030C00
000000
000000
000000
000000
000000
000000
000000
000000
000000
000000
000000
000000
000000
000000
000000
000000
000000
000000
000000
000000
000000
000000
ENDCHAR
STARTCHAR numbersign
ENCODING 35
SWIDTH 1080 0
DWIDTH 18 0
BBX 18 36 0 -8
BITMAP
000000
000000
000000
000000
000000
000000
000000
000000
0C3000
0C3000
0C3000
0C3000
0C3000
0C3000
FFFF00
FFFF00
0C3000
0C3000
0C3000
0C3000
FFFF00
FFFF00
0C3000
0C3000
0C3000
0C3000
0C3000
0C3000
000000
000000
000000
000000
000000
000000
000000
000000
ENDCHAR
STARTCHAR dollar
ENCODING 36
SWIDTH 1080 0
DWIDTH 18 0
BBX 18 36 0 -8
BITMAP
000000
000000
000000
000000
000000
000000
000000
000000
00C000
00C000
0FFC00
0FFC00
30C300
30C300
30C000
30C000
0CC000
0CC000
03F000
03F000
00CC00
00CC00
00C300
00C300
30C300
30C300
0FFC00
0FFC00
00C000
00C000
000000
000000
000000
000000
000000
000000
ENDCHAR
STARTCHAR percent
ENCODING 37
SWIDTH 1080 0
DWIDTH 18 0
BBX 18 36 0 -8
BITMAP
000000
000000
000000
000000
000000
000000
000000
000000
0C0300
0C0300
330C00
330C00
330C00
330C00
0C3000
0C3000
00C000
00C000
00C000
00C000
030C00
030C00
0C3300
0C3300
0C3300
0C3300
300C00
300C00
000000
000000
000000
000000
000000
000000
000000
000000
ENDCHAR
STARTCHAR ampersand
ENCODING 38
SWIDTH 1080 0
DWIDTH 18 0
BBX 18 36 0 -8
BITMAP
000000
000000
000000
000000
000000
000000
000000
000000
0F0000
0F0000
30C000
30C000
30C000
30C000
30C000
30C000
0F0000
0F0000
0F0300
0F0300
30CC00
30CC00
303000
303000
30CC00
30CC00
0F0300
0F0300
000000
000000
000000
000000
000000
000000
000000
000000
ENDCHAR
STARTCHAR quotesingle
ENCODING 39
SWIDTH 1080 0
DWIDTH 18 0
BBX 18 36 0 -8
BITMAP
000000
000000
000000
000000
000000
000000
00C000
00C000
00C000
00C000
00C000
00C000
00C000
00C000
000000
000000
000000
000000
000000
000000
000000
000000
000000
000000
000000
000000
000000
000000
000000
000000
000000
000000
000000
000000
000000
000000
ENDCHAR
STARTCHAR parenleft
ENCODING 40
SWIDTH 1080 0
DWIDTH 18 0
BBX 18 36 0 -8
BITMAP
000000
000000
000000
000000
000000
000000
003000
003000
00C000
00C000
00C000
00C000
030000
030000
030000
030000
030000
030000
030000
030000
030000
030000
030000
030000
00C000
00C000
00C000
00C000
003000
003000
000000
000000
000000
000000
000000
000000
ENDCHAR
STARTCHAR parenright
ENCODING 41
SWIDTH 1080 0
DWIDTH 18 0
BBX 18 36 0 -8
BITMAP
000000
000000
000000
000000
000000
000000
030000
030000
00C000
00C000
00C000
00C000
003000
003000
003000
003000
003000
003000
003000
003000
003000
003000
003000
003000
00C000
00C000
00C000
00C000
030000
030000
000000
000000
000000
000000
000000
000000
ENDCHAR
STARTCHAR asterisk
ENCODING 42
SWIDTH 1080 0
DWIDTH 18 0
BBX 18 36 0 -8
BITMAP
000000
000000
000000
000000
000000
000000
000000
000000
00C000
00C000
30C300
30C300
0CCC00
0CCC00
03F000
03F000
0CCC00
0CCC00
30C300
30C300
00C000
00C000
000000
000000
000000
000000
000000
000000
000000
000000
000000
000000
000000
000000
000000
000000
ENDCHAR
STARTCHAR plus
ENCODING 43
SWIDTH 1080 0
DWIDTH 18 0
BBX 18 36 0 -8
BITMAP
000000
000000
000000
000000
000000
000000
000000
000000
000000
000000
000000
000000
00C000
00C000
00C000
00C000
00C000
00C000
3FFF00
3FFF00
00C000
00C000
00C000
00C000
00C000
00C000
000000
000000
000000
000000
000000
000000
000000
000000
000000
000000
ENDCHAR
STARTCHAR comma
ENCODING 44
SWIDTH 1080 0
DWIDTH 18 0
BBX 18 36 0 -8
BITMAP
000000
000000
000000
000000
000000
000000
000000
000000
000000
000000
000000
000000
000000
000000
000000
000000
000000
000000
000000
000000
000000
000000
000000
000000
00F000
00F000
00F000
00F000
003000
003000
00C000
00C000
000000
000000
000000
000000
ENDCHAR
STARTCHAR hyphen
ENCODING 45
SWIDTH 1080 0
DWIDTH 18 0
BBX 18 36 0 -8
BITMAP
000000
000000
000000
000000
000000
000000
000000
000000
000000
000000
000000
000000
000000
000000
000000
000000
000000
000000
3FFF00
3FFF00
000000
000000
000000
000000
000000
000000
000000
000000
000000
000000
000000
000000
000000
000000
000000
000000
ENDCHAR
STARTCHAR period
ENCODING 46
SWIDTH 1080 0
DWIDTH 18 0
BBX 18 36 0 -8
BITMAP
000000
000000
000000
000000
000000
000000
000000
000000
000000
000000
000000
000000
000000
000000
000000
000000
000000
000000
000000
000000
000000
000000
000000
000000
00F000
00F000
00F000
00F000
000000
000000
000000
000000
000000
000000
000000
000000
ENDCHAR
STARTCHAR slash
ENCODING 47
SWIDTH 1080 0
DWIDTH 18 0
BBX 18 36 0 -8
BITMAP
000000
000000
000000
000000
000000
000000
000000
000000
000300
000300
000C00
000C00
000C00
000C00
003000
003000
00C000
00C000
00C000
00C000
030000
030000
0C0000
0C0000
0C0000
0C0000
300000
300000
000000
000000
000000
000000
000000
000000
000000
000000
ENDCHAR
STARTCHAR zero
ENCODING 48
SWIDTH 1080 0
DWIDTH 18 0
BBX 18 36 0 -8
BITMAP
000000
000000
000000
000000
000000
000000
000000
000000
03F000
03F000
0C0C00
0C0C00
300300
300300
300300
300300
300300
300300
300300
300300
300300
300300
300300
300300
0C0C00
0C0C00
03F000
03F000
000000
000000
000000
000000
000000
000000
000000
000000
ENDCHAR
STARTCHAR one
ENCODING 49
SWIDTH 1080 0
DWIDTH 18 0
BBX 18 36 0 -8
BITMAP
000000
000000
000000
000000
000000
000000
000000
000000
00C000
00C000
03C000
03C000
0CC000
0CC000
30C000
30C000
00C000
00C000
00C000
00C000
00C000
00C000
00C000
00C000
00C000
00C000
3FFF00
3FFF00
000000
000000
000000
000000
000000
000000
000000
000000
ENDCHAR
STARTCHAR two
ENCODING 50
SWIDTH 1080 0
DWIDTH 18 0
BBX 18 36 0 -8
BITMAP
000000
000000
000000
000000
000000
000000
000000
000000
03F000
03F000
0C0C00
0C0C00
300300
300300
000300
000300
000C00
000C00
003000
003000
00C000
00C000
030000
030000
0C0000
0C0000
3FFF00
3FFF00
000000
000000
000000
000000
000000
000000
000000
000000
ENDCHAR
STARTCHAR three
ENCODING 51
SWIDTH 1080 0
DWIDTH 18 0
BBX 18 36 0 -8
BITMAP
000000
000000
000000
000000
000000
000000
000000
000000
3FFF00
3FFF00
000300
000300
000C00
000C00
003000
003000
00F000
00F000
000C00
000C00
000300
000300
000300
000300
300C00
300C00
0FF000
0FF000
000000
000000
000000
000000
000000
000000
000000
000000
ENDCHAR
STARTCHAR four
ENCODING 52
SWIDTH 1080 0
DWIDTH 18 0
BBX 18 36 0 -8
BITMAP
000000
000000
000000
000000
000000
000000
000000
000000
000C00
000C00
003C00
003C00
00CC00
00CC00
030C00
030C00
0C0C00
0C0C00
300C00
300C00
3FFF00
3FFF00
000C00
000C00
000C00
000C00
000C00
000C00
000000
000000
000000
000000
000000
000000
000000
000000
ENDCHAR
STARTCHAR five
ENCODING 53
SWIDTH 1080 0
DWIDTH 18 0
BBX 18 36 0 -8
BITMAP
000000
000000
000000
000000
000000
000000
000000
000000
3FFF00
3FFF00
300000
300000
300000
300000
300000
300000
3FF000
3FF000
000C00
000C00
000300
000300
000300
000300
300C00
300C00
0FF000
0FF000
000000
000000
000000
000000
000000
000000
000000
000000
ENDCHAR
STARTCHAR six
ENCODING 54
SWIDTH 1080 0
DWIDTH 18 0
BBX 18 36 0 -8
BITMAP
000000
000000
000000
000000
000000
000000
000000
000000
03FC00
03FC00
0C0000
0C0000
300000
300000
300000
300000
33F000
33F000
3C0C00
3C0C00
300300
300300
300300
300300
0C0C00
0C0C00
03F000
03F000
000000
000000
000000
000000
000000
000000
000000
000000
ENDCHAR
STARTCHAR seven
ENCODING 55
SWIDTH 1080 0
DWIDTH 18 0
BBX 18 36 0 -8
BITMAP
000000
000000
000000
000000
000000
000000
000000
000000
3FFF00
3FFF00
000300
000300
000C00
000C00
000C00
000C00
003000
003000
003000
003000
00C000
00C000
00C000
00C000
00C000
00C000
00C000
00C000
000000
000000
000000
000000
000000
000000
000000
000000
ENDCHAR
STARTCHAR eight
ENCODING 56
SWIDTH 1080 0
DWIDTH 18 0
BBX 18 36 0 -8
BITMAP
000000
000000
000000
000000
000000
000000
000000
000000
03F000
03F000
0C0C00
0C0C00
300300
300300
0C0C00
0C0C00
03F000
03F000
0C0C00
0C0C00
300300
300300
300300
300300
0C0C00
0C0C00
03F000
03F000
000000
000000
000000
000000
000000
000000
000000
000000
ENDCHAR
STARTCHAR nine
ENCODING 57
SWIDTH 1080 0
DWIDTH 18 0
BBX 18 36 0 -8
BITMAP
000000
000000
000000
000000
000000
000000
000000
000000
03F000
03F000
0C0C00
0C0C00
300300
300300
300300
300300
0C0F00
0C0F00
03F300
03F300
000300
000300
000300
000300
000C00
000C00
0FF000
0FF000
000000
000000
000000
000000
000000
000000
000000
000000
ENDCHAR
STARTCHAR colon
ENCODING 58
SWIDTH 1080 0
DWIDTH 18 0
BBX 18 36 0 -8
BITMAP
000000
000000
000000
000000
000000
000000
000000
000000
000000
000000
000000
000000
000000
000000
00F000
00F000
00F000
00F000
000000
000000
000000
000000
000000
000000
00F000
00F000
00F000
00F000
000000
000000
000000
000000
000000
000000
000000
000000
ENDCHAR
STARTCHAR semicolon
ENCODING 59
SWIDTH 1080 0
DWIDTH 18 0
BBX 18 36 0 -8
BITMAP
000000
000000
000000
000000
000000
000000
000000
000000
000000
000000
000000
000000
000000
000000
00F000
00F000
00F000
00F000
000000
000000
000000
000000
000000
000000
00F000
00F000
00F000
00F000
003000
003000
00C000
00C000
000000
000000
000000
000000
ENDCHAR
STARTCHAR less
ENCODING 60
SWIDTH 1080 0
DWIDTH 18 0
BBX 18 36 0 -8
BITMAP
000000
000000
000000
000000
000000
000000
000000
000000
000000
000000
000C00
000C00
003000
003000
00C000
00C000
030000
030000
0C0000
0C0000
030000
030000
00C000
00C000
003000
003000
000C00
000C00
000000
000000
000000
000000
000000
000000
000000
000000
ENDCHAR
STARTCHAR equal
ENCODING 61
SWIDTH 1080 0
DWIDTH 18 0
BBX 18 36 0 -8
BITMAP
000000
000000
000000
000000
000000
000000
000000
000000
000000
000000
000000
000000
000000
000000
000000
000000
3FFF00
3FFF00
000000
000000
000000
000000
3FFF00
3FFF00
000000
000000
000000
000000
000000
000000
000000
000000
000000
000000
000000
000000
ENDCHAR
STARTCHAR greater
ENCODING 62
SWIDTH 1080 0
DWIDTH 18 0
BBX 18 36 0 -8
BITMAP
000000
000000
000000
000000
000000
000000
000000
000000
000000
000000
0C0000
0C0000
030000
030000
00C000
00C000
003000
003000
000C00
000C00
003000
003000
00C000
00C000
030000
030000
0C0000
0C0000
000000
000000
000000
000000
000000
000000
000000
000000
ENDCHAR
STARTCHAR question
ENCODING 63
SWIDTH 1080 0
DWIDTH 18 0
BBX 18 36 0 -8
BITMAP
000000
000000
000000
000000
000000
000000
000000
000000
03F000
03F000
0C0C00
0C0C00
300300
300300
000300
000300
000C00
000C00
003000
003000
00C000
00C000
00C000
00C000
000000
000000
00C000
00C000
000000
000000
000000
000000
000000
000000
000000
000000
ENDCHAR
STARTCHAR at
ENCODING 64
SWIDTH 1080 0
DWIDTH 18 0
BBX 18 36 0 -8
BITMAP
000000
000000
000000
000000
000000
000000
000000
000000
03F000
03F000
0C0C00
0C0C00
30F300
30F300
333300
333300
333300
333300
333300
333300
333300
333300
30FC00
30FC00
0C0000
0C0000
03FC00
03FC00
000000
000000
000000
000000
000000
000000
000000
000000
ENDCHAR
STARTCHAR A
ENCODING 65
SWIDTH 1080 0
DWIDTH 18 0
BBX 18 36 0 -8
BITMAP
000000
000000
000000
000000
000000
000000
000000
000000
00C000
00C000
033000
033000
033000
033000
033000
033000
0C0C00
0C0C00
0FFC00
0FFC00
0C0C00
0C0C00
300300
300300
300300
300300
300300
300300
000000
000000
000000
000000
000000
000000
000000
000000
ENDCHAR
STARTCHAR B
ENCODING 66
SWIDTH 1080 0
DWIDTH 18 0
BBX 18 36 0 -8
BITMAP
000000
000000
000000
000000
000000
000000
000000
000000
3FF000
3FF000
300C00
300C00
300300
300300
300C00
300C00
3FF000
3FF000
300C00
300C00
300300
300300
300300
300300
300C00
300C00
3FF000
3FF000
000000
000000
000000
000000
000000
000000
000000
000000
ENDCHAR
STARTCHAR C
ENCODING 67
SWIDTH 1080 0
DWIDTH 18 0
BBX 18 36 0 -8
BITMAP
000000
000000
000000
000000
000000
000000
000000
000000
03FC00
03FC00
0C0300
0C0300
300000
300000
300000
300000
300000
300000
300000
300000
300000
300000
300000
300000
0C0300
0C0300
03FC00
03FC00
000000
000000
000000
000000
000000
000000
000000
000000
ENDCHAR
STARTCHAR D
ENCODING 68
SWIDTH 1080 0
DWIDTH 18 0
BBX 18 36 0 -8
BITMAP
000000
000000
000000
000000
000000
000000
000000
000000
3FF000
3FF000
300C00
300C00
300300
300300
300300
300300
300300
300300
300300
300300
300300
300300
300300
300300
300C00
300C00
3FF000
3FF000
000000
000000
000000
000000
000000
000000
000000
000000
ENDCHAR
STARTCHAR E
ENCODING 69
SWIDTH 1080 0
DWIDTH 18 0
BBX 18 36 0 -8
BITMAP
000000
000000
000000
000000
000000
000000
000000
000000
3FFF00
3FFF00
300000
300000
300000
300000
300000
300000
3FF000
3FF000
300000
300000
300000
300000
300000
300000
300000
300000
3FFF00
3FFF00
000000
000000
000000
000000
000000
000000
000000
000000
ENDCHAR
STARTCHAR F
ENCODING 70
SWIDTH 1080 0
DWIDTH 18 0
BBX 18 36 0 -8
BITMAP
000000
000000
000000
000000
000000
000000
000000
000000
3FFF00
3FFF00
300000
300000
300000
300000
300000
300000
3FF000
3FF000
300000
300000
300000
300000
300000
300000
300000
300000
300000
300000
000000
000000
000000
000000
000000
000000
000000
000000
ENDCHAR
STARTCHAR G
ENCODING 71
SWIDTH 1080 0
DWIDTH 18 0
BBX 18 36 0 -8
BITMAP
000000
000000
000000
000000
000000
000000
000000
000000
03F000
03F000
0C0C00
0C0C00
300300
300300
300000
300000
300000
300000
303F00
303F00
300300
300300
300300
300300
0C0C00
0C0C00
03F000
03F000
000000
000000
000000
000000
000000
000000
000000
000000
ENDCHAR
STARTCHAR H
ENCODING 72
SWIDTH 1080 0
DWIDTH 18 0
BBX 18 36 0 -8
BITMAP
000000
000000
000000
000000
000000
000000
000000
000000
300300
300300
300300
300300
300300
300300
300300
300300
3FFF00
3FFF00
300300
300300
300300
300300
300300
300300
300300
300300
300300
300300
000000
000000
000000
000000
000000
000000
000000
000000
ENDCHAR
STARTCHAR I
ENCODING 73
SWIDTH 1080 0
DWIDTH 18 0
BBX 18 36 0 -8
BITMAP
000000
000000
000000
000000
000000
000000
000000
000000
0FFC00
0FFC00
00C000
00C000
00C000
00C000
00C000
00C000
00C000
00C000
00C000
00C000
00C000
00C000
00C000
00C000
00C000
00C000
0FFC00
0FFC00
000000
000000
000000
000000
000000
000000
000000
000000
ENDCHAR
STARTCHAR J
ENCODING 74
SWIDTH 1080 0
DWIDTH 18 0
BBX 18 36 0 -8
BITMAP
000000
000000
000000
000000
000000
000000
000000
000000
03FF00
03FF00
003000
003000
003000
003000
003000
003000
003000
003000
003000
003000
003000
003000
303000
303000
303000
303000
0FC000
0FC000
000000
000000
000000
000000
000000
000000
000000
000000
ENDCHAR
STARTCHAR K
ENCODING 75
SWIDTH 1080 0
DWIDTH 18 0
BBX 18 36 0 -8
BITMAP
000000
000000
000000
000000
000000
000000
000000
000000
300300
300300
300C00
300C00
303000
303000
30C000
30C000
330000
330000
3CC000
3CC000
303000
303000
300C00
300C00
300300
300300
300300
300300
000000
000000
000000
000000
000000
000000
000000
000000
ENDCHAR
STARTCHAR L
ENCODING 76
SWIDTH 1080 0
DWIDTH 18 0
BBX 18 36 0 -8
BITMAP
000000
000000
000000
000000
000000
000000
000000
000000
300000
300000
300000
300000
300000
300000
300000
300000
300000
300000
300000
300000
300000
300000
300000
300000
300000
300000
3FFF00
3FFF00
000000
000000
000000
000000
000000
000000
000000
000000
ENDCHAR
STARTCHAR M
ENCODING 77
SWIDTH 1080 0
DWIDTH 18 0
BBX 18 36 0 -8
BITMAP
000000
000000
000000
000000
000000
000000
000000
000000
300300
300300
300300
300300
3C0F00
3C0F00
333300
333300
30C300
30C300
300300
300300
300300
300300
300300
300300
300300
300300
300300
300300
000000
000000
000000
000000
000000
000000
000000
000000
ENDCHAR
STARTCHAR N
ENCODING 78
SWIDTH 1080 0
DWIDTH 18 0
BBX 18 36 0 -8
BITMAP
000000
000000
000000
000000
000000
000000
000000
000000
300300
300300
300300
300300
3C0300
3C0300
330300
330300
30C300
30C300
303300
303300
300F00
300F00
300300
300300
300300
300300
300300
300300
000000
000000
000000
000000
000000
000000
000000
000000
ENDCHAR
STARTCHAR O
ENCODING 79
SWIDTH 1080 0
DWIDTH 18 0
BBX 18 36 0 -8
BITMAP
000000
000000
000000
000000
000000
000000
000000
000000
0FFC00
0FFC00
300300
300300
300300
300300
300300
300300
300300
300300
300300
300300
300300
300300
300300
300300
300300
300300
0FFC00
0FFC00
000000
000000
000000
000000
000000
000000
000000
000000
ENDCHAR
STARTCHAR P
ENCODING 80
SWIDTH 1080 0
DWIDTH 18 0
BBX 18 36 0 -8
BITMAP
000000
000000
000000
000000
000000
000000
000000
000000
3FF000
3FF000
300C00
300C00
300300
300300
300300
300300
300C00
300C00
3FF000
3FF000
300000
300000
300000
300000
300000
300000
300000
300000
000000
000000
000000
000000
000000
000000
000000
000000
ENDCHAR
STARTCHAR Q
ENCODING 81
SWIDTH 1080 0
DWIDTH 18 0
BBX 18 36 0 -8
BITMAP
000000
000000
000000
000000
000000
000000
000000
000000
03F000
03F000
0C0C00
0C0C00
300300
300300
300300
300300
300300
300300
300300
300300
300300
300300
303300
303300
0C0C00
0C0C00
03F300
03F300
0000C0
0000C0
000000
000000
000000
000000
000000
000000
ENDCHAR
STARTCHAR R
ENCODING 82
SWIDTH 1080 0
DWIDTH 18 0
BBX 18 36 0 -8
BITMAP
000000
000000
000000
000000
000000
000000
000000
000000
3FF000
3FF000
300C00
300C00
300300
300300
300300
300300
300C00
300C00
3FF000
3FF000
30C000
30C000
303000
303000
300C00
300C00
300300
300300
000000
000000
000000
000000
000000
000000
000000
000000
ENDCHAR
STARTCHAR S
ENCODING 83
SWIDTH 1080 0
DWIDTH 18 0
BBX 18 36 0 -8
BITMAP
000000
000000
000000
000000
000000
000000
000000
000000
0FFC00
0FFC00
300300
300300
300000
300000
300000
300000
0FFC00
0FFC00
000300
000300
000300
000300
000300
000300
300300
300300
0FFC00
0FFC00
000000
000000
000000
000000
000000
000000
000000
000000
ENDCHAR
STARTCHAR T
ENCODING 84
SWIDTH 1080 0
DWIDTH 18 0
BBX 18 36 0 -8
BITMAP
000000
000000
000000
000000
000000
000000
000000
000000
3FFF00
3FFF00
00C000
00C000
00C000
00C000
00C000
00C000
00C000
00C000
00C000
00C000
00C000
00C000
00C000
00C000
00C000
00C000
00C000
00C000
000000
000000
000000
000000
000000
000000
000000
000000
ENDCHAR
STARTCHAR U
ENCODING 85
SWIDTH 1080 0
DWIDTH 18 0
BBX 18 36 0 -8
BITMAP
000000
000000
000000
000000
000000
000000
000000
000000
300300
300300
300300
300300
300300
300300
300300
300300
300300
300300
300300
300300
300300
300300
300300
300300
0C0C00
0C0C00
03F000
03F000
000000
000000
000000
000000
000000
000000
000000
000000
ENDCHAR
STARTCHAR V
ENCODING 86
SWIDTH 1080 0
DWIDTH 18 0
BBX 18 36 0 -8
BITMAP
000000
000000
000000
000000
000000
000000
000000
000000
300300
300300
300300
300300
300300
300300
0C0C00
0C0C00
0C0C00
0C0C00
0C0C00
0C0C00
033000
033000
033000
033000
033000
033000
00C000
00C000
000000
000000
000000
000000
000000
000000
000000
000000
ENDCHAR
STARTCHAR W
ENCODING 87
SWIDTH 1080 0
DWIDTH 18 0
BBX 18 36 0 -8
BITMAP
000000
000000
000000
000000
000000
000000
000000
000000
300300
300300
300300
300300
300300
300300
300300
300300
30C300
30C300
30C300
30C300
30C300
30C300
30C300
30C300
333300
333300
0C0C00
0C0C00
000000
000000
000000
000000
000000
000000
000000
000000
ENDCHAR
STARTCHAR X
ENCODING 88
SWIDTH 1080 0
DWIDTH 18 0
BBX 18 36 0 -8
BITMAP
000000
000000
000000
000000
000000
000000
000000
000000
300300
300300
300300
300300
0C0C00
0C0C00
033000
033000
00C000
00C000
00C000
00C000
033000
033000
0C0C00
0C0C00
300300
300300
300300
300300
000000
000000
000000
000000
000000
000000
000000
000000
ENDCHAR
STARTCHAR Y
ENCODING 89
SWIDTH 1080 0
DWIDTH 18 0
BBX 18 36 0 -8
BITMAP
000000
000000
000000
000000
000000
000000
000000
000000
300300
300300
300300
300300
0C0C00
0C0C00
033000
033000
00C000
00C000
00C000
00C000
00C000
00C000
00C000
00C000
00C000
00C000
00C000
00C000
000000
000000
000000
000000
000000
000000
000000
000000
ENDCHAR
STARTCHAR Z
ENCODING 90
SWIDTH 1080 0
DWIDTH 18 0
BBX 18 36 0 -8
BITMAP
000000
000000
000000
000000
000000
000000
000000
000000
3FFF00
3FFF00
000300
000300
000C00
000C00
003000
003000
00C000
00C000
030000
030000
0C0000
0C0000
300000
300000
300000
300000
3FFF00
3FFF00
000000
000000
000000
000000
000000
000000
000000
000000
ENDCHAR
STARTCHAR bracketleft
ENCODING 91
SWIDTH 1080 0
DWIDTH 18 0
BBX 18 36 0 -8
BITMAP
000000
000000
000000
000000
000000
000000
03FC00
03FC00
030000
030000
030000
030000
030000
030000
030000
030000
030000
030000
030000
030000
030000
030000
030000
030000
030000
030000
030000
030000
03FC00
03FC00
000000
000000
000000
000000
000000
000000
ENDCHAR
STARTCHAR backslash
ENCODING 92
SWIDTH 1080 0
DWIDTH 18 0
BBX 18 36 0 -8
BITMAP
000000
000000
000000
000000
000000
000000
000000
000000
300000
300000
0C0000
0C0000
0C0000
0C0000
030000
030000
00C000
00C000
00C000
00C000
003000
003000
000C00
000C00
000C00
000C00
000300
000300
000000
000000
000000
000000
000000
000000
000000
000000
ENDCHAR
STARTCHAR bracketright
ENCODING 93
SWIDTH 1080 0
DWIDTH 18 0
BBX 18 36 0 -8
BITMAP
000000
000000
000000
000000
000000
000000
0FF000
0FF000
003000
003000
003000
003000
003000
003000
003000
003000
003000
003000
003000
003000
003000
003000
003000
003000
003000
003000
003000
003000
0FF000
0FF000
000000
000000
000000
000000
000000
000000
ENDCHAR
STARTCHAR asciicircum
ENCODING 94
SWIDTH 1080 0
DWIDTH 18 0
BBX 18 36 0 -8
BITMAP
000000
000000
000000
000000
000000
000000
000000
000000
00C000
00C000
033000
033000
0C0C00
0C0C00
300300
300300
000000
000000
000000
000000
000000
000000
000000
000000
000000
000000
000000
000000
000000
000000
000000
000000
000000
000000
000000
000000
ENDCHAR
STARTCHAR underscore
ENCODING 95
SWIDTH 1080 0
DWIDTH 18 0
BBX 18 36 0 -8
BITMAP
000000
000000
000000
000000
000000
000000
000000
000000
000000
000000
000000
000000
000000
000000
000000
000000
000000
000000
000000
000000
000000
000000
000000
000000
000000
000000
000000
000000
FFFF00
FFFF00
000000
000000
000000
000000
000000
000000
ENDCHAR
STARTCHAR grave
ENCODING 96
SWIDTH 1080 0
DWIDTH 18 0
BBX 18 36 0 -8
BITMAP
000000
000000
030000
030000
00C000
00C000
003000
003000
000000
000000
000000
000000
000000
000000
000000
000000
000000
000000
000000
000000
000000
000000
000000
000000
000000
000000
000000
000000
000000
000000
000000
000000
000000
000000
000000
000000
ENDCHAR
STARTCHAR a
ENCODING 97
SWIDTH 1080 0
DWIDTH 18 0
BBX 18 36 0 -8
BITMAP
000000
000000
000000
000000
000000
000000
000000
000000
000000
000000
000000
000000
000000
000000
0FFC00
0FFC00
000300
000300
000300
000300
0FFF00
0FFF00
300300
300300
300F00
300F00
0FF300
0FF300
000000
000000
000000
000000
000000
000000
000000
000000
ENDCHAR
STARTCHAR b
ENCODING 98
SWIDTH 1080 0
DWIDTH 18 0
BBX 18 36 0 -8
BITMAP
000000
000000
000000
000000
000000
000000
000000
000000
300000
300000
300000
300000
300000
300000
33FC00
33FC00
3C0300
3C0300
300300
300300
300300
300300
300300
300300
3C0300
3C0300
33FC00
33FC00
000000
000000
000000
000000
000000
000000
000000
000000
ENDCHAR
STARTCHAR c
ENCODING 99
SWIDTH 1080 0
DWIDTH 18 0
BBX 18 36 0 -8
BITMAP
000000
000000
000000
000000
000000
000000
000000
000000
000000
000000
000000
000000
000000
000000
0FFC00
0FFC00
300300
300300
300000
300000
300000
300000
300000
300000
300300
300300
0FFC00
0FFC00
000000
000000
000000
000000
000000
000000
000000
000000
ENDCHAR
STARTCHAR d
ENCODING 100
SWIDTH 1080 0
DWIDTH 18 0
BBX 18 36 0 -8
BITMAP
000000
000000
000000
000000
000000
000000
000000
000000
000300
000300
000300
000300
000300
000300
0FF300
0FF300
300F00
300F00
300300
300300
300300
300300
300300
300300
300F00
300F00
0FF300
0FF300
000000
000000
000000
000000
000000
000000
000000
000000
ENDCHAR
STARTCHAR e
ENCODING 101
SWIDTH 1080 0
DWIDTH 18 0
BBX 18 36 0 -8
BITMAP
000000
000000
000000
000000
000000
000000
000000
000000
000000
000000
000000
000000
000000
000000
0FFC00
0FFC00
300300
300300
300300
300300
3FFF00
3FFF00
300000
300000
300300
300300
0FFC00
0FFC00
000000
000000
000000
000000
000000
000000
000000
000000
ENDCHAR
STARTCHAR f
ENCODING 102
SWIDTH 1080 0
DWIDTH 18 0
BBX 18 36 0 -8
BITMAP
000000
000000
000000
000000
000000
000000
000000
000000
00FC00
00FC00
030300
030300
030300
030300
030000
030000
030000
030000
3FF000
3FF000
030000
030000
030000
030000
030000
030000
030000
030000
000000
000000
000000
000000
000000
000000
000000
000000
ENDCHAR
STARTCHAR g
ENCODING 103
SWIDTH 1080 0
DWIDTH 18 0
BBX 18 36 0 -8
BITMAP
000000
000000
000000
000000
000000
000000
000000
000000
000000
000000
000000
000000
000000
000000
0FF300
0FF300
300C00
300C00
300C00
300C00
300C00
300C00
0FF000
0FF000
300000
300000
0FFC00
0FFC00
300300
300300
300300
300300
0FFC00
0FFC00
000000
000000
ENDCHAR
STARTCHAR h
ENCODING 104
SWIDTH 1080 0
DWIDTH 18 0
BBX 18 36 0 -8
BITMAP
000000
000000
000000
000000
000000
000000
000000
000000
300000
300000
300000
300000
300000
300000
33FC00
33FC00
3C0300
3C0300
300300
300300
300300
300300
300300
300300
300300
300300
300300
300300
000000
000000
000000
000000
000000
000000
000000
000000
ENDCHAR
STARTCHAR i
ENCODING 105
SWIDTH 1080 0
DWIDTH 18 0
BBX 18 36 0 -8
BITMAP
000000
000000
000000
000000
000000
000000
000000
000000
03C000
03C000
000000
000000
000000
000000
0FC000
0FC000
00C000
00C000
00C000
00C000
00C000
00C000
00C000
00C000
00C000
00C000
0FFC00
0FFC00
000000
000000
000000
000000
000000
000000
000000
000000
ENDCHAR
STARTCHAR j
ENCODING 106
SWIDTH 1080 0
DWIDTH 18 0
BBX 18 36 0 -8
BITMAP
000000
000000
000000
000000
000000
000000
000000
000000
003C00
003C00
000000
000000
000000
000000
00FC00
00FC00
000C00
000C00
000C00
000C00
000C00
000C00
000C00
000C00
000C00
000C00
000C00
000C00
0C0C00
0C0C00
0C0C00
0C0C00
03F000
03F000
000000
000000
ENDCHAR
STARTCHAR k
ENCODING 107
SWIDTH 1080 0
DWIDTH 18 0
BBX 18 36 0 -8
BITMAP
000000
000000
000000
000000
000000
000000
000000
000000
300000
300000
300000
300000
300000
300000
300C00
300C00
303000
303000
30C000
30C000
33C000
33C000
3C3000
3C3000
300C00
300C00
300300
300300
000000
000000
000000
000000
000000
000000
000000
000000
ENDCHAR
STARTCHAR l
ENCODING 108
SWIDTH 1080 0
DWIDTH 18 0
BBX 18 36 0 -8
BITMAP
000000
000000
000000
000000
000000
000000
000000
000000
0FC000
0FC000
00C000
00C000
00C000
00C000
00C000
00C000
00C000
00C000
00C000
00C000
00C000
00C000
00C000
00C000
00C000
00C000
0FFC00
0FFC00
000000
000000
000000
000000
000000
000000
000000
000000
ENDCHAR
STARTCHAR m
ENCODING 109
SWIDTH 1080 0
DWIDTH 18 0
BBX 18 36 0 -8
BITMAP
000000
000000
000000
000000
000000
000000
000000
000000
000000
000000
000000
000000
000000
000000
3F3C00
3F3C00
30C300
30C300
30C300
30C300
30C300
30C300
30C300
30C300
30C300
30C300
300300
300300
000000
000000
000000
000000
000000
000000
000000
000000
ENDCHAR
STARTCHAR n
ENCODING 110
SWIDTH 1080 0
DWIDTH 18 0
BBX 18 36 0 -8
BITMAP
000000
000000
000000
000000
000000
000000
000000
000000
000000
000000
000000
000000
000000
000000
33FC00
33FC00
3C0300
3C0300
300300
300300
300300
300300
300300
300300
300300
300300
300300
300300
000000
000000
000000
000000
000000
000000
000000
000000
ENDCHAR
STARTCHAR o
ENCODING 111
SWIDTH 1080 0
DWIDTH 18 0
BBX 18 36 0 -8
BITMAP
000000
000000
000000
000000
000000
000000
000000
000000
000000
000000
000000
000000
000000
000000
0FFC00
0FFC00
300300
300300
300300
300300
300300
300300
300300
300300
300300
300300
0FFC00
0FFC00
000000
000000
000000
000000
000000
000000
000000
000000
ENDCHAR
STARTCHAR p
ENCODING 112
SWIDTH 1080 0
DWIDTH 18 0
BBX 18 36 0 -8
BITMAP
000000
000000
000000
000000
000000
000000
000000
000000
000000
000000
000000
000000
000000
000000
33F000
33F000
3C0C00
3C0C00
300300
300300
300300
300300
300300
300300
3C0C00
3C0C00
33F000
33F000
300000
300000
300000
300000
300000
300000
000000
000000
ENDCHAR
STARTCHAR q
ENCODING 113
SWIDTH 1080 0
DWIDTH 18 0
BBX 18 36 0 -8
BITMAP
000000
000000
000000
000000
000000
000000
000000
000000
000000
000000
000000
000000
000000
000000
03F300
03F300
0C0F00
0C0F00
300300
300300
300300
300300
300300
300300
0C0F00
0C0F00
03F300
03F300
000300
000300
000300
000300
000300
000300
000000
000000
ENDCHAR
STARTCHAR r
ENCODING 114
SWIDTH 1080 0
DWIDTH 18 0
BBX 18 36 0 -8
BITMAP
000000
000000
000000
000000
000000
000000
000000
000000
000000
000000
000000
000000
000000
000000
30FC00
30FC00
0F0300
0F0300
0C0300
0C0300
0C0000
0C0000
0C0000
0C0000
0C0000
0C0000
0C0000
0C0000
000000
000000
000000
000000
000000
000000
000000
000000
ENDCHAR
STARTCHAR s
ENCODING 115
SWIDTH 1080 0
DWIDTH 18 0
BBX 18 36 0 -8
BITMAP
000000
000000
000000
000000
000000
000000
000000
000000
000000
000000
000000
000000
000000
000000
0FFC00
0FFC00
300300
300300
300000
300000
0FFC00
0FFC00
000300
000300
300300
300300
0FFC00
0FFC00
000000
000000
000000
000000
000000
000000
000000
000000
ENDCHAR
STARTCHAR t
ENCODING 116
SWIDTH 1080 0
DWIDTH 18 0
BBX 18 36 0 -8
BITMAP
000000
000000
000000
000000
000000
000000
000000
000000
000000
000000
030000
030000
030000
030000
3FFC00
3FFC00
030000
030000
030000
030000
030000
030000
030000
030000
030300
030300
00FC00
00FC00
000000
000000
000000
000000
000000
000000
000000
000000
ENDCHAR
STARTCHAR u
ENCODING 117
SWIDTH 1080 0
DWIDTH 18 0
BBX 18 36 0 -8
BITMAP
000000
000000
000000
000000
000000
000000
000000
000000
000000
000000
000000
000000
000000
000000
300300
300300
300300
300300
300300
300300
300300
300300
300300
300300
300F00
300F00
0FF300
0FF300
000000
000000
000000
000000
000000
000000
000000
000000
ENDCHAR
STARTCHAR v
ENCODING 118
SWIDTH 1080 0
DWIDTH 18 0
BBX 18 36 0 -8
BITMAP
000000
000000
000000
000000
000000
000000
000000
000000
000000
000000
000000
000000
000000
000000
300300
300300
300300
300300
0C0C00
0C0C00
0C0C00
0C0C00
033000
033000
033000
033000
00C000
00C000
000000
000000
000000
000000
000000
000000
000000
000000
ENDCHAR
STARTCHAR w
ENCODING 119
SWIDTH 1080 0
DWIDTH 18 0
BBX 18 36 0 -8
BITMAP
000000
000000
000000
000000
000000
000000
000000
000000
000000
000000
000000
000000
000000
000000
300300
300300
300300
300300
30C300
30C300
30C300
30C300
30C300
30C300
333300
333300
0C0C00
0C0C00
000000
000000
000000
000000
000000
000000
000000
000000
ENDCHAR
STARTCHAR x
ENCODING 120
SWIDTH 1080 0
DWIDTH 18 0
BBX 18 36 0 -8
BITMAP
000000
000000
000000
000000
000000
000000
000000
000000
000000
000000
000000
000000
000000
000000
300300
300300
0C0C00
0C0C00
033000
033000
00C000
00C000
033000
033000
0C0C00
0C0C00
300300
300300
000000
000000
000000
000000
000000
000000
000000
000000
ENDCHAR
STARTCHAR y
ENCODING 121
SWIDTH 1080 0
DWIDTH 18 0
BBX 18 36 0 -8
BITMAP
000000
000000
000000
000000
000000
000000
000000
000000
000000
000000
000000
000000
000000
000000
0C0300
0C0300
0C0300
0C0300
030C00
030C00
030C00
030C00
030C00
030C00
00F000
00F000
00F000
00F000
00C000
00C000
30C000
30C000
0F0000
0F0000
000000
000000
ENDCHAR
STARTCHAR z
ENCODING 122
SWIDTH 1080 0
DWIDTH 18 0
BBX 18 36 0 -8
BITMAP
000000
000000
000000
000000
000000
000000
000000
000000
000000
000000
000000
000000
000000
000000
3FFF00
3FFF00
000C00
000C00
003000
003000
00C000
00C000
030000
030000
0C0000
0C0000
3FFF00
3FFF00
000000
000000
000000
000000
000000
000000
000000
000000
ENDCHAR
STARTCHAR braceleft
ENCODING 123
SWIDTH 1080 0
DWIDTH 18 0
BBX 18 36 0 -8
BITMAP
000000
000000
000000
000000
000000
000000
003F00
003F00
00C000
00C000
00C000
00C000
00C000
00C000
00C000
00C000
0F0000
0F0000
00C000
00C000
00C000
00C000
00C000
00C000
00C000
00C000
003F00
003F00
000000
000000
000000
000000
000000
000000
000000
000000
ENDCHAR
STARTCHAR bar
ENCODING 124
SWIDTH 1080 0
DWIDTH 18 0
BBX 18 36 0 -8
BITMAP
000000
000000
000000
000000
000000
000000
00C000
00C000
00C000
00C000
00C000
00C000
00C000
00C000
00C000
00C000
00C000
00C000
00C000
00C000
00C000
00C000
00C000
00C000
00C000
00C000
00C000
00C000
00C000
00C000
000000
000000
000000
000000
000000
000000
ENDCHAR
STARTCHAR braceright
ENCODING 125
SWIDTH 1080 0
DWIDTH 18 0
BBX 18 36 0 -8
BITMAP
000000
000000
000000
000000
000000
000000
3F0000
3F0000
00C000
00C000
00C000
00C000
00C000
00C000
00C000
00C000
003C00
003C00
00C000
00C000
00C000
00C000
00C000
00C000
00C000
00C000
3F0000
3F0000
000000
000000
000000
000000
000000
000000
000000
000000
ENDCHAR
STARTCHAR asciitilde
ENCODING 126
SWIDTH 1080 0
DWIDTH 18 0
BBX 18 36 0 -8
BITMAP
000000
000000
000000
000000
000000
000000
000000
000000
0F0300
0F0300
30C300
30C300
303C00
303C00
000000
000000
000000
000000
000000
000000
000000
000000
000000
000000
000000
000000
000000
000000
000000
000000
000000
000000
000000
000000
000000
000000
ENDCHAR
STARTCHAR space
ENCODING 160
SWIDTH 1080 0
DWIDTH 18 0
BBX 18 36 0 -8
BITMAP
000000
000000
000000
000000
000000
000000
000000
000000
000000
000000
000000
000000
000000
000000
000000
000000
000000
000000
000000
000000
000000
000000
000000
000000
000000
000000
000000
000000
000000
000000
000000
000000
000000
000000
000000
000000
ENDCHAR
STARTCHAR exclamdown
ENCODING 161
SWIDTH 1080 0
DWIDTH 18 0
BBX 18 36 0 -8
BITMAP
000000
000000
000000
000000
000000
000000
00C000
00C000
00C000
00C000
000000
000000
000000
000000
00C000
00C000
00C000
00C000
00C000
00C000
00C000
00C000
00C000
00C000
00C000
00C000
00C000
00C000
000000
000000
000000
000000
000000
000000
000000
000000
ENDCHAR
STARTCHAR cent
ENCODING 162
SWIDTH 1080 0
DWIDTH 18 0
BBX 18 36 0 -8
BITMAP
000000
000000
000000
000000
000000
000000
000000
000000
000000
000000
000000
000000
003000
003000
0FF000
0FF000
30CC00
30CC00
30C000
30C000
330000
330000
330C00
330C00
0FF000
0FF000
0C0000
0C0000
000000
000000
000000
000000
000000
000000
000000
000000
ENDCHAR
STARTCHAR sterling
ENCODING 163
SWIDTH 1080 0
DWIDTH 18 0
BBX 18 36 0 -8
BITMAP
000000
000000
000000
000000
000000
000000
000000
000000
00FC00
00FC00
030300
030300
030000
030000
030000
030000
3FF000
3FF000
030000
030000
030000
030000
0F0000
0F0000
330300
330300
0CFC00
0CFC00
000000
000000
000000
000000
000000
000000
000000
000000
ENDCHAR
STARTCHAR currency
ENCODING 164
SWIDTH 1080 0
DWIDTH 18 0
BBX 18 36 0 -8
BITMAP
000000
000000
000000
000000
000000
000000
000000
000000
000000
000000
300300
300300
0FFC00
0FFC00
0C0C00
0C0C00
0C0C00
0C0C00
0FFC00
0FFC00
300300
300300
000000
000000
000000
000000
000000
000000
000000
000000
000000
000000
000000
000000
000000
000000
ENDCHAR
STARTCHAR yen
ENCODING 165
SWIDTH 1080 0
DWIDTH 18 0
BBX 18 36 0 -8
BITMAP
000000
000000
000000
000000
000000
000000
000000
000000
300300
300300
300300
300300
0C0C00
0C0C00
033000
033000
0FFC00
0FFC00
00C000
00C000
0FFC00
0FFC00
00C000
00C000
00C000
00C000
00C000
00C000
000000
000000
000000
000000
000000
000000
000000
000000
ENDCHAR
STARTCHAR brokenbar
ENCODING 166
SWIDTH 1080 0
DWIDTH 18 0
BBX 18 36 0 -8
BITMAP
000000
000000
000000
000000
000000
000000
000000
000000
00C000
00C000
00C000
00C000
00C000
00C000
00C000
00C000
00C000
00C000
000000
000000
00C000
00C000
00C000
00C000
00C000
00C000
00C000
00C000
00C000
00C000
000000
000000
000000
000000
000000
000000
ENDCHAR
STARTCHAR section
ENCODING 167
SWIDTH 1080 0
DWIDTH 18 0
BBX 18 36 0 -8
BITMAP
000000
000000
000000
000000
000000
000000
000000
000000
03C000
03C000
0C3000
0C3000
0C0000
0C0000
03C000
03C000
0C3000
0C3000
0C3000
0C3000
0C3000
0C3000
03C000
03C000
003000
003000
0C3000
0C3000
03C000
03C000
000000
000000
000000
000000
000000
000000
ENDCHAR
STARTCHAR dieresis
ENCODING 168
SWIDTH 1080 0
DWIDTH 18 0
BBX 18 36 0 -8
BITMAP
000000
000000
033000
033000
033000
033000
000000
000000
000000
000000
000000
000000
000000
000000
000000
000000
000000
000000
000000
000000
000000
000000
000000
000000
000000
000000
000000
000000
000000
000000
000000
000000
000000
000000
000000
000000
ENDCHAR
STARTCHAR copyright
ENCODING 169
SWIDTH 1080 0
DWIDTH 18 0
BBX 18 36 0 -8
BITMAP
000000
000000
000000
000000
000000
000000
000000
000000
0FF000
0FF000
300C00
300C00
C3C300
C3C300
CC3300
CC3300
CC0300
CC0300
CC3300
CC3300
C3C300
C3C300
300C00
300C00
0FF000
0FF000
000000
000000
000000
000000
000000
000000
000000
000000
000000
000000
ENDCHAR
STARTCHAR ordfeminine
ENCODING 170
SWIDTH 1080 0
DWIDTH 18 0
BBX 18 36 0 -8
BITMAP
000000
000000
000000
000000
000000
000000
000000
000000
0F0000
0F0000
30C000
30C000
0FC000
0FC000
30C000
30C000
0FF000
0FF000
000000
000000
3FF000
3FF000
000000
000000
000000
000000
000000
000000
000000
000000
000000
000000
000000
000000
000000
000000
ENDCHAR
STARTCHAR guillemotleft
ENCODING 171
SWIDTH 1080 0
DWIDTH 18 0
BBX 18 36 0 -8
BITMAP
000000
000000
000000
000000
000000
000000
000000
000000
000000
000000
00C300
00C300
030C00
030C00
0C3000
0C3000
30C000
30C000
30C000
30C000
0C3000
0C3000
030C00
030C00
00C300
00C300
000000
000000
000000
000000
000000
000000
000000
000000
000000
000000
ENDCHAR
STARTCHAR logicalnot
ENCODING 172
SWIDTH 1080 0
DWIDTH 18 0
BBX 18 36 0 -8
BITMAP
000000
000000
000000
000000
000000
000000
000000
000000
000000
000000
000000
000000
000000
000000
000000
000000
3FFC00
3FFC00
000C00
000C00
000C00
000C00
000C00
000C00
000000
000000
000000
000000
000000
000000
000000
000000
000000
000000
000000
000000
ENDCHAR
STARTCHAR hyphen
ENCODING 173
SWIDTH 1080 0
DWIDTH 18 0
BBX 18 36 0 -8
BITMAP
000000
000000
000000
000000
000000
000000
000000
000000
000000
000000
000000
000000
000000
000000
000000
000000
000000
000000
0FFC00
0FFC00
000000
000000
000000
000000
000000
000000
000000
000000
000000
000000
000000
000000
000000
000000
000000
000000
ENDCHAR
STARTCHAR registered
ENCODING 174
SWIDTH 1080 0
DWIDTH 18 0
BBX 18 36 0 -8
BITMAP
000000
000000
000000
000000
000000
000000
000000
000000
0FF000
0FF000
300C00
300C00
CFC300
CFC300
CC3300
CC3300
CFF300
CFF300
CCC300
CCC300
CC3300
CC3300
300C00
300C00
0FF000
0FF000
000000
000000
000000
000000
000000
000000
000000
000000
000000
000000
ENDCHAR
STARTCHAR macron
ENCODING 175
SWIDTH 1080 0
DWIDTH 18 0
BBX 18 36 0 -8
BITMAP
000000
000000
000000
000000
000000
000000
000000
000000
3FFC00
3FFC00
000000
000000
000000
000000
000000
000000
000000
000000
000000
000000
000000
000000
000000
000000
000000
000000
000000
000000
000000
000000
000000
000000
000000
000000
000000
000000
ENDCHAR
STARTCHAR degree
ENCODING 176
SWIDTH 1080 0
DWIDTH 18 0
BBX 18 36 0 -8
BITMAP
000000
000000
000000
000000
000000
000000
000000
000000
00F000
00F000
030C00
030C00
030C00
030C00
00F000
00F000
000000
000000
000000
000000
000000
000000
000000
000000
000000
000000
000000
000000
000000
000000
000000
000000
000000
000000
000000
000000
ENDCHAR
STARTCHAR plusminus
ENCODING 177
SWIDTH 1080 0
DWIDTH 18 0
BBX 18 36 0 -8
BITMAP
000000
000000
000000
000000
000000
000000
000000
000000
00C000
00C000
00C000
00C000
00C000
00C000
3FFF00
3FFF00
00C000
00C000
00C000
00C000
00C000
00C000
000000
000000
3FFF00
3FFF00
000000
000000
000000
000000
000000
000000
000000
000000
000000
000000
ENDCHAR
STARTCHAR twosuperior
ENCODING 178
SWIDTH 1080 0
DWIDTH 18 0
BBX 18 36 0 -8
BITMAP
000000
000000
000000
000000
000000
000000
000000
000000
0F0000
0F0000
30C000
30C000
00C000
00C000
0F0000
0F0000
300000
300000
3FC000
3FC000
000000
000000
000000
000000
000000
000000
000000
000000
000000
000000
000000
000000
000000
000000
000000
000000
ENDCHAR
STARTCHAR threesuperior
ENCODING 179
SWIDTH 1080 0
DWIDTH 18 0
BBX 18 36 0 -8
BITMAP
000000
000000
000000
000000
000000
000000
000000
000000
0F0000
0F0000
30C000
30C000
030000
030000
00C000
00C000
30C000
30C000
0F0000
0F0000
000000
000000
000000
000000
000000
000000
000000
000000
000000
000000
000000
000000
000000
000000
000000
000000
ENDCHAR
STARTCHAR acute
ENCODING 180
SWIDTH 1080 0
DWIDTH 18 0
BBX 18 36 0 -8
BITMAP
000000
000000
003000
003000
00C000
00C000
030000
030000
000000
000000
000000
000000
000000
000000
000000
000000
000000
000000
000000
000000
000000
000000
000000
000000
000000
000000
000000
000000
000000
000000
000000
000000
000000
000000
000000
000000
ENDCHAR
STARTCHAR mu
ENCODING 181
SWIDTH 1080 0
DWIDTH 18 0
BBX 18 36 0 -8
BITMAP
000000
000000
000000
000000
000000
000000
000000
000000
000000
000000
000000
000000
000000
000000
300300
300300
300300
300300
300300
300300
300300
300300
300300
300300
3C0F00
3C0F00
33F300
33F300
300000
300000
300000
300000
000000
000000
000000
000000
ENDCHAR
STARTCHAR paragraph
ENCODING 182
SWIDTH 1080 0
DWIDTH 18 0
BBX 18 36 0 -8
BITMAP
000000
000000
000000
000000
000000
000000
000000
000000
0FFF00
0FFF00
303300
303300
303300
303300
303300
303300
0FF300
0FF300
003300
003300
003300
003300
003300
003300
003300
003300
003300
003300
000000
000000
000000
000000
000000
000000
000000
000000
ENDCHAR
STARTCHAR periodcentered
ENCODING 183
SWIDTH 1080 0
DWIDTH 18 0
BBX 18 36 0 -8
BITMAP
000000
000000
000000
000000
000000
000000
000000
000000
000000
000000
000000
000000
000000
000000
000000
000000
00F000
00F000
00F000
00F000
000000
000000
000000
000000
000000
000000
000000
000000
000000
000000
000000
000000
000000
000000
000000
000000
ENDCHAR
STARTCHAR cedilla
ENCODING 184
SWIDTH 1080 0
DWIDTH 18 0
BBX 18 36 0 -8
BITMAP
000000
000000
000000
000000
000000
000000
000000
000000
000000
000000
000000
000000
000000
000000
000000
000000
000000
000000
000000
000000
000000
000000
000000
000000
000000
000000
000000
000000
00C000
00C000
0C3000
0C3000
03C000
03C000
000000
000000
ENDCHAR
STARTCHAR onesuperior
ENCODING 185
SWIDTH 1080 0
DWIDTH 18 0
BBX 18 36 0 -8
BITMAP
000000
000000
000000
000000
000000
000000
000000
000000
0C0000
0C0000
3C0000
3C0000
0C0000
0C0000
0C0000
0C0000
0C0000
0C0000
3F0000
3F0000
000000
000000
000000
000000
000000
000000
000000
000000
000000
000000
000000
000000
000000
000000
000000
000000
ENDCHAR
STARTCHAR ordmasculine
ENCODING 186
SWIDTH 1080 0
DWIDTH 18 0
BBX 18 36 0 -8
BITMAP
000000
000000
000000
000000
000000
000000
000000
000000
0FC000
0FC000
303000
303000
303000
303000
0FC000
0FC000
000000
000000
3FF000
3FF000
000000
000000
000000
000000
000000
000000
000000
000000
000000
000000
000000
000000
000000
000000
000000
000000
ENDCHAR
STARTCHAR guillemotright
ENCODING 187
SWIDTH 1080 0
DWIDTH 18 0
BBX 18 36 0 -8
BITMAP
000000
000000
000000
000000
000000
000000
000000
000000
000000
000000
30C000
30C000
0C3000
0C3000
030C00
030C00
00C300
00C300
00C300
00C300
030C00
030C00
0C3000
0C3000
30C000
30C000
000000
000000
000000
000000
000000
000000
000000
000000
000000
000000
ENDCHAR
STARTCHAR onequarter
ENCODING 188
SWIDTH 1080 0
DWIDTH 18 0
BBX 18 36 0 -8
BITMAP
000000
000000
000000
000000
000000
000000
000000
000000
0C0000
0C0000
3C0000
3C0000
0C0000
0C0000
0C0000
0C0000
0C0300
0C0300
3F0F00
3F0F00
003300
003300
00C300
00C300
00F300
00F300
000F00
000F00
000000
000000
000000
000000
000000
000000
000000
000000
ENDCHAR
STARTCHAR onehalf
ENCODING 189
SWIDTH 1080 0
DWIDTH 18 0
BBX 18 36 0 -8
BITMAP
000000
000000
000000
000000
000000
000000
000000
000000
0C0000
0C0000
3C0000
3C0000
0C0000
0C0000
0C0000
0C0000
0C3C00
0C3C00
3FC300
3FC300
000300
000300
003C00
003C00
00C000
00C000
00FF00
00FF00
000000
000000
000000
000000
000000
000000
000000
000000
ENDCHAR
STARTCHAR threequarters
ENCODING 190
SWIDTH 1080 0
DWIDTH 18 0
BBX 18 36 0 -8
BITMAP
000000
000000
000000
000000
000000
000000
000000
000000
0F0000
0F0000
30C000
30C000
030000
030000
00C000
00C000
30C300
30C300
0F0F00
0F0F00
003300
003300
00C300
00C300
00F300
00F300
000F00
000F00
000000
000000
000000
000000
000000
000000
000000
000000
ENDCHAR
STARTCHAR questiondown
ENCODING 191
SWIDTH 1080 0
DWIDTH 18 0
BBX 18 36 0 -8
BITMAP
000000
000000
000000
000000
000000
000000
000000
000000
00C000
00C000
000000
000000
00C000
00C000
00C000
00C000
030000
030000
0C0000
0C0000
300000
300000
300300
300300
300300
300300
0FFC00
0FFC00
000000
000000
000000
000000
000000
000000
000000
000000
ENDCHAR
STARTCHAR Agrave
ENCODING 192
SWIDTH 1080 0
DWIDTH 18 0
BBX 18 36 0 -8
BITMAP
030000
030000
00C000
00C000
003000
003000
000000
000000
00C000
00C000
033000
033000
033000
033000
033000
033000
0C0C00
0C0C00
0FFC00
0FFC00
0C0C00
0C0C00
300300
300300
300300
300300
300300
300300
000000
000000
000000
000000
000000
000000
000000
000000
ENDCHAR
STARTCHAR Aacute
ENCODING 193
SWIDTH 1080 0
DWIDTH 18 0
BBX 18 36 0 -8
BITMAP
003000
003000
00C000
00C000
030000
030000
000000
000000
00C000
00C000
033000
033000
033000
033000
033000
033000
0C0C00
0C0C00
0FFC00
0FFC00
0C0C00
0C0C00
300300
300300
300300
300300
300300
300300
000000
000000
000000
000000
000000
000000
000000
000000
ENDCHAR
STARTCHAR Acircumflex
ENCODING 194
SWIDTH 1080 0
DWIDTH 18 0
BBX 18 36 0 -8
BITMAP
00C000
00C000
033000
033000
0C0C00
0C0C00
000000
000000
00C000
00C000
033000
033000
033000
033000
033000
033000
0C0C00
0C0C00
0FFC00
0FFC00
0C0C00
0C0C00
300300
300300
300300
300300
300300
300300
000000
000000
000000
000000
000000
000000
000000
000000
ENDCHAR
STARTCHAR Atilde
ENCODING 195
SWIDTH 1080 0
DWIDTH 18 0
BBX 18 36 0 -8
BITMAP
000000
000000
03CC00
03CC00
0CF000
0CF000
000000
000000
00C000
00C000
033000
033000
033000
033000
033000
033000
0C0C00
0C0C00
0FFC00
0FFC00
0C0C00
0C0C00
300300
300300
300300
300300
300300
300300
000000
000000
000000
000000
000000
000000
000000
000000
ENDCHAR
STARTCHAR Adieresis
ENCODING 196
SWIDTH 1080 0
DWIDTH 18 0
BBX 18 36 0 -8
BITMAP
000000
000000
033000
033000
033000
033000
000000
000000
00C000
00C000
033000
033000
033000
033000
033000
033000
0C0C00
0C0C00
0FFC00
0FFC00
0C0C00
0C0C00
300300
300300
300300
300300
300300
300300
000000
000000
000000
000000
000000
000000
000000
000000
ENDCHAR
STARTCHAR Aring
ENCODING 197
SWIDTH 1080 0
DWIDTH 18 0
BBX 18 36 0 -8
BITMAP
00C000
00C000
033000
033000
033000
033000
00C000
00C000
00C000
00C000
033000
033000
033000
033000
033000
033000
0C0C00
0C0C00
0FFC00
0FFC00
0C0C00
0C0C00
300300
300300
300300
300300
300300
300300
000000
000000
000000
000000
000000
000000
000000
000000
ENDCHAR
STARTCHAR AE
ENCODING 198
SWIDTH 1080 0
DWIDTH 18 0
BBX 18 36 0 -8
BITMAP
000000
000000
000000
000000
000000
000000
000000
000000
00FF00
00FF00
033000
033000
033000
033000
033000
033000
0C3F00
0C3F00
0FF000
0FF000
0C3000
0C3000
303000
303000
303000
303000
303F00
303F00
000000
000000
000000
000000
000000
000000
000000
000000
ENDCHAR
STARTCHAR Ccedilla
ENCODING 199
SWIDTH 1080 0
DWIDTH 18 0
BBX 18 36 0 -8
BITMAP
000000
000000
000000
000000
000000
000000
000000
000000
03FC00
03FC00
0C0300
0C0300
300000
300000
300000
300000
300000
300000
300000
300000
300000
300000
300000
300000
0C0300
0C0300
03FC00
03FC00
003000
003000
030C00
030C00
00F000
00F000
000000
000000
ENDCHAR
STARTCHAR Egrave
ENCODING 200
SWIDTH 1080 0
DWIDTH 18 0
BBX 18 36 0 -8
BITMAP
030000
030000
00C000
00C000
003000
003000
000000
000000
3FFF00
3FFF00
300000
300000
300000
300000
300000
300000
3FF000
3FF000
300000
300000
300000
300000
300000
300000
300000
300000
3FFF00
3FFF00
000000
000000
000000
000000
000000
000000
000000
000000
ENDCHAR
STARTCHAR Eacute
ENCODING 201
SWIDTH 1080 0
DWIDTH 18 0
BBX 18 36 0 -8
BITMAP
003000
003000
00C000
00C000
030000
030000
000000
000000
3FFF00
3FFF00
300000
300000
300000
300000
300000
300000
3FF000
3FF000
300000
300000
300000
300000
300000
300000
300000
300000
3FFF00
3FFF00
000000
000000
000000
000000
000000
000000
000000
000000
ENDCHAR
STARTCHAR Ecircumflex
ENCODING 202
SWIDTH 1080 0
DWIDTH 18 0
BBX 18 36 0 -8
BITMAP
00C000
00C000
033000
033000
0C0C00
0C0C00
000000
000000
3FFF00
3FFF00
300000
300000
300000
300000
300000
300000
3FF000
3FF000
300000
300000
300000
300000
300000
300000
300000
300000
3FFF00
3FFF00
000000
000000
000000
000000
000000
000000
000000
000000
ENDCHAR
STARTCHAR Edieresis
ENCODING 203
SWIDTH 1080 0
DWIDTH 18 0
BBX 18 36 0 -8
BITMAP
000000
000000
033000
033000
033000
033000
000000
000000
3FFF00
3FFF00
300000
300000
300000
300000
300000
300000
3FF000
3FF000
300000
300000
300000
300000
300000
300000
300000
300000
3FFF00
3FFF00
000000
000000
000000
000000
000000
000000
000000
000000
ENDCHAR
STARTCHAR Igrave
ENCODING 204
SWIDTH 1080 0
DWIDTH 18 0
BBX 18 36 0 -8
BITMAP
030000
030000
00C000
00C000
003000
003000
000000
000000
0FFC00
0FFC00
00C000
00C000
00C000
00C000
00C000
00C000
00C000
00C000
00C000
00C000
00C000
00C000
00C000
00C000
00C000
00C000
0FFC00
0FFC00
000000
000000
000000
000000
000000
000000
000000
000000
ENDCHAR
STARTCHAR Iacute
ENCODING 205
SWIDTH 1080 0
DWIDTH 18 0
BBX 18 36 0 -8
BITMAP
003000
003000
00C000
00C000
030000
030000
000000
000000
0FFC00
0FFC00
00C000
00C000
00C000
00C000
00C000
00C000
00C000
00C000
00C000
00C000
00C000
00C000
00C000
00C000
00C000
00C000
0FFC00
0FFC00
000000
000000
000000
000000
000000
000000
000000
000000
ENDCHAR
STARTCHAR Icircumflex
ENCODING 206
SWIDTH 1080 0
DWIDTH 18 0
BBX 18 36 0 -8
BITMAP
00C000
00C000
033000
033000
0C0C00
0C0C00
000000
000000
0FFC00
0FFC00
00C000
00C000
00C000
00C000
00C000
00C000
00C000
00C000
00C000
00C000
00C000
00C000
00C000
00C000
00C000
00C000
0FFC00
0FFC00
000000
000000
000000
000000
000000
000000
000000
000000
ENDCHAR
STARTCHAR Idieresis
ENCODING 207
SWIDTH 1080 0
DWIDTH 18 0
BBX 18 36 0 -8
BITMAP
000000
000000
033000
033000
033000
033000
000000
000000
0FFC00
0FFC00
00C000
00C000
00C000
00C000
00C000
00C000
00C000
00C000
00C000
00C000
00C000
00C000
00C000
00C000
00C000
00C000
0FFC00
0FFC00
000000
000000
000000
000000
000000
000000
000000
000000
ENDCHAR
STARTCHAR Eth
ENCODING 208
SWIDTH 1080 0
DWIDTH 18 0
BBX 18 36 0 -8
BITMAP
000000
000000
000000
000000
000000
000000
000000
000000
0FF000
0FF000
0C0C00
0C0C00
0C0300
0C0300
0C0300
0C0300
3FC300
3FC300
0C0300
0C0300
0C0300
0C0300
0C0300
0C0300
0C0C00
0C0C00
0FF000
0FF000
000000
000000
000000
000000
000000
000000
000000
000000
ENDCHAR
STARTCHAR Ntilde
ENCODING 209
SWIDTH 1080 0
DWIDTH 18 0
BBX 18 36 0 -8
BITMAP
000000
000000
03CC00
03CC00
0CF000
0CF000
000000
000000
300300
300300
300300
300300
3C0300
3C0300
330300
330300
30C300
30C300
303300
303300
300F00
300F00
300300
300300
300300
300300
300300
300300
000000
000000
000000
000000
000000
000000
000000
000000
ENDCHAR
STARTCHAR Ograve
ENCODING 210
SWIDTH 1080 0
DWIDTH 18 0
BBX 18 36 0 -8
BITMAP
030000
030000
00C000
00C000
003000
003000
000000
000000
0FFC00
0FFC00
300300
300300
300300
300300
300300
300300
300300
300300
300300
300300
300300
300300
300300
300300
300300
300300
0FFC00
0FFC00
000000
000000
000000
000000
000000
000000
000000
000000
ENDCHAR
STARTCHAR Oacute
ENCODING 211
SWIDTH 1080 0
DWIDTH 18 0
BBX 18 36 0 -8
BITMAP
003000
003000
00C000
00C000
030000
030000
000000
000000
0FFC00
0FFC00
300300
300300
300300
300300
300300
300300
300300
300300
300300
300300
300300
300300
300300
300300
300300
300300
0FFC00
0FFC00
000000
000000
000000
000000
000000
000000
000000
000000
ENDCHAR
STARTCHAR Ocircumflex
ENCODING 212
SWIDTH 1080 0
DWIDTH 18 0
BBX 18 36 0 -8
BITMAP
00C000
00C000
033000
033000
0C0C00
0C0C00
000000
000000
0FFC00
0FFC00
300300
300300
300300
300300
300300
300300
300300
300300
300300
300300
300300
300300
300300
300300
300300
300300
0FFC00
0FFC00
000000
000000
000000
000000
000000
000000
000000
000000
ENDCHAR
STARTCHAR Otilde
ENCODING 213
SWIDTH 1080 0
DWIDTH 18 0
BBX 18 36 0 -8
BITMAP
000000
000000
03CC00
03CC00
0CF000
0CF000
000000
000000
0FFC00
0FFC00
300300
300300
300300
300300
300300
300300
300300
300300
300300
300300
300300
300300
300300
300300
300300
300300
0FFC00
0FFC00
000000
000000
000000
000000
000000
000000
000000
000000
ENDCHAR
STARTCHAR Odieresis
ENCODING 214
SWIDTH 1080 0
DWIDTH 18 0
BBX 18 36 0 -8
BITMAP
000000
000000
033000
033000
033000
033000
000000
000000
0FFC00
0FFC00
300300
300300
300300
300300
300300
300300
300300
300300
300300
300300
300300
300300
300300
300300
300300
300300
0FFC00
0FFC00
000000
000000
000000
000000
000000
000000
000000
000000
ENDCHAR
STARTCHAR multiply
ENCODING 215
SWIDTH 1080 0
DWIDTH 18 0
BBX 18 36 0 -8
BITMAP
000000
000000
000000
000000
000000
000000
000000
000000
000000
000000
000000
000000
300300
300300
0C0C00
0C0C00
033000
033000
00C000
00C000
033000
033000
0C0C00
0C0C00
300300
300300
000000
000000
000000
000000
000000
000000
000000
000000
000000
000000
ENDCHAR
STARTCHAR Oslash
ENCODING 216
SWIDTH 1080 0
DWIDTH 18 0
BBX 18 36 0 -8
BITMAP
000000
000000
000000
000000
000000
000000
000300
000300
0FFC00
0FFC00
300F00
300F00
303300
303300
303300
303300
30C300
30C300
30C300
30C300
330300
330300
330300
330300
3C0300
3C0300
0FFC00
0FFC00
300000
300000
000000
000000
000000
000000
000000
000000
ENDCHAR
STARTCHAR Ugrave
ENCODING 217
SWIDTH 1080 0
DWIDTH 18 0
BBX 18 36 0 -8
BITMAP
030000
030000
00C000
00C000
003000
003000
000000
000000
300300
300300
300300
300300
300300
300300
300300
300300
300300
300300
300300
300300
300300
300300
300300
300300
0C0C00
0C0C00
03F000
03F000
000000
000000
000000
000000
000000
000000
000000
000000
ENDCHAR
STARTCHAR Uacute
ENCODING 218
SWIDTH 1080 0
DWIDTH 18 0
BBX 18 36 0 -8
BITMAP
003000
003000
00C000
00C000
030000
030000
000000
000000
300300
300300
300300
300300
300300
300300
300300
300300
300300
300300
300300
300300
300300
300300
300300
300300
0C0C00
0C0C00
03F000
03F000
000000
000000
000000
000000
000000
000000
000000
000000
ENDCHAR
STARTCHAR Ucircumflex
ENCODING 219
SWIDTH 1080 0
DWIDTH 18 0
BBX 18 36 0 -8
BITMAP
00C000
00C000
033000
033000
0C0C00
0C0C00
000000
000000
300300
300300
300300
300300
300300
300300
300300
300300
300300
300300
300300
300300
300300
300300
300300
300300
0C0C00
0C0C00
03F000
03F000
000000
000000
000000
000000
000000
000000
000000
000000
ENDCHAR
STARTCHAR Udieresis
ENCODING 220
SWIDTH 1080 0
DWIDTH 18 0
BBX 18 36 0 -8
BITMAP
000000
000000
033000
033000
033000
033000
000000
000000
300300
300300
300300
300300
300300
300300
300300
300300
300300
300300
300300
300300
300300
300300
300300
300300
0C0C00
0C0C00
03F000
03F000
000000
000000
000000
000000
000000
000000
000000
000000
ENDCHAR
STARTCHAR Yacute
ENCODING 221
SWIDTH 1080 0
DWIDTH 18 0
BBX 18 36 0 -8
BITMAP
003000
003000
00C000
00C000
030000
030000
000000
000000
300300
300300
300300
300300
0C0C00
0C0C00
033000
033000
00C000
00C000
00C000
00C000
00C000
00C000
00C000
00C000
00C000
00C000
00C000
00C000
000000
000000
000000
000000
000000
000000
000000
000000
ENDCHAR
STARTCHAR Thorn
ENCODING 222
SWIDTH 1080 0
DWIDTH 18 0
BBX 18 36 0 -8
BITMAP
000000
000000
000000
000000
000000
000000
000000
000000
300000
300000
300000
300000
3FFC00
3FFC00
300300
300300
300300
300300
300300
300300
3FFC00
3FFC00
300000
300000
300000
300000
300000
300000
000000
000000
000000
000000
000000
000000
000000
000000
ENDCHAR
STARTCHAR germandbls
ENCODING 223
SWIDTH 1080 0
DWIDTH 18 0
BBX 18 36 0 -8
BITMAP
000000
000000
000000
000000
000000
000000
000000
000000
03F000
03F000
0C0C00
0C0C00
0C0C00
0C0C00
0C3000
0C3000
3CC000
3CC000
0C3000
0C3000
0C0C00
0C0C00
0C0C00
0C0C00
0C0C00
0C0C00
0CF000
0CF000
000000
000000
000000
000000
000000
000000
000000
000000
ENDCHAR
STARTCHAR agrave
ENCODING 224
SWIDTH 1080 0
DWIDTH 18 0
BBX 18 36 0 -8
BITMAP
000000
000000
000000
000000
000000
000000
030000
030000
00C000
00C000
003000
003000
000000
000000
0FFC00
0FFC00
000300
000300
000300
000300
0FFF00
0FFF00
300300
300300
300F00
300F00
0FF300
0FF300
000000
000000
000000
000000
000000
000000
000000
000000
ENDCHAR
STARTCHAR aacute
ENCODING 225
SWIDTH 1080 0
DWIDTH 18 0
BBX 18 36 0 -8
BITMAP
000000
000000
000000
000000
000000
000000
003000
003000
00C000
00C000
030000
030000
000000
000000
0FFC00
0FFC00
000300
000300
000300
000300
0FFF00
0FFF00
300300
300300
300F00
300F00
0FF300
0FF300
000000
000000
000000
000000
000000
000000
000000
000000
ENDCHAR
STARTCHAR acircumflex
ENCODING 226
SWIDTH 1080 0
DWIDTH 18 0
BBX 18 36 0 -8
BITMAP
000000
000000
000000
000000
000000
000000
00C000
00C000
033000
033000
0C0C00
0C0C00
000000
000000
0FFC00
0FFC00
000300
000300
000300
000300
0FFF00
0FFF00
300300
300300
300F00
300F00
0FF300
0FF300
000000
000000
000000
000000
000000
000000
000000
000000
ENDCHAR
STARTCHAR atilde
ENCODING 227
SWIDTH 1080 0
DWIDTH 18 0
BBX 18 36 0 -8
BITMAP
000000
000000
000000
000000
000000
000000
000000
000000
03CC00
03CC00
0CF000
0CF000
000000
000000
0FFC00
0FFC00
000300
000300
000300
000300
0FFF00
0FFF00
300300
300300
300F00
300F00
0FF300
0FF300
000000
000000
000000
000000
000000
000000
000000
000000
ENDCHAR
STARTCHAR adieresis
ENCODING 228
SWIDTH 1080 0
DWIDTH 18 0
BBX 18 36 0 -8
BITMAP
000000
000000
000000
000000
000000
000000
000000
000000
033000
033000
033000
033000
000000
000000
0FFC00
0FFC00
000300
000300
000300
000300
0FFF00
0FFF00
300300
300300
300F00
300F00
0FF300
0FF300
000000
000000
000000
000000
000000
000000
000000
000000
ENDCHAR
STARTCHAR aring
ENCODING 229
SWIDTH 1080 0
DWIDTH 18 0
BBX 18 36 0 -8
BITMAP
000000
000000
000000
000000
00C000
00C000
033000
033000
033000
033000
00C000
00C000
000000
000000
0FFC00
0FFC00
000300
000300
000300
000300
0FFF00
0FFF00
300300
300300
300F00
300F00
0FF300
0FF300
000000
000000
000000
000000
000000
000000
000000
000000
ENDCHAR
STARTCHAR ae
ENCODING 230
SWIDTH 1080 0
DWIDTH 18 0
BBX 18 36 0 -8
BITMAP
000000
000000
000000
000000
000000
000000
000000
000000
000000
000000
000000
000000
000000
000000
0F3C00
0F3C00
00C300
00C300
00C300
00C300
0FFF00
0FFF00
30C000
30C000
30C300
30C300
0F3C00
0F3C00
000000
000000
000000
000000
000000
000000
000000
000000
ENDCHAR
STARTCHAR ccedilla
ENCODING 231
SWIDTH 1080 0
DWIDTH 18 0
BBX 18 36 0 -8
BITMAP
000000
000000
000000
000000
000000
000000
000000
000000
000000
000000
000000
000000
000000
000000
0FFC00
0FFC00
300300
300300
300000
300000
300000
300000
300000
300000
300300
300300
0FFC00
0FFC00
00C000
00C000
0C3000
0C3000
03C000
03C000
000000
000000
ENDCHAR
STARTCHAR egrave
ENCODING 232
SWIDTH 1080 0
DWIDTH 18 0
BBX 18 36 0 -8
BITMAP
000000
000000
000000
000000
000000
000000
030000
030000
00C000
00C000
003000
003000
000000
000000
0FFC00
0FFC00
300300
300300
300300
300300
3FFF00
3FFF00
300000
300000
300300
300300
0FFC00
0FFC00
000000
000000
000000
000000
000000
000000
000000
000000
ENDCHAR
STARTCHAR eacute
ENCODING 233
SWIDTH 1080 0
DWIDTH 18 0
BBX 18 36 0 -8
BITMAP
000000
000000
000000
000000
000000
000000
003000
003000
00C000
00C000
030000
030000
000000
000000
0FFC00
0FFC00
300300
300300
300300
300300
3FFF00
3FFF00
300000
300000
300300
300300
0FFC00
0FFC00
000000
000000
000000
000000
000000
000000
000000
000000
ENDCHAR
STARTCHAR ecircumflex
ENCODING 234
SWIDTH 1080 0
DWIDTH 18 0
BBX 18 36 0 -8
BITMAP
000000
000000
000000
000000
000000
000000
00C000
00C000
033000
033000
0C0C00
0C0C00
000000
000000
0FFC00
0FFC00
300300
300300
300300
300300
3FFF00
3FFF00
300000
300000
300300
300300
0FFC00
0FFC00
000000
000000
000000
000000
000000
000000
000000
000000
ENDCHAR
STARTCHAR edieresis
ENCODING 235
SWIDTH 1080 0
DWIDTH 18 0
BBX 18 36 0 -8
BITMAP
000000
000000
000000
000000
000000
000000
000000
000000
033000
033000
033000
033000
000000
000000
0FFC00
0FFC00
300300
300300
300300
300300
3FFF00
3FFF00
300000
300000
300300
300300
0FFC00
0FFC00
000000
000000
000000
000000
000000
000000
000000
000000
ENDCHAR
STARTCHAR igrave
ENCODING 236
SWIDTH 1080 0
DWIDTH 18 0
BBX 18 36 0 -8
BITMAP
000000
000000
000000
000000
0C0000
0C0000
030000
030000
00C000
00C000
000000
000000
000000
000000
0FC000
0FC000
00C000
00C000
00C000
00C000
00C000
00C000
00C000
00C000
00C000
00C000
0FFC00
0FFC00
000000
000000
000000
000000
000000
000000
000000
000000
ENDCHAR
STARTCHAR iacute
ENCODING 237
SWIDTH 1080 0
DWIDTH 18 0
BBX 18 36 0 -8
BITMAP
000000
000000
000000
000000
003000
003000
00C000
00C000
030000
030000
000000
000000
000000
000000
0FC000
0FC000
00C000
00C000
00C000
00C000
00C000
00C000
00C000
00C000
00C000
00C000
0FFC00
0FFC00
000000
000000
000000
000000
000000
000000
000000
000000
ENDCHAR
STARTCHAR icircumflex
ENCODING 238
SWIDTH 1080 0
DWIDTH 18 0
BBX 18 36 0 -8
BITMAP
000000
000000
000000
000000
00C000
00C000
033000
033000
0C0C00
0C0C00
000000
000000
000000
000000
0FC000
0FC000
00C000
00C000
00C000
00C000
00C000
00C000
00C000
00C000
00C000
00C000
0FFC00
0FFC00
000000
000000
000000
000000
000000
000000
000000
000000
ENDCHAR
STARTCHAR idieresis
ENCODING 239
SWIDTH 1080 0
DWIDTH 18 0
BBX 18 36 0 -8
BITMAP
000000
000000
000000
000000
000000
000000
033000
033000
033000
033000
000000
000000
000000
000000
0FC000
0FC000
00C000
00C000
00C000
00C000
00C000
00C000
00C000
00C000
00C000
00C000
0FFC00
0FFC00
000000
000000
000000
000000
000000
000000
000000
000000
ENDCHAR
STARTCHAR eth
ENCODING 240
SWIDTH 1080 0
DWIDTH 18 0
BBX 18 36 0 -8
BITMAP
000000
000000
000000
000000
000000
000000
0C3000
0C3000
03C000
03C000
0CC000
0CC000
003000
003000
03FC00
03FC00
0C0C00
0C0C00
300300
300300
300300
300300
300300
300300
0C0C00
0C0C00
03F000
03F000
000000
000000
000000
000000
000000
000000
000000
000000
ENDCHAR
STARTCHAR ntilde
ENCODING 241
SWIDTH 1080 0
DWIDTH 18 0
BBX 18 36 0 -8
BITMAP
000000
000000
000000
000000
000000
000000
000000
000000
03CC00
03CC00
0CF000
0CF000
000000
000000
33FC00
33FC00
3C0300
3C0300
300300
300300
300300
300300
300300
300300
300300
300300
300300
300300
000000
000000
000000
000000
000000
000000
000000
000000
ENDCHAR
STARTCHAR ograve
ENCODING 242
SWIDTH 1080 0
DWIDTH 18 0
BBX 18 36 0 -8
BITMAP
000000
000000
000000
000000
000000
000000
030000
030000
00C000
00C000
003000
003000
000000
000000
0FFC00
0FFC00
300300
300300
300300
300300
300300
300300
300300
300300
300300
300300
0FFC00
0FFC00
000000
000000
000000
000000
000000
000000
000000
000000
ENDCHAR
STARTCHAR oacute
ENCODING 243
SWIDTH 1080 0
DWIDTH 18 0
BBX 18 36 0 -8
BITMAP
000000
000000
000000
000000
000000
000000
003000
003000
00C000
00C000
030000
030000
000000
000000
0FFC00
0FFC00
300300
300300
300300
300300
300300
300300
300300
300300
300300
300300
0FFC00
0FFC00
000000
000000
000000
000000
000000
000000
000000
000000
ENDCHAR
STARTCHAR ocircumflex
ENCODING 244
SWIDTH 1080 0
DWIDTH 18 0
BBX 18 36 0 -8
BITMAP
000000
000000
000000
000000
000000
000000
00C000
00C000
033000
033000
0C0C00
0C0C00
000000
000000
0FFC00
0FFC00
300300
300300
300300
300300
300300
300300
300300
300300
300300
300300
0FFC00
0FFC00
000000
000000
000000
000000
000000
000000
000000
000000
ENDCHAR
STARTCHAR otilde
ENCODING 245
SWIDTH 1080 0
DWIDTH 18 0
BBX 18 36 0 -8
BITMAP
000000
000000
000000
000000
000000
000000
000000
000000
03CC00
03CC00
0CF000
0CF000
000000
000000
0FFC00
0FFC00
300300
300300
300300
300300
300300
300300
300300
300300
300300
300300
0FFC00
0FFC00
000000
000000
000000
000000
000000
000000
000000
000000
ENDCHAR
STARTCHAR odieresis
ENCODING 246
SWIDTH 1080 0
DWIDTH 18 0
BBX 18 36 0 -8
BITMAP
000000
000000
000000
000000
000000
000000
000000
000000
033000
033000
033000
033000
000000
000000
0FFC00
0FFC00
300300
300300
300300
300300
300300
300300
300300
300300
300300
300300
0FFC00
0FFC00
000000
000000
000000
000000
000000
000000
000000
000000
ENDCHAR
STARTCHAR divide
ENCODING 247
SWIDTH 1080 0
DWIDTH 18 0
BBX 18 36 0 -8
BITMAP
000000
000000
000000
000000
000000
000000
000000
000000
000000
000000
00C000
00C000
03F000
03F000
00C000
00C000
000000
000000
3FFF00
3FFF00
000000
000000
00C000
00C000
03F000
03F000
00C000
00C000
000000
000000
000000
000000
000000
000000
000000
000000
ENDCHAR
STARTCHAR oslash
ENCODING 248
SWIDTH 1080 0
DWIDTH 18 0
BBX 18 36 0 -8
BITMAP
000000
000000
000000
000000
000000
000000
000000
000000
000000
000000
000000
000000
000300
000300
0FFC00
0FFC00
303300
303300
303300
303300
30C300
30C300
330300
330300
330300
330300
0FFC00
0FFC00
300000
300000
000000
000000
000000
000000
000000
000000
ENDCHAR
STARTCHAR ugrave
ENCODING 249
SWIDTH 1080 0
DWIDTH 18 0
BBX 18 36 0 -8
BITMAP
000000
000000
000000
000000
000000
000000
0C0000
0C0000
030000
030000
00C000
00C000
000000
000000
300300
300300
300300
300300
300300
300300
300300
300300
300300
300300
300F00
300F00
0FF300
0FF300
000000
000000
000000
000000
000000
000000
000000
000000
ENDCHAR
STARTCHAR uacute
ENCODING 250
SWIDTH 1080 0
DWIDTH 18 0
BBX 18 36 0 -8
BITMAP
000000
000000
000000
000000
000000
000000
003000
003000
00C000
00C000
030000
030000
000000
000000
300300
300300
300300
300300
300300
300300
300300
300300
300300
300300
300F00
300F00
0FF300
0FF300
000000
000000
000000
000000
000000
000000
000000
000000
ENDCHAR
STARTCHAR ucircumflex
ENCODING 251
SWIDTH 1080 0
DWIDTH 18 0
BBX 18 36 0 -8
BITMAP
000000
000000
000000
000000
000000
000000
00C000
00C000
033000
033000
0C0C00
0C0C00
000000
000000
300300
300300
300300
300300
300300
300300
300300
300300
300300
300300
300F00
300F00
0FF300
0FF300
000000
000000
000000
000000
000000
000000
000000
000000
ENDCHAR
STARTCHAR udieresis
ENCODING 252
SWIDTH 1080 0
DWIDTH 18 0
BBX 18 36 0 -8
BITMAP
000000
000000
000000
000000
000000
000000
000000
000000
033000
033000
033000
033000
000000
000000
300300
300300
300300
300300
300300
300300
300300
300300
300300
300300
300F00
300F00
0FF300
0FF300
000000
000000
000000
000000
000000
000000
000000
000000
ENDCHAR
STARTCHAR yacute
ENCODING 253
SWIDTH 1080 0
DWIDTH 18 0
BBX 18 36 0 -8
BITMAP
000000
000000
000000
000000
000000
000000
000C00
000C00
003000
003000
00C000
00C000
000000
000000
0C0300
0C0300
0C0300
0C0300
030C00
030C00
030C00
030C00
030C00
030C00
00F000
00F000
00F000
00F000
00C000
00C000
30C000
30C000
0F0000
0F0000
000000
000000
ENDCHAR
STARTCHAR thorn
ENCODING 254
SWIDTH 1080 0
DWIDTH 18 0
BBX 18 36 0 -8
BITMAP
000000
000000
000000
000000
000000
000000
000000
000000
000000
000000
300000
300000
300000
300000
33F000
33F000
3C0C00
3C0C00
300300
300300
300300
300300
300300
300300
3C0C00
3C0C00
33F000
33F000
300000
300000
300000
300000
000000
000000
000000
000000
ENDCHAR
STARTCHAR ydieresis
ENCODING 255
SWIDTH 1080 0
DWIDTH 18 0
BBX 18 36 0 -8
BITMAP
000000
000000
000000
000000
000000
000000
000000
000000
030C00
030C00
030C00
030C00
000000
000000
0C0300
0C0300
0C0300
0C0300
030C00
030C00
030C00
030C00
030C00
030C00
00F000
00F000
00F000
00F000
00C000
00C000
30C000
30C000
0F0000
0F0000
000000
000000
ENDCHAR
STARTCHAR Amacron
ENCODING 256
SWIDTH 1080 0
DWIDTH 18 0
BBX 18 36 0 -8
BITMAP
000000
000000
000000
000000
0FFC00
0FFC00
000000
000000
00C000
00C000
033000
033000
033000
033000
033000
033000
0C0C00
0C0C00
0FFC00
0FFC00
0C0C00
0C0C00
300300
300300
300300
300300
300300
300300
000000
000000
000000
000000
000000
000000
000000
000000
ENDCHAR
STARTCHAR amacron
ENCODING 257
SWIDTH 1080 0
DWIDTH 18 0
BBX 18 36 0 -8
BITMAP
000000
000000
000000
000000
000000
000000
000000
000000
000000
000000
0FFC00
0FFC00
000000
000000
0FFC00
0FFC00
000300
000300
000300
000300
0FFF00
0FFF00
300300
300300
300F00
300F00
0FF300
0FF300
000000
000000
000000
000000
000000
000000
000000
000000
ENDCHAR
STARTCHAR Abreve
ENCODING 258
SWIDTH 1080 0
DWIDTH 18 0
BBX 18 36 0 -8
BITMAP
000000
000000
0C0C00
0C0C00
03F000
03F000
000000
000000
00C000
00C000
033000
033000
033000
033000
033000
033000
0C0C00
0C0C00
0FFC00
0FFC00
0C0C00
0C0C00
300300
300300
300300
300300
300300
300300
000000
000000
000000
000000
000000
000000
000000
000000
ENDCHAR
STARTCHAR abreve
ENCODING 259
SWIDTH 1080 0
DWIDTH 18 0
BBX 18 36 0 -8
BITMAP
000000
000000
000000
000000
000000
000000
000000
000000
0C0C00
0C0C00
03F000
03F000
000000
000000
0FFC00
0FFC00
000300
000300
000300
000300
0FFF00
0FFF00
300300
300300
300F00
300F00
0FF300
0FF300
000000
000000
000000
000000
000000
000000
000000
000000
ENDCHAR
STARTCHAR Aogonek
ENCODING 260
SWIDTH 1080 0
DWIDTH 18 0
BBX 18 36 0 -8
BITMAP
000000
000000
000000
000000
000000
000000
000000
000000
00C000
00C000
033000
033000
033000
033000
033000
033000
0C0C00
0C0C00
0FFC00
0FFC00
0C0C00
0C0C00
300300
300300
300300
300300
300300
300300
000300
000300
000C00
000C00
0003C0
0003C0
000000
000000
ENDCHAR
STARTCHAR aogonek
ENCODING 261
SWIDTH 1080 0
DWIDTH 18 0
BBX 18 36 0 -8
BITMAP
000000
000000
000000
000000
000000
000000
000000
000000
000000
000000
000000
000000
000000
000000
0FFC00
0FFC00
000300
000300
000300
000300
0FFF00
0FFF00
300300
300300
300F00
300F00
0FF300
0FF300
00C000
00C000
030000
030000
00FC00
00FC00
000000
000000
ENDCHAR
STARTCHAR Cacute
ENCODING 262
SWIDTH 1080 0
DWIDTH 18 0
BBX 18 36 0 -8
BITMAP
003000
003000
00C000
00C000
030000
030000
000000
000000
03FC00
03FC00
0C0300
0C0300
300000
300000
300000
300000
300000
300000
300000
300000
300000
300000
300000
300000
0C0300
0C0300
03FC00
03FC00
000000
000000
000000
000000
000000
000000
000000
000000
ENDCHAR
STARTCHAR cacute
ENCODING 263
SWIDTH 1080 0
DWIDTH 18 0
BBX 18 36 0 -8
BITMAP
000000
000000
000000
000000
000000
000000
003000
003000
00C000
00C000
030000
030000
000000
000000
0FFC00
0FFC00
300300
300300
300000
300000
300000
300000
300000
300000
300300
300300
0FFC00
0FFC00
000000
000000
000000
000000
000000
000000
000000
000000
ENDCHAR
STARTCHAR Ccircumflex
ENCODING 264
SWIDTH 1080 0
DWIDTH 18 0
BBX 18 36 0 -8
BITMAP
00C000
00C000
033000
033000
0C0C00
0C0C00
000000
000000
03FC00
03FC00
0C0300
0C0300
300000
300000
300000
300000
300000
300000
300000
300000
300000
300000
300000
300000
0C0300
0C0300
03FC00
03FC00
000000
000000
000000
000000
000000
000000
000000
000000
ENDCHAR
STARTCHAR ccircumflex
ENCODING 265
SWIDTH 1080 0
DWIDTH 18 0
BBX 18 36 0 -8
BITMAP
000000
000000
000000
000000
000000
000000
00C000
00C000
033000
033000
0C0C00
0C0C00
000000
000000
0FFC00
0FFC00
300300
300300
300000
300000
300000
300000
300000
300000
300300
300300
0FFC00
0FFC00
000000
000000
000000
000000
000000
000000
000000
000000
ENDCHAR
STARTCHAR Cdotaccent
ENCODING 266
SWIDTH 1080 0
DWIDTH 18 0
BBX 18 36 0 -8
BITMAP
000000
000000
00C000
00C000
00C000
00C000
000000
000000
03FC00
03FC00
0C0300
0C0300
300000
300000
300000
300000
300000
300000
300000
300000
300000
300000
300000
300000
0C0300
0C0300
03FC00
03FC00
000000
000000
000000
000000
000000
000000
000000
000000
ENDCHAR
STARTCHAR cdotaccent
ENCODING 267
SWIDTH 1080 0
DWIDTH 18 0
BBX 18 36 0 -8
BITMAP
000000
000000
000000
000000
000000
000000
000000
000000
00C000
00C000
00C000
00C000
000000
000000
0FFC00
0FFC00
300300
300300
300000
300000
300000
300000
300000
300000
300300
300300
0FFC00
0FFC00
000000
000000
000000
000000
000000
000000
000000
000000
ENDCHAR
STARTCHAR Ccaron
ENCODING 268
SWIDTH 1080 0
DWIDTH 18 0
BBX 18 36 0 -8
BITMAP
0C0C00
0C0C00
033000
033000
00C000
00C000
000000
000000
03FC00
03FC00
0C0300
0C0300
300000
300000
300000
300000
300000
300000
300000
300000
300000
300000
300000
300000
0C0300
0C0300
03FC00
03FC00
000000
000000
000000
000000
000000
000000
000000
000000
ENDCHAR
STARTCHAR ccaron
ENCODING 269
SWIDTH 1080 0
DWIDTH 18 0
BBX 18 36 0 -8
BITMAP
000000
000000
000000
000000
000000
000000
0C0C00
0C0C00
033000
033000
00C000
00C000
000000
000000
0FFC00
0FFC00
300300
300300
300000
300000
300000
300000
300000
300000
300300
300300
0FFC00
0FFC00
000000
000000
000000
000000
000000
000000
000000
000000
ENDCHAR
STARTCHAR Dcaron
ENCODING 270
SWIDTH 1080 0
DWIDTH 18 0
BBX 18 36 0 -8
BITMAP
0C0C00
0C0C00
033000
033000
00C000
00C000
000000
000000
3FF000
3FF000
300C00
300C00
300300
300300
300300
300300
300300
300300
300300
300300
300300
300300
300300
300300
300C00
300C00
3FF000
3FF000
000000
000000
000000
000000
000000
000000
000000
000000
ENDCHAR
STARTCHAR dcaron
ENCODING 271
SWIDTH 1080 0
DWIDTH 18 0
BBX 18 36 0 -8
BITMAP
000000
000000
0C0C00
0C0C00
033000
033000
00C000
00C000
000300
000300
000300
000300
000300
000300
0FF300
0FF300
300F00
300F00
300300
300300
300300
300300
300300
300300
300F00
300F00
0FF300
0FF300
000000
000000
000000
000000
000000
000000
000000
000000
ENDCHAR
STARTCHAR Dcroat
ENCODING 272
SWIDTH 1080 0
DWIDTH 18 0
BBX 18 36 0 -8
BITMAP
000000
000000
000000
000000
000000
000000
000000
000000
3FF000
3FF000
300C00
300C00
300300
300300
300300
300300
FF0300
FF0300
300300
300300
300300
300300
300300
300300
300C00
300C00
3FF000
3FF000
000000
000000
000000
000000
000000
000000
000000
000000
ENDCHAR
STARTCHAR dcroat
ENCODING 273
SWIDTH 1080 0
DWIDTH 18 0
BBX 18 36 0 -8
BITMAP
000000
000000
000000
000000
000000
000000
000000
000000
000300
000300
00FFC0
00FFC0
000300
000300
0FF300
0FF300
300F00
300F00
300300
300300
300300
300300
300300
300300
300F00
300F00
0FF300
0FF300
000000
000000
000000
000000
000000
000000
000000
000000
ENDCHAR
STARTCHAR Emacron
ENCODING 274
SWIDTH 1080 0
DWIDTH 18 0
BBX 18 36 0 -8
BITMAP
000000
000000
000000
000000
0FFC00
0FFC00
000000
000000
3FFF00
3FFF00
300000
300000
300000
300000
300000
300000
3FF000
3FF000
300000
300000
300000
300000
300000
300000
300000
300000
3FFF00
3FFF00
000000
000000
000000
000000
000000
000000
000000
000000
ENDCHAR
STARTCHAR emacron
ENCODING 275
SWIDTH 1080 0
DWIDTH 18 0
BBX 18 36 0 -8
BITMAP
000000
000000
000000
000000
000000
000000
000000
000000
000000
000000
0FFC00
0FFC00
000000
000000
0FFC00
0FFC00
300300
300300
300300
300300
3FFF00
3FFF00
300000
300000
300300
300300
0FFC00
0FFC00
000000
000000
000000
000000
000000
000000
000000
000000
ENDCHAR
STARTCHAR Ebreve
ENCODING 276
SWIDTH 1080 0
DWIDTH 18 0
BBX 18 36 0 -8
BITMAP
000000
000000
0C0C00
0C0C00
03F000
03F000
000000
000000
3FFF00
3FFF00
300000
300000
300000
300000
300000
300000
3FF000
3FF000
300000
300000
300000
300000
300000
300000
300000
300000
3FFF00
3FFF00
000000
000000
000000
000000
000000
000000
000000
000000
ENDCHAR
STARTCHAR ebreve
ENCODING 277
SWIDTH 1080 0
DWIDTH 18 0
BBX 18 36 0 -8
BITMAP
000000
000000
000000
000000
000000
000000
000000
000000
0C0C00
0C0C00
03F000
03F000
000000
000000
0FFC00
0FFC00
300300
300300
300300
300300
3FFF00
3FFF00
300000
300000
300300
300300
0FFC00
0FFC00
000000
000000
000000
000000
000000
000000
000000
000000
ENDCHAR
STARTCHAR Edotaccent
ENCODING 278
SWIDTH 1080 0
DWIDTH 18 0
BBX 18 36 0 -8
BITMAP
000000
000000
00C000
00C000
00C000
00C000
000000
000000
3FFF00
3FFF00
300000
300000
300000
300000
300000
300000
3FF000
3FF000
300000
300000
300000
300000
300000
300000
300000
300000
3FFF00
3FFF00
000000
000000
000000
000000
000000
000000
000000
000000
ENDCHAR
STARTCHAR edotaccent
ENCODING 279
SWIDTH 1080 0
DWIDTH 18 0
BBX 18 36 0 -8
BITMAP
000000
000000
000000
000000
000000
000000
000000
000000
00C000
00C000
00C000
00C000
000000
000000
0FFC00
0FFC00
300300
300300
300300
300300
3FFF00
3FFF00
300000
300000
300300
300300
0FFC00
0FFC00
000000
000000
000000
000000
000000
000000
000000
000000
ENDCHAR
STARTCHAR Eogonek
ENCODING 280
SWIDTH 1080 0
DWIDTH 18 0
BBX 18 36 0 -8
BITMAP
000000
000000
000000
000000
000000
000000
000000
000000
3FFF00
3FFF00
300000
300000
300000
300000
300000
300000
3FF000
3FF000
300000
300000
300000
300000
300000
300000
300000
300000
3FFF00
3FFF00
00C000
00C000
030000
030000
00FC00
00FC00
000000
000000
ENDCHAR
STARTCHAR eogonek
ENCODING 281
SWIDTH 1080 0
DWIDTH 18 0
BBX 18 36 0 -8
BITMAP
000000
000000
000000
000000
000000
000000
000000
000000
000000
000000
000000
000000
000000
000000
0FFC00
0FFC00
300300
300300
300300
300300
3FFF00
3FFF00
300000
300000
300300
300300
0FFC00
0FFC00
00C000
00C000
030000
030000
00FC00
00FC00
000000
000000
ENDCHAR
STARTCHAR Ecaron
ENCODING 282
SWIDTH 1080 0
DWIDTH 18 0
BBX 18 36 0 -8
BITMAP
0C0C00
0C0C00
033000
033000
00C000
00C000
000000
000000
3FFF00
3FFF00
300000
300000
300000
300000
300000
300000
3FF000
3FF000
300000
300000
300000
300000
300000
300000
300000
300000
3FFF00
3FFF00
000000
000000
000000
000000
000000
000000
000000
000000
ENDCHAR
STARTCHAR ecaron
ENCODING 283
SWIDTH 1080 0
DWIDTH 18 0
BBX 18 36 0 -8
BITMAP
000000
000000
000000
000000
000000
000000
0C0C00
0C0C00
033000
033000
00C000
00C000
000000
000000
0FFC00
0FFC00
300300
300300
300300
300300
3FFF00
3FFF00
300000
300000
300300
300300
0FFC00
0FFC00
000000
000000
000000
000000
000000
000000
000000
000000
ENDCHAR
STARTCHAR Gcircumflex
ENCODING 284
SWIDTH 1080 0
DWIDTH 18 0
BBX 18 36 0 -8
BITMAP
00C000
00C000
033000
033000
0C0C00
0C0C00
000000
000000
03F000
03F000
0C0C00
0C0C00
300300
300300
300000
300000
300000
300000
303F00
303F00
300300
300300
300300
300300
0C0C00
0C0C00
03F000
03F000
000000
000000
000000
000000
000000
000000
000000
000000
ENDCHAR
STARTCHAR gcircumflex
ENCODING 285
SWIDTH 1080 0
DWIDTH 18 0
BBX 18 36 0 -8
BITMAP
000000
000000
000000
000000
000000
000000
00C000
00C000
033000
033000
0C0C00
0C0C00
000000
000000
0FF300
0FF300
300C00
300C00
300C00
300C00
300C00
300C00
0FF000
0FF000
300000
300000
0FFC00
0FFC00
300300
300300
300300
300300
0FFC00
0FFC00
000000
000000
ENDCHAR
STARTCHAR Gbreve
ENCODING 286
SWIDTH 1080 0
DWIDTH 18 0
BBX 18 36 0 -8
BITMAP
000000
000000
0C0C00
0C0C00
03F000
03F000
000000
000000
03F000
03F000
0C0C00
0C0C00
300300
300300
300000
300000
300000
300000
303F00
303F00
300300
300300
300300
300300
0C0C00
0C0C00
03F000
03F000
000000
000000
000000
000000
000000
000000
000000
000000
ENDCHAR
STARTCHAR gbreve
ENCODING 287
SWIDTH 1080 0
DWIDTH 18 0
BBX 18 36 0 -8
BITMAP
000000
000000
000000
000000
000000
000000
000000
000000
0C0C00
0C0C00
03F000
03F000
000000
000000
0FF300
0FF300
300C00
300C00
300C00
300C00
300C00
300C00
0FF000
0FF000
300000
300000
0FFC00
0FFC00
300300
300300
300300
300300
0FFC00
0FFC00
000000
000000
ENDCHAR
STARTCHAR Gdotaccent
ENCODING 288
SWIDTH 1080 0
DWIDTH 18 0
BBX 18 36 0 -8
BITMAP
000000
000000
00C000
00C000
00C000
00C000
000000
000000
03F000
03F000
0C0C00
0C0C00
300300
300300
300000
300000
300000
300000
303F00
303F00
300300
300300
300300
300300
0C0C00
0C0C00
03F000
03F000
000000
000000
000000
000000
000000
000000
000000
000000
ENDCHAR
STARTCHAR gdotaccent
ENCODING 289
SWIDTH 1080 0
DWIDTH 18 0
BBX 18 36 0 -8
BITMAP
000000
000000
000000
000000
000000
000000
000000
000000
00C000
00C000
00C000
00C000
000000
000000
0FF300
0FF300
300C00
300C00
300C00
300C00
300C00
300C00
0FF000
0FF000
300000
300000
0FFC00
0FFC00
300300
300300
300300
300300
0FFC00
0FFC00
000000
000000
ENDCHAR
STARTCHAR Gcommaaccent
ENCODING 290
SWIDTH 1080 0
DWIDTH 18 0
BBX 18 36 0 -8
BITMAP
000000
000000
000000
000000
000000
000000
000000
000000
03F000
03F000
0C0C00
0C0C00
300300
300300
300000
300000
300000
300000
303F00
303F00
300300
300300
300300
300300
0C0C00
0C0C00
03F000
03F000
00C000
00C000
0C3000
0C3000
03C000
03C000
000000
000000
ENDCHAR
STARTCHAR gcommaaccent
ENCODING 291
SWIDTH 1080 0
DWIDTH 18 0
BBX 18 36 0 -8
BITMAP
000000
000000
000000
000000
000000
000000
00C000
00C000
030000
030000
03C000
03C000
000000
000000
0FF300
0FF300
300C00
300C00
300C00
300C00
300C00
300C00
0FF000
0FF000
300000
300000
0FFC00
0FFC00
300300
300300
300300
300300
0FFC00
0FFC00
000000
000000
ENDCHAR
STARTCHAR Hcircumflex
ENCODING 292
SWIDTH 1080 0
DWIDTH 18 0
BBX 18 36 0 -8
BITMAP
00C000
00C000
033000
033000
0C0C00
0C0C00
000000
000000
300300
300300
300300
300300
300300
300300
300300
300300
3FFF00
3FFF00
300300
300300
300300
300300
300300
300300
300300
300300
300300
300300
000000
000000
000000
000000
000000
000000
000000
000000
ENDCHAR
STARTCHAR hcircumflex
ENCODING 293
SWIDTH 1080 0
DWIDTH 18 0
BBX 18 36 0 -8
BITMAP
00C000
00C000
033000
033000
0C0C00
0C0C00
000000
000000
300000
300000
300000
300000
300000
300000
33FC00
33FC00
3C0300
3C0300
300300
300300
300300
300300
300300
300300
300300
300300
300300
300300
000000
000000
000000
000000
000000
000000
000000
000000
ENDCHAR
STARTCHAR Hbar
ENCODING 294
SWIDTH 1080 0
DWIDTH 18 0
BBX 18 36 0 -8
BITMAP
000000
000000
000000
000000
000000
000000
000000
000000
300300
300300
300300
300300
FFFFC0
FFFFC0
300300
300300
3FFF00
3FFF00
300300
300300
300300
300300
300300
300300
300300
300300
300300
300300
000000
000000
000000
000000
000000
000000
000000
000000
ENDCHAR
STARTCHAR hbar
ENCODING 295
SWIDTH 1080 0
DWIDTH 18 0
BBX 18 36 0 -8
BITMAP
000000
000000
000000
000000
000000
000000
000000
000000
300000
300000
FFC000
FFC000
300000
300000
33FC00
33FC00
3C0300
3C0300
300300
300300
300300
300300
300300
300300
300300
300300
300300
300300
000000
000000
000000
000000
000000
000000
000000
000000
ENDCHAR
STARTCHAR Itilde
ENCODING 296
SWIDTH 1080 0
DWIDTH 18 0
BBX 18 36 0 -8
BITMAP
000000
000000
03CC00
03CC00
0CF000
0CF000
000000
000000
0FFC00
0FFC00
00C000
00C000
00C000
00C000
00C000
00C000
00C000
00C000
00C000
00C000
00C000
00C000
00C000
00C000
00C000
00C000
0FFC00
0FFC00
000000
000000
000000
000000
000000
000000
000000
000000
ENDCHAR
STARTCHAR itilde
ENCODING 297
SWIDTH 1080 0
DWIDTH 18 0
BBX 18 36 0 -8
BITMAP
000000
000000
000000
000000
000000
000000
000000
000000
03CC00
03CC00
0CF000
0CF000
000000
000000
0FC000
0FC000
00C000
00C000
00C000
00C000
00C000
00C000
00C000
00C000
00C000
00C000
0FFC00
0FFC00
000000
000000
000000
000000
000000
000000
000000
000000
ENDCHAR
STARTCHAR Imacron
ENCODING 298
SWIDTH 1080 0
DWIDTH 18 0
BBX 18 36 0 -8
BITMAP
000000
000000
000000
000000
0FFC00
0FFC00
000000
000000
0FFC00
0FFC00
00C000
00C000
00C000
00C000
00C000
00C000
00C000
00C000
00C000
00C000
00C000
00C000
00C000
00C000
00C000
00C000
0FFC00
0FFC00
000000
000000
000000
000000
000000
000000
000000
000000
ENDCHAR
STARTCHAR imacron
ENCODING 299
SWIDTH 1080 0
DWIDTH 18 0
BBX 18 36 0 -8
BITMAP
000000
000000
000000
000000
000000
000000
000000
000000
000000
000000
0FFC00
0FFC00
000000
000000
0FC000
0FC000
00C000
00C000
00C000
00C000
00C000
00C000
00C000
00C000
00C000
00C000
0FFC00
0FFC00
000000
000000
000000
000000
000000
000000
000000
000000
ENDCHAR
STARTCHAR Ibreve
ENCODING 300
SWIDTH 1080 0
DWIDTH 18 0
BBX 18 36 0 -8
BITMAP
000000
000000
0C0C00
0C0C00
03F000
03F000
000000
000000
0FFC00
0FFC00
00C000
00C000
00C000
00C000
00C000
00C000
00C000
00C000
00C000
00C000
00C000
00C000
00C000
00C000
00C000
00C000
0FFC00
0FFC00
000000
000000
000000
000000
000000
000000
000000
000000
ENDCHAR
STARTCHAR ibreve
ENCODING 301
SWIDTH 1080 0
DWIDTH 18 0
BBX 18 36 0 -8
BITMAP
000000
000000
000000
000000
000000
000000
000000
000000
0C0C00
0C0C00
03F000
03F000
000000
000000
0FC000
0FC000
00C000
00C000
00C000
00C000
00C000
00C000
00C000
00C000
00C000
00C000
0FFC00
0FFC00
000000
000000
000000
000000
000000
000000
000000
000000
ENDCHAR
STARTCHAR Iogonek
ENCODING 302
SWIDTH 1080 0
DWIDTH 18 0
BBX 18 36 0 -8
BITMAP
000000
000000
000000
000000
000000
000000
000000
000000
0FFC00
0FFC00
00C000
00C000
00C000
00C000
00C000
00C000
00C000
00C000
00C000
00C000
00C000
00C000
00C000
00C000
00C000
00C000
0FFC00
0FFC00
00C000
00C000
030000
030000
00F000
00F000
000000
000000
ENDCHAR
STARTCHAR iogonek
ENCODING 303
SWIDTH 1080 0
DWIDTH 18 0
BBX 18 36 0 -8
BITMAP
000000
000000
000000
000000
000000
000000
000000
000000
000000
000000
03C000
03C000
000000
000000
0FC000
0FC000
00C000
00C000
00C000
00C000
00C000
00C000
00C000
00C000
00C000
00C000
0FFC00
0FFC00
00C000
00C000
030000
030000
00F000
00F000
000000
000000
ENDCHAR
STARTCHAR Idotaccent
ENCODING 304
SWIDTH 1080 0
DWIDTH 18 0
BBX 18 36 0 -8
BITMAP
000000
000000
00C000
00C000
00C000
00C000
000000
000000
0FFC00
0FFC00
00C000
00C000
00C000
00C000
00C000
00C000
00C000
00C000
00C000
00C000
00C000
00C000
00C000
00C000
00C000
00C000
0FFC00
0FFC00
000000
000000
000000
000000
000000
000000
000000
000000
ENDCHAR
STARTCHAR dotlessi
ENCODING 305
SWIDTH 1080 0
DWIDTH 18 0
BBX 18 36 0 -8
BITMAP
000000
000000
000000
000000
000000
000000
000000
000000
000000
000000
000000
000000
000000
000000
0FC000
0FC000
00C000
00C000
00C000
00C000
00C000
00C000
00C000
00C000
00C000
00C000
0FFC00
0FFC00
000000
000000
000000
000000
000000
000000
000000
000000
ENDCHAR
STARTCHAR IJ
ENCODING 306
SWIDTH 1080 0
DWIDTH 18 0
BBX 18 36 0 -8
BITMAP
000000
000000
000000
000000
000000
000000
000000
000000
3F3F00
3F3F00
0C0300
0C0300
0C0300
0C0300
0C0300
0C0300
0C0300
0C0300
0C0300
0C0300
0C0300
0C0300
0C0300
0C0300
0CC300
0CC300
3F3C00
3F3C00
000000
000000
000000
000000
000000
000000
000000
000000
ENDCHAR
STARTCHAR ij
ENCODING 307
SWIDTH 1080 0
DWIDTH 18 0
BBX 18 36 0 -8
BITMAP
000000
000000
000000
000000
000000
000000
000000
000000
000000
000000
0F0F00
0F0F00
000000
000000
3F3F00
3F3F00
030300
030300
030300
030300
030300
030300
030300
030300
030300
030300
3FF300
3FF300
000300
000300
030300
030300
00FC00
00FC00
000000
000000
ENDCHAR
STARTCHAR Jcircumflex
ENCODING 308
SWIDTH 1080 0
DWIDTH 18 0
BBX 18 36 0 -8
BITMAP
003000
003000
00CC00
00CC00
030300
030300
000000
000000
03FF00
03FF00
003000
003000
003000
003000
003000
003000
003000
003000
003000
003000
003000
003000
303000
303000
303000
303000
0FC000
0FC000
000000
000000
000000
000000
000000
000000
000000
000000
ENDCHAR
STARTCHAR jcircumflex
ENCODING 309
SWIDTH 1080 0
DWIDTH 18 0
BBX 18 36 0 -8
BITMAP
000000
000000
000000
000000
003000
003000
00CC00
00CC00
030300
030300
000000
000000
000000
000000
00F000
00F000
003000
003000
003000
003000
003000
003000
003000
003000
003000
003000
003000
003000
303000
303000
303000
303000
0FC000
0FC000
000000
000000
ENDCHAR
STARTCHAR Kcommaaccent
ENCODING 310
SWIDTH 1080 0
DWIDTH 18 0
BBX 18 36 0 -8
BITMAP
000000
000000
000000
000000
000000
000000
000000
000000
300300
300300
300C00
300C00
303000
303000
30C000
30C000
330000
330000
3CC000
3CC000
303000
303000
300C00
300C00
300300
300300
300300
300300
003000
003000
030C00
030C00
00F000
00F000
000000
000000
ENDCHAR
STARTCHAR kcommaaccent
ENCODING 311
SWIDTH 1080 0
DWIDTH 18 0
BBX 18 36 0 -8
BITMAP
000000
000000
000000
000000
000000
000000
000000
000000
300000
300000
300000
300000
300000
300000
300C00
300C00
303000
303000
30C000
30C000
33C000
33C000
3C3000
3C3000
300C00
300C00
300300
300300
003000
003000
030C00
030C00
00F000
00F000
000000
000000
ENDCHAR
STARTCHAR kgreenlandic
ENCODING 312
SWIDTH 1080 0
DWIDTH 18 0
BBX 18 36 0 -8
BITMAP
000000
000000
000000
000000
000000
000000
000000
000000
000000
000000
000000
000000
000000
000000
300C00
300C00
303000
303000
30C000
30C000
3F0000
3F0000
30C000
30C000
303000
303000
300C00
300C00
000000
000000
000000
000000
000000
000000
000000
000000
ENDCHAR
STARTCHAR Lacute
ENCODING 313
SWIDTH 1080 0
DWIDTH 18 0
BBX 18 36 0 -8
BITMAP
003000
003000
00C000
00C000
030000
030000
000000
000000
300000
300000
300000
300000
300000
300000
300000
300000
300000
300000
300000
300000
300000
300000
300000
300000
300000
300000
3FFF00
3FFF00
000000
000000
000000
000000
000000
000000
000000
000000
ENDCHAR
STARTCHAR lacute
ENCODING 314
SWIDTH 1080 0
DWIDTH 18 0
BBX 18 36 0 -8
BITMAP
003000
003000
00C000
00C000
030000
030000
000000
000000
0FC000
0FC000
00C000
00C000
00C000
00C000
00C000
00C000
00C000
00C000
00C000
00C000
00C000
00C000
00C000
00C000
00C000
00C000
0FFC00
0FFC00
000000
000000
000000
000000
000000
000000
000000
000000
ENDCHAR
STARTCHAR Lcommaaccent
ENCODING 315
SWIDTH 1080 0
DWIDTH 18 0
BBX 18 36 0 -8
BITMAP
000000
000000
000000
000000
000000
000000
000000
000000
300000
300000
300000
300000
300000
300000
300000
300000
300000
300000
300000
300000
300000
300000
300000
300000
300000
300000
3FFF00
3FFF00
00C000
00C000
0C3000
0C3000
03C000
03C000
000000
000000
ENDCHAR
STARTCHAR lcommaaccent
ENCODING 316
SWIDTH 1080 0
DWIDTH 18 0
BBX 18 36 0 -8
BITMAP
000000
000000
000000
000000
000000
000000
000000
000000
0FC000
0FC000
00C000
00C000
00C000
00C000
00C000
00C000
00C000
00C000
00C000
00C000
00C000
00C000
00C000
00C000
00C000
00C000
0FFC00
0FFC00
00C000
00C000
0C3000
0C3000
03C000
03C000
000000
000000
ENDCHAR
STARTCHAR Lcaron
ENCODING 317
SWIDTH 1080 0
DWIDTH 18 0
BBX 18 36 0 -8
BITMAP
0C0C00
0C0C00
033000
033000
00C000
00C000
000000
000000
300000
300000
300000
300000
300000
300000
300000
300000
300000
300000
300000
300000
300000
300000
300000
300000
300000
300000
3FFF00
3FFF00
000000
000000
000000
000000
000000
000000
000000
000000
ENDCHAR
STARTCHAR lcaron
ENCODING 318
SWIDTH 1080 0
DWIDTH 18 0
BBX 18 36 0 -8
BITMAP
0C0C00
0C0C00
033000
033000
00C000
00C000
000000
000000
0FC000
0FC000
00C000
00C000
00C000
00C000
00C000
00C000
00C000
00C000
00C000
00C000
00C000
00C000
00C000
00C000
00C000
00C000
0FFC00
0FFC00
000000
000000
000000
000000
000000
000000
000000
000000
ENDCHAR
STARTCHAR Ldot
ENCODING 319
SWIDTH 1080 0
DWIDTH 18 0
BBX 18 36 0 -8
BITMAP
000000
000000
000000
000000
000000
000000
000000
000000
300000
300000
300000
300000
300000
300000
300000
300000
30F000
30F000
300000
300000
300000
300000
300000
300000
300000
300000
3FFF00
3FFF00
000000
000000
000000
000000
000000
000000
000000
000000
ENDCHAR
STARTCHAR ldot
ENCODING 320
SWIDTH 1080 0
DWIDTH 18 0
BBX 18 36 0 -8
BITMAP
000000
000000
000000
000000
000000
000000
000000
000000
0FC000
0FC000
00C000
00C000
00C000
00C000
00C000
00C000
00CF00
00CF00
00C000
00C000
00C000
00C000
00C000
00C000
00C000
00C000
0FFC00
0FFC00
000000
000000
000000
000000
000000
000000
000000
000000
ENDCHAR
STARTCHAR Lslash
ENCODING 321
SWIDTH 1080 0
DWIDTH 18 0
BBX 18 36 0 -8
BITMAP
000000
000000
000000
000000
000000
000000
000000
000000
0C0000
0C0000
0C0000
0C0000
0C0000
0C0000
0CC000
0CC000
0F0000
0F0000
3C0000
3C0000
CC0000
CC0000
0C0000
0C0000
0C0000
0C0000
0FFF00
0FFF00
000000
000000
000000
000000
000000
000000
000000
000000
ENDCHAR
STARTCHAR lslash
ENCODING 322
SWIDTH 1080 0
DWIDTH 18 0
BBX 18 36 0 -8
BITMAP
000000
000000
000000
000000
000000
000000
000000
000000
0FC000
0FC000
00C000
00C000
00C000
00C000
00CC00
00CC00
00F000
00F000
03C000
03C000
0CC000
0CC000
00C000
00C000
00C000
00C000
0FFC00
0FFC00
000000
000000
000000
000000
000000
000000
000000
000000
ENDCHAR
STARTCHAR Nacute
ENCODING 323
SWIDTH 1080 0
DWIDTH 18 0
BBX 18 36 0 -8
BITMAP
003000
003000
00C000
00C000
030000
030000
000000
000000
300300
300300
300300
300300
3C0300
3C0300
330300
330300
30C300
30C300
303300
303300
300F00
300F00
300300
300300
300300
300300
300300
300300
000000
000000
000000
000000
000000
000000
000000
000000
ENDCHAR
STARTCHAR nacute
ENCODING 324
SWIDTH 1080 0
DWIDTH 18 0
BBX 18 36 0 -8
BITMAP
000000
000000
000000
000000
000000
000000
003000
003000
00C000
00C000
030000
030000
000000
000000
33FC00
33FC00
3C0300
3C0300
300300
300300
300300
300300
300300
300300
300300
300300
300300
300300
000000
000000
000000
000000
000000
000000
000000
000000
ENDCHAR
STARTCHAR Ncommaaccent
ENCODING 325
SWIDTH 1080 0
DWIDTH 18 0
BBX 18 36 0 -8
BITMAP
000000
000000
000000
000000
000000
000000
000000
000000
300300
300300
300300
300300
3C0300
3C0300
330300
330300
30C300
30C300
303300
303300
300F00
300F00
300300
300300
300300
300300
300300
300300
00C000
00C000
0C3000
0C3000
03C000
03C000
000000
000000
ENDCHAR
STARTCHAR ncommaaccent
ENCODING 326
SWIDTH 1080 0
DWIDTH 18 0
BBX 18 36 0 -8
BITMAP
000000
000000
000000
000000
000000
000000
000000
000000
000000
000000
000000
000000
000000
000000
33FC00
33FC00
3C0300
3C0300
300300
300300
300300
300300
300300
300300
300300
300300
300300
300300
00C000
00C000
0C3000
0C3000
03C000
03C000
000000
000000
ENDCHAR
STARTCHAR Ncaron
ENCODING 327
SWIDTH 1080 0
DWIDTH 18 0
BBX 18 36 0 -8
BITMAP
0C0C00
0C0C00
033000
033000
00C000
00C000
000000
000000
300300
300300
300300
300300
3C0300
3C0300
330300
330300
30C300
30C300
303300
303300
300F00
300F00
300300
300300
300300
300300
300300
300300
000000
000000
000000
000000
000000
000000
000000
000000
ENDCHAR
STARTCHAR ncaron
ENCODING 328
SWIDTH 1080 0
DWIDTH 18 0
BBX 18 36 0 -8
BITMAP
000000
000000
000000
000000
000000
000000
0C0C00
0C0C00
033000
033000
00C000
00C000
000000
000000
33FC00
33FC00
3C0300
3C0300
300300
300300
300300
300300
300300
300300
300300
300300
300300
300300
000000
000000
000000
000000
000000
000000
000000
000000
ENDCHAR
STARTCHAR napostrophe
ENCODING 329
SWIDTH 1080 0
DWIDTH 18 0
BBX 18 36 0 -8
BITMAP
000000
000000
000000
000000
000000
000000
3C0000
3C0000
0C0000
0C0000
300000
300000
000000
000000
0CFC00
0CFC00
0F0300
0F0300
0C0300
0C0300
0C0300
0C0300
0C0300
0C0300
0C0300
0C0300
0C0300
0C0300
000000
000000
000000
000000
000000
000000
000000
000000
ENDCHAR
STARTCHAR Eng
ENCODING 330
SWIDTH 1080 0
DWIDTH 18 0
BBX 18 36 0 -8
BITMAP
000000
000000
000000
000000
000000
000000
000000
000000
300300
300300
300300
300300
3C0300
3C0300
330300
330300
30C300
30C300
303300
303300
300F00
300F00
300300
300300
300300
300300
300300
300300
000300
000300
030300
030300
00FC00
00FC00
000000
000000
ENDCHAR
STARTCHAR eng
ENCODING 331
SWIDTH 1080 0
DWIDTH 18 0
BBX 18 36 0 -8
BITMAP
000000
000000
000000
000000
000000
000000
000000
000000
000000
000000
000000
000000
000000
000000
33FC00
33FC00
3C0300
3C0300
300300
300300
300300
300300
300300
300300
300300
300300
300300
300300
000300
000300
030300
030300
00FC00
00FC00
000000
000000
ENDCHAR
STARTCHAR Omacron
ENCODING 332
SWIDTH 1080 0
DWIDTH 18 0
BBX 18 36 0 -8
BITMAP
000000
000000
000000
000000
0FFC00
0FFC00
000000
000000
0FFC00
0FFC00
300300
300300
300300
300300
300300
300300
300300
300300
300300
300300
300300
300300
300300
300300
300300
300300
0FFC00
0FFC00
000000
000000
000000
000000
000000
000000
000000
000000
ENDCHAR
STARTCHAR omacron
ENCODING 333
SWIDTH 1080 0
DWIDTH 18 0
BBX 18 36 0 -8
BITMAP
000000
000000
000000
000000
000000
000000
000000
000000
000000
000000
0FFC00
0FFC00
000000
000000
0FFC00
0FFC00
300300
300300
300300
300300
300300
300300
300300
300300
300300
300300
0FFC00
0FFC00
000000
000000
000000
000000
000000
000000
000000
000000
ENDCHAR
STARTCHAR Obreve
ENCODING 334
SWIDTH 1080 0
DWIDTH 18 0
BBX 18 36 0 -8
BITMAP
000000
000000
0C0C00
0C0C00
03F000
03F000
000000
000000
0FFC00
0FFC00
300300
300300
300300
300300
300300
300300
300300
300300
300300
300300
300300
300300
300300
300300
300300
300300
0FFC00
0FFC00
000000
000000
000000
000000
000000
000000
000000
000000
ENDCHAR
STARTCHAR obreve
ENCODING 335
SWIDTH 1080 0
DWIDTH 18 0
BBX 18 36 0 -8
BITMAP
000000
000000
000000
000000
000000
000000
000000
000000
0C0C00
0C0C00
03F000
03F000
000000
000000
0FFC00
0FFC00
300300
300300
300300
300300
300300
300300
300300
300300
300300
300300
0FFC00
0FFC00
000000
000000
000000
000000
000000
000000
000000
000000
ENDCHAR
STARTCHAR Ohungarumlaut
ENCODING 336
SWIDTH 1080 0
DWIDTH 18 0
BBX 18 36 0 -8
BITMAP
00C300
00C300
030C00
030C00
0C3000
0C3000
000000
000000
0FFC00
0FFC00
300300
300300
300300
300300
300300
300300
300300
300300
300300
300300
300300
300300
300300
300300
300300
300300
0FFC00
0FFC00
000000
000000
000000
000000
000000
000000
000000
000000
ENDCHAR
STARTCHAR ohungarumlaut
ENCODING 337
SWIDTH 1080 0
DWIDTH 18 0
BBX 18 36 0 -8
BITMAP
000000
000000
000000
000000
000000
000000
00C300
00C300
030C00
030C00
0C3000
0C3000
000000
000000
0FFC00
0FFC00
300300
300300
300300
300300
300300
300300
300300
300300
300300
300300
0FFC00
0FFC00
000000
000000
000000
000000
000000
000000
000000
000000
ENDCHAR
STARTCHAR OE
ENCODING 338
SWIDTH 1080 0
DWIDTH 18 0
BBX 18 36 0 -8
BITMAP
000000
000000
000000
000000
000000
000000
000000
000000
0FFF00
0FFF00
30C000
30C000
30C000
30C000
30C000
30C000
30FC00
30FC00
30C000
30C000
30C000
30C000
30C000
30C000
30C000
30C000
0FFF00
0FFF00
000000
000000
000000
000000
000000
000000
000000
000000
ENDCHAR
STARTCHAR oe
ENCODING 339
SWIDTH 1080 0
DWIDTH 18 0
BBX 18 36 0 -8
BITMAP
000000
000000
000000
000000
000000
000000
000000
000000
000000
000000
000000
000000
000000
000000
0F3C00
0F3C00
30C300
30C300
30C300
30C300
30FF00
30FF00
30C000
30C000
30C300
30C300
0F3C00
0F3C00
000000
000000
000000
000000
000000
000000
000000
000000
ENDCHAR
STARTCHAR Racute
ENCODING 340
SWIDTH 1080 0
DWIDTH 18 0
BBX 18 36 0 -8
BITMAP
003000
003000
00C000
00C000
030000
030000
000000
000000
3FF000
3FF000
300C00
300C00
300300
300300
300300
300300
300C00
300C00
3FF000
3FF000
30C000
30C000
303000
303000
300C00
300C00
300300
300300
000000
000000
000000
000000
000000
000000
000000
000000
ENDCHAR
STARTCHAR racute
ENCODING 341
SWIDTH 1080 0
DWIDTH 18 0
BBX 18 36 0 -8
BITMAP
000000
000000
000000
000000
000000
000000
003000
003000
00C000
00C000
030000
030000
000000
000000
30FC00
30FC00
0F0300
0F0300
0C0300
0C0300
0C0000
0C0000
0C0000
0C0000
0C0000
0C0000
0C0000
0C0000
000000
000000
000000
000000
000000
000000
000000
000000
ENDCHAR
STARTCHAR Rcommaaccent
ENCODING 342
SWIDTH 1080 0
DWIDTH 18 0
BBX 18 36 0 -8
BITMAP
000000
000000
000000
000000
000000
000000
000000
000000
3FF000
3FF000
300C00
300C00
300300
300300
300300
300300
300C00
300C00
3FF000
3FF000
30C000
30C000
303000
303000
300C00
300C00
300300
300300
00C000
00C000
0C3000
0C3000
03C000
03C000
000000
000000
ENDCHAR
STARTCHAR rcommaaccent
ENCODING 343
SWIDTH 1080 0
DWIDTH 18 0
BBX 18 36 0 -8
BITMAP
000000
000000
000000
000000
000000
000000
000000
000000
000000
000000
000000
000000
000000
000000
30FC00
30FC00
0F0300
0F0300
0C0300
0C0300
0C0000
0C0000
0C0000
0C0000
0C0000
0C0000
0C0000
0C0000
00C000
00C000
0C3000
0C3000
03C000
03C000
000000
000000
ENDCHAR
STARTCHAR Rcaron
ENCODING 344
SWIDTH 1080 0
DWIDTH 18 0
BBX 18 36 0 -8
BITMAP
303000
303000
0CC000
0CC000
030000
030000
000000
000000
3FF000
3FF000
300C00
300C00
300300
300300
300300
300300
300C00
300C00
3FF000
3FF000
30C000
30C000
303000
303000
300C00
300C00
300300
300300
000000
000000
000000
000000
000000
000000
000000
000000
ENDCHAR
STARTCHAR rcaron
ENCODING 345
SWIDTH 1080 0
DWIDTH 18 0
BBX 18 36 0 -8
BITMAP
000000
000000
000000
000000
000000
000000
303000
303000
0CC000
0CC000
030000
030000
000000
000000
30FC00
30FC00
0F0300
0F0300
0C0300
0C0300
0C0000
0C0000
0C0000
0C0000
0C0000
0C0000
0C0000
0C0000
000000
000000
000000
000000
000000
000000
000000
000000
ENDCHAR
STARTCHAR Sacute
ENCODING 346
SWIDTH 1080 0
DWIDTH 18 0
BBX 18 36 0 -8
BITMAP
003000
003000
00C000
00C000
030000
030000
000000
000000
0FFC00
0FFC00
300300
300300
300000
300000
300000
300000
0FFC00
0FFC00
000300
000300
000300
000300
000300
000300
300300
300300
0FFC00
0FFC00
000000
000000
000000
000000
000000
000000
000000
000000
ENDCHAR
STARTCHAR sacute
ENCODING 347
SWIDTH 1080 0
DWIDTH 18 0
BBX 18 36 0 -8
BITMAP
000000
000000
000000
000000
000000
000000
003000
003000
00C000
00C000
030000
030000
000000
000000
0FFC00
0FFC00
300300
300300
300000
300000
0FFC00
0FFC00
000300
000300
300300
300300
0FFC00
0FFC00
000000
000000
000000
000000
000000
000000
000000
000000
ENDCHAR
STARTCHAR Scircumflex
ENCODING 348
SWIDTH 1080 0
DWIDTH 18 0
BBX 18 36 0 -8
BITMAP
00C000
00C000
033000
033000
0C0C00
0C0C00
000000
000000
0FFC00
0FFC00
300300
300300
300000
300000
300000
300000
0FFC00
0FFC00
000300
000300
000300
000300
000300
000300
300300
300300
0FFC00
0FFC00
000000
000000
000000
000000
000000
000000
000000
000000
ENDCHAR
STARTCHAR scircumflex
ENCODING 349
SWIDTH 1080 0
DWIDTH 18 0
BBX 18 36 0 -8
BITMAP
000000
000000
000000
000000
000000
000000
00C000
00C000
033000
033000
0C0C00
0C0C00
000000
000000
0FFC00
0FFC00
300300
300300
300000
300000
0FFC00
0FFC00
000300
000300
300300
300300
0FFC00
0FFC00
000000
000000
000000
000000
000000
000000
000000
000000
ENDCHAR
STARTCHAR Scedilla
ENCODING 350
SWIDTH 1080 0
DWIDTH 18 0
BBX 18 36 0 -8
BITMAP
000000
000000
000000
000000
000000
000000
000000
000000
0FFC00
0FFC00
300300
300300
300000
300000
300000
300000
0FFC00
0FFC00
000300
000300
000300
000300
000300
000300
300300
300300
0FFC00
0FFC00
00C000
00C000
0C3000
0C3000
03C000
03C000
000000
000000
ENDCHAR
STARTCHAR scedilla
ENCODING 351
SWIDTH 1080 0
DWIDTH 18 0
BBX 18 36 0 -8
BITMAP
000000
000000
000000
000000
000000
000000
000000
000000
000000
000000
000000
000000
000000
000000
0FFC00
0FFC00
300300
300300
300000
300000
0FFC00
0FFC00
000300
000300
300300
300300
0FFC00
0FFC00
00C000
00C000
0C3000
0C3000
03C000
03C000
000000
000000
ENDCHAR
STARTCHAR Scaron
ENCODING 352
SWIDTH 1080 0
DWIDTH 18 0
BBX 18 36 0 -8
BITMAP
0C0C00
0C0C00
033000
033000
00C000
00C000
000000
000000
0FFC00
0FFC00
300300
300300
300000
300000
300000
300000
0FFC00
0FFC00
000300
000300
000300
000300
000300
000300
300300
300300
0FFC00
0FFC00
000000
000000
000000
000000
000000
000000
000000
000000
ENDCHAR
STARTCHAR scaron
ENCODING 353
SWIDTH 1080 0
DWIDTH 18 0
BBX 18 36 0 -8
BITMAP
000000
000000
000000
000000
000000
000000
0C0C00
0C0C00
033000
033000
00C000
00C000
000000
000000
0FFC00
0FFC00
300300
300300
300000
300000
0FFC00
0FFC00
000300
000300
300300
300300
0FFC00
0FFC00
000000
000000
000000
000000
000000
000000
000000
000000
ENDCHAR
STARTCHAR Tcommaaccent
ENCODING 354
SWIDTH 1080 0
DWIDTH 18 0
BBX 18 36 0 -8
BITMAP
000000
000000
000000
000000
000000
000000
000000
000000
3FFF00
3FFF00
00C000
00C000
00C000
00C000
00C000
00C000
00C000
00C000
00C000
00C000
00C000
00C000
00C000
00C000
00C000
00C000
00C000
00C000
003000
003000
030C00
030C00
00F000
00F000
000000
000000
ENDCHAR
STARTCHAR tcommaaccent
ENCODING 355
SWIDTH 1080 0
DWIDTH 18 0
BBX 18 36 0 -8
BITMAP
000000
000000
000000
000000
000000
000000
000000
000000
000000
000000
030000
030000
030000
030000
3FFC00
3FFC00
030000
030000
030000
030000
030000
030000
030000
030000
030300
030300
00FC00
00FC00
003000
003000
030C00
030C00
00F000
00F000
000000
000000
ENDCHAR
STARTCHAR Tcaron
ENCODING 356
SWIDTH 1080 0
DWIDTH 18 0
BBX 18 36 0 -8
BITMAP
0C0C00
0C0C00
033000
033000
00C000
00C000
000000
000000
3FFF00
3FFF00
00C000
00C000
00C000
00C000
00C000
00C000
00C000
00C000
00C000
00C000
00C000
00C000
00C000
00C000
00C000
00C000
00C000
00C000
000000
000000
000000
000000
000000
000000
000000
000000
ENDCHAR
STARTCHAR tcaron
ENCODING 357
SWIDTH 1080 0
DWIDTH 18 0
BBX 18 36 0 -8
BITMAP
000000
000000
303000
303000
0CC000
0CC000
030000
030000
000000
000000
030000
030000
030000
030000
3FFC00
3FFC00
030000
030000
030000
030000
030000
030000
030000
030000
030300
030300
00FC00
00FC00
000000
000000
000000
000000
000000
000000
000000
000000
ENDCHAR
STARTCHAR Tbar
ENCODING 358
SWIDTH 1080 0
DWIDTH 18 0
BBX 18 36 0 -8
BITMAP
000000
000000
000000
000000
000000
000000
000000
000000
3FFF00
3FFF00
00C000
00C000
00C000
00C000
0FFC00
0FFC00
00C000
00C000
00C000
00C000
00C000
00C000
00C000
00C000
00C000
00C000
00C000
00C000
000000
000000
000000
000000
000000
000000
000000
000000
ENDCHAR
STARTCHAR tbar
ENCODING 359
SWIDTH 1080 0
DWIDTH 18 0
BBX 18 36 0 -8
BITMAP
000000
000000
000000
000000
000000
000000
000000
000000
000000
000000
030000
030000
030000
030000
3FFC00
3FFC00
030000
030000
3FFC00
3FFC00
030000
030000
030000
030000
030300
030300
00FC00
00FC00
000000
000000
000000
000000
000000
000000
000000
000000
ENDCHAR
STARTCHAR Utilde
ENCODING 360
SWIDTH 1080 0
DWIDTH 18 0
BBX 18 36 0 -8
BITMAP
000000
000000
03CC00
03CC00
0CF000
0CF000
000000
000000
300300
300300
300300
300300
300300
300300
300300
300300
300300
300300
300300
300300
300300
300300
300300
300300
0C0C00
0C0C00
03F000
03F000
000000
000000
000000
000000
000000
000000
000000
000000
ENDCHAR
STARTCHAR utilde
ENCODING 361
SWIDTH 1080 0
DWIDTH 18 0
BBX 18 36 0 -8
BITMAP
000000
000000
000000
000000
000000
000000
000000
000000
03CC00
03CC00
0CF000
0CF000
000000
000000
300300
300300
300300
300300
300300
300300
300300
300300
300300
300300
300F00
300F00
0FF300
0FF300
000000
000000
000000
000000
000000
000000
000000
000000
ENDCHAR
STARTCHAR Umacron
ENCODING 362
SWIDTH 1080 0
DWIDTH 18 0
BBX 18 36 0 -8
BITMAP
000000
000000
000000
000000
0FFC00
0FFC00
000000
000000
300300
300300
300300
300300
300300
300300
300300
300300
300300
300300
300300
300300
300300
300300
300300
300300
0C0C00
0C0C00
03F000
03F000
000000
000000
000000
000000
000000
000000
000000
000000
ENDCHAR
STARTCHAR umacron
ENCODING 363
SWIDTH 1080 0
DWIDTH 18 0
BBX 18 36 0 -8
BITMAP
000000
000000
000000
000000
000000
000000
000000
000000
000000
000000
0FFC00
0FFC00
000000
000000
300300
300300
300300
300300
300300
300300
300300
300300
300300
300300
300F00
300F00
0FF300
0FF300
000000
000000
000000
000000
000000
000000
000000
000000
ENDCHAR
STARTCHAR Ubreve
ENCODING 364
SWIDTH 1080 0
DWIDTH 18 0
BBX 18 36 0 -8
BITMAP
000000
000000
0C0C00
0C0C00
03F000
03F000
000000
000000
300300
300300
300300
300300
300300
300300
300300
300300
300300
300300
300300
300300
300300
300300
300300
300300
0C0C00
0C0C00
03F000
03F000
000000
000000
000000
000000
000000
000000
000000
000000
ENDCHAR
STARTCHAR ubreve
ENCODING 365
SWIDTH 1080 0
DWIDTH 18 0
BBX 18 36 0 -8
BITMAP
000000
000000
000000
000000
000000
000000
000000
000000
0C0C00
0C0C00
03F000
03F000
000000
000000
300300
300300
300300
300300
300300
300300
300300
300300
300300
300300
300F00
300F00
0FF300
0FF300
000000
000000
000000
000000
000000
000000
000000
000000
ENDCHAR
STARTCHAR Uring
ENCODING 366
SWIDTH 1080 0
DWIDTH 18 0
BBX 18 36 0 -8
BITMAP
00C000
00C000
033000
033000
033000
033000
00C000
00C000
300300
300300
300300
300300
300300
300300
300300
300300
300300
300300
300300
300300
300300
300300
300300
300300
0C0C00
0C0C00
03F000
03F000
000000
000000
000000
000000
000000
000000
000000
000000
ENDCHAR
STARTCHAR uring
ENCODING 367
SWIDTH 1080 0
DWIDTH 18 0
BBX 18 36 0 -8
BITMAP
000000
000000
000000
000000
000000
000000
00C000
00C000
033000
033000
033000
033000
00C000
00C000
300300
300300
300300
300300
300300
300300
300300
300300
300300
300300
300F00
300F00
0FF300
0FF300
000000
000000
000000
000000
000000
000000
000000
000000
ENDCHAR
STARTCHAR Uhungarumlaut
ENCODING 368
SWIDTH 1080 0
DWIDTH 18 0
BBX 18 36 0 -8
BITMAP
00C300
00C300
030C00
030C00
0C3000
0C3000
000000
000000
300300
300300
300300
300300
300300
300300
300300
300300
300300
300300
300300
300300
300300
300300
300300
300300
0C0C00
0C0C00
03F000
03F000
000000
000000
000000
000000
000000
000000
000000
000000
ENDCHAR
STARTCHAR uhungarumlaut
ENCODING 369
SWIDTH 1080 0
DWIDTH 18 0
BBX 18 36 0 -8
BITMAP
000000
000000
000000
000000
000000
000000
00C300
00C300
030C00
030C00
0C3000
0C3000
000000
000000
300300
300300
300300
300300
300300
300300
300300
300300
300300
300300
300F00
300F00
0FF300
0FF300
000000
000000
000000
000000
000000
000000
000000
000000
ENDCHAR
STARTCHAR Uogonek
ENCODING 370
SWIDTH 1080 0
DWIDTH 18 0
BBX 18 36 0 -8
BITMAP
000000
000000
000000
000000
000000
000000
000000
000000
300300
300300
300300
300300
300300
300300
300300
300300
300300
300300
300300
300300
300300
300300
300300
300300
0C0C00
0C0C00
03F000
03F000
00C000
00C000
030000
030000
00FC00
00FC00
000000
000000
ENDCHAR
STARTCHAR uogonek
ENCODING 371
SWIDTH 1080 0
DWIDTH 18 0
BBX 18 36 0 -8
BITMAP
000000
000000
000000
000000
000000
000000
000000
000000
000000
000000
000000
000000
000000
000000
300300
300300
300300
300300
300300
300300
300300
300300
300300
300300
300F00
300F00
0FF300
0FF300
030000
030000
0C0000
0C0000
03F000
03F000
000000
000000
ENDCHAR
STARTCHAR Wcircumflex
ENCODING 372
SWIDTH 1080 0
DWIDTH 18 0
BBX 18 36 0 -8
BITMAP
00C000
00C000
033000
033000
0C0C00
0C0C00
000000
000000
300300
300300
300300
300300
300300
300300
300300
300300
30C300
30C300
30C300
30C300
30C300
30C300
30C300
30C300
333300
333300
0C0C00
0C0C00
000000
000000
000000
000000
000000
000000
000000
000000
ENDCHAR
STARTCHAR wcircumflex
ENCODING 373
SWIDTH 1080 0
DWIDTH 18 0
BBX 18 36 0 -8
BITMAP
000000
000000
000000
000000
000000
000000
00C000
00C000
033000
033000
0C0C00
0C0C00
000000
000000
300300
300300
300300
300300
30C300
30C300
30C300
30C300
30C300
30C300
333300
333300
0C0C00
0C0C00
000000
000000
000000
000000
000000
000000
000000
000000
ENDCHAR
STARTCHAR Ycircumflex
ENCODING 374
SWIDTH 1080 0
DWIDTH 18 0
BBX 18 36 0 -8
BITMAP
00C000
00C000
033000
033000
0C0C00
0C0C00
000000
000000
300300
300300
300300
300300
0C0C00
0C0C00
033000
033000
00C000
00C000
00C000
00C000
00C000
00C000
00C000
00C000
00C000
00C000
00C000
00C000
000000
000000
000000
000000
000000
000000
000000
000000
ENDCHAR
STARTCHAR ycircumflex
ENCODING 375
SWIDTH 1080 0
DWIDTH 18 0
BBX 18 36 0 -8
BITMAP
000000
000000
000000
000000
000000
000000
003000
003000
00CC00
00CC00
030300
030300
000000
000000
0C0300
0C0300
0C0300
0C0300
030C00
030C00
030C00
030C00
030C00
030C00
00F000
00F000
00F000
00F000
00C000
00C000
30C000
30C000
0F0000
0F0000
000000
000000
ENDCHAR
STARTCHAR Ydieresis
ENCODING 376
SWIDTH 1080 0
DWIDTH 18 0
BBX 18 36 0 -8
BITMAP
000000
000000
033000
033000
033000
033000
000000
000000
300300
300300
300300
300300
0C0C00
0C0C00
033000
033000
00C000
00C000
00C000
00C000
00C000
00C000
00C000
00C000
00C000
00C000
00C000
00C000
000000
000000
000000
000000
000000
000000
000000
000000
ENDCHAR
STARTCHAR Zacute
ENCODING 377
SWIDTH 1080 0
DWIDTH 18 0
BBX 18 36 0 -8
BITMAP
003000
003000
00C000
00C000
030000
030000
000000
000000
3FFF00
3FFF00
000300
000300
000C00
000C00
003000
003000
00C000
00C000
030000
030000
0C0000
0C0000
300000
300000
300000
300000
3FFF00
3FFF00
000000
000000
000000
000000
000000
000000
000000
000000
ENDCHAR
STARTCHAR zacute
ENCODING 378
SWIDTH 1080 0
DWIDTH 18 0
BBX 18 36 0 -8
BITMAP
000000
000000
000000
000000
000000
000000
003000
003000
00C000
00C000
030000
030000
000000
000000
3FFF00
3FFF00
000C00
000C00
003000
003000
00C000
00C000
030000
030000
0C0000
0C0000
3FFF00
3FFF00
000000
000000
000000
000000
000000
000000
000000
000000
ENDCHAR
STARTCHAR Zdotaccent
ENCODING 379
SWIDTH 1080 0
DWIDTH 18 0
BBX 18 36 0 -8
BITMAP
000000
000000
00C000
00C000
00C000
00C000
000000
000000
3FFF00
3FFF00
000300
000300
000C00
000C00
003000
003000
00C000
00C000
030000
030000
0C0000
0C0000
300000
300000
300000
300000
3FFF00
3FFF00
000000
000000
000000
000000
000000
000000
000000
000000
ENDCHAR
STARTCHAR zdotaccent
ENCODING 380
SWIDTH 1080 0
DWIDTH 18 0
BBX 18 36 0 -8
BITMAP
000000
000000
000000
000000
000000
000000
000000
000000
00C000
00C000
00C000
00C000
000000
000000
3FFF00
3FFF00
000C00
000C00
003000
003000
00C000
00C000
030000
030000
0C0000
0C0000
3FFF00
3FFF00
000000
000000
000000
000000
000000
000000
000000
000000
ENDCHAR
STARTCHAR Zcaron
ENCODING 381
SWIDTH 1080 0
DWIDTH 18 0
BBX 18 36 0 -8
BITMAP
0C0C00
0C0C00
033000
033000
00C000
00C000
000000
000000
3FFF00
3FFF00
000300
000300
000C00
000C00
003000
003000
00C000
00C000
030000
030000
0C0000
0C0000
300000
300000
300000
300000
3FFF00
3FFF00
000000
000000
000000
000000
000000
000000
000000
000000
ENDCHAR
STARTCHAR zcaron
ENCODING 382
SWIDTH 1080 0
DWIDTH 18 0
BBX 18 36 0 -8
BITMAP
000000
000000
000000
000000
000000
000000
0C0C00
0C0C00
033000
033000
00C000
00C000
000000
000000
3FFF00
3FFF00
000C00
000C00
003000
003000
00C000
00C000
030000
030000
0C0000
0C0000
3FFF00
3FFF00
000000
000000
000000
000000
000000
000000
000000
000000
ENDCHAR
STARTCHAR longs
ENCODING 383
SWIDTH 1080 0
DWIDTH 18 0
BBX 18 36 0 -8
BITMAP
000000
000000
000000
000000
000000
000000
000000
000000
00F000
00F000
030C00
030C00
030000
030000
030000
030000
030000
030000
0F0000
0F0000
030000
030000
030000
030000
030000
030000
030000
030000
000000
000000
000000
000000
000000
000000
000000
000000
ENDCHAR
STARTCHAR uni0180
ENCODING 384
SWIDTH 1080 0
DWIDTH 18 0
BBX 18 36 0 -8
BITMAP
000000
000000
000000
000000
000000
000000
000000
000000
300000
300000
FFC000
FFC000
300000
300000
33FC00
33FC00
3C0300
3C0300
300300
300300
300300
300300
300300
300300
3C0300
3C0300
33FC00
33FC00
000000
000000
000000
000000
000000
000000
000000
000000
ENDCHAR
STARTCHAR uni0181
ENCODING 385
SWIDTH 1080 0
DWIDTH 18 0
BBX 18 36 0 -8
BITMAP
000000
000000
000000
000000
000000
000000
000000
000000
3FF000
3FF000
CC0C00
CC0C00
CC0300
CC0300
0C0C00
0C0C00
0FF000
0FF000
0C0C00
0C0C00
0C0300
0C0300
0C0300
0C0300
0C0C00
0C0C00
0FF000
0FF000
000000
000000
000000
000000
000000
000000
000000
000000
ENDCHAR
STARTCHAR uni0182
ENCODING 386
SWIDTH 1080 0
DWIDTH 18 0
BBX 18 36 0 -8
BITMAP
000000
000000
000000
000000
000000
000000
000000
000000
3FFC00
3FFC00
300000
300000
300000
300000
300000
300000
3FF000
3FF000
300C00
300C00
300300
300300
300300
300300
300C00
300C00
3FF000
3FF000
000000
000000
000000
000000
000000
000000
000000
000000
ENDCHAR
STARTCHAR uni0183
ENCODING 387
SWIDTH 1080 0
DWIDTH 18 0
BBX 18 36 0 -8
BITMAP
000000
000000
000000
000000
000000
000000
000000
000000
3FF000
3FF000
300000
300000
300000
300000
33F000
33F000
3C0C00
3C0C00
300C00
300C00
300C00
300C00
300C00
300C00
3C0C00
3C0C00
33F000
33F000
000000
000000
000000
000000
000000
000000
000000
000000
ENDCHAR
STARTCHAR uni0184
ENCODING 388
SWIDTH 1080 0
DWIDTH 18 0
BBX 18 36 0 -8
BITMAP
000000
000000
000000
000000
000000
000000
000000
000000
300000
300000
F00000
F00000
F00000
F00000
F00000
F00000
3FF000
3FF000
300C00
300C00
300300
300300
300300
300300
300C00
300C00
3FF000
3FF000
000000
000000
000000
000000
000000
000000
000000
000000
ENDCHAR
STARTCHAR uni0185
ENCODING 389
SWIDTH 1080 0
DWIDTH 18 0
BBX 18 36 0 -8
BITMAP
000000
000000
000000
000000
000000
000000
000000
000000
0C0000
0C0000
3C0000
3C0000
FC0000
FC0000
3CFC00
3CFC00
0F0300
0F0300
0C0300
0C0300
0C0300
0C0300
0C0300
0C0300
0F0300
0F0300
0CFC00
0CFC00
000000
000000
000000
000000
000000
000000
000000
000000
ENDCHAR
STARTCHAR uni0186
ENCODING 390
SWIDTH 1080 0
DWIDTH 18 0
BBX 18 36 0 -8
BITMAP
000000
000000
000000
000000
000000
000000
000000
000000
0FF000
0FF000
300C00
300C00
000300
000300
000300
000300
000300
000300
000300
000300
000300
000300
000300
000300
300C00
300C00
0FF000
0FF000
000000
000000
000000
000000
000000
000000
000000
000000
ENDCHAR
STARTCHAR uni0187
ENCODING 391
SWIDTH 1080 0
DWIDTH 18 0
BBX 18 36 0 -8
BITMAP
000000
000000
000000
000000
000000
000000
0003C0
0003C0
03FC00
03FC00
0C0C00
0C0C00
300000
300000
300000
300000
300000
300000
300000
300000
300000
300000
300000
300000
0C0C00
0C0C00
03F000
03F000
000000
000000
000000
000000
000000
000000
000000
000000
ENDCHAR
STARTCHAR uni0188
ENCODING 392
SWIDTH 1080 0
DWIDTH 18 0
BBX 18 36 0 -8
BITMAP
000000
000000
000000
000000
000000
000000
000000
000000
000000
000000
000000
000000
0003C0
0003C0
0FFC00
0FFC00
300C00
300C00
300000
300000
300000
300000
300000
300000
300C00
300C00
0FF000
0FF000
000000
000000
000000
000000
000000
000000
000000
000000
ENDCHAR
STARTCHAR uni0189
ENCODING 393
SWIDTH 1080 0
DWIDTH 18 0
BBX 18 36 0 -8
BITMAP
000000
000000
000000
000000
000000
000000
000000
000000
3FF000
3FF000
300C00
300C00
300300
300300
300300
300300
FF0300
FF0300
300300
300300
300300
300300
300300
300300
300C00
300C00
3FF000
3FF000
000000
000000
000000
000000
000000
000000
000000
000000
ENDCHAR
STARTCHAR uni018A
ENCODING 394
SWIDTH 1080 0
DWIDTH 18 0
BBX 18 36 0 -8
BITMAP
000000
000000
000000
000000
000000
000000
000000
000000
3FF000
3FF000
CC0C00
CC0C00
CC0300
CC0300
0C0300
0C0300
0C0300
0C0300
0C0300
0C0300
0C0300
0C0300
0C0300
0C0300
0C0C00
0C0C00
0FF000
0FF000
000000
000000
000000
000000
000000
000000
000000
000000
ENDCHAR
STARTCHAR uni018B
ENCODING 395
SWIDTH 1080 0
DWIDTH 18 0
BBX 18 36 0 -8
BITMAP
000000
000000
000000
000000
000000
000000
000000
000000
0FFF00
0FFF00
000300
000300
000300
000300
000300
000300
03FF00
03FF00
0C0300
0C0300
300300
300300
300300
300300
0C0300
0C0300
03FF00
03FF00
000000
000000
000000
000000
000000
000000
000000
000000
ENDCHAR
STARTCHAR uni018C
ENCODING 396
SWIDTH 1080 0
DWIDTH 18 0
BBX 18 36 0 -8
BITMAP
000000
000000
000000
000000
000000
000000
000000
000000
0FFC00
0FFC00
000C00
000C00
000C00
000C00
0FCC00
0FCC00
303C00
303C00
300C00
300C00
300C00
300C00
300C00
300C00
303C00
303C00
0FCC00
0FCC00
000000
000000
000000
000000
000000
000000
000000
000000
ENDCHAR
STARTCHAR uni018D
ENCODING 397
SWIDTH 1080 0
DWIDTH 18 0
BBX 18 36 0 -8
BITMAP
000000
000000
000000
000000
000000
000000
000000
000000
000000
000000
000000
000000
000000
000000
03F000
03F000
0C0C00
0C0C00
300300
300300
300300
300300
300300
300300
0C0C00
0C0C00
03F000
03F000
003000
003000
0C0C00
0C0C00
03F000
03F000
000000
000000
ENDCHAR
STARTCHAR uni018E
ENCODING 398
SWIDTH 1080 0
DWIDTH 18 0
BBX 18 36 0 -8
BITMAP
000000
000000
000000
000000
000000
000000
000000
000000
3FFF00
3FFF00
000300
000300
000300
000300
000300
000300
03FF00
03FF00
000300
000300
000300
000300
000300
000300
000300
000300
3FFF00
3FFF00
000000
000000
000000
000000
000000
000000
000000
000000
ENDCHAR
STARTCHAR uni018F
ENCODING 399
SWIDTH 1080 0
DWIDTH 18 0
BBX 18 36 0 -8
BITMAP
000000
000000
000000
000000
000000
000000
000000
000000
03F000
03F000
0C0C00
0C0C00
300300
300300
000300
000300
000300
000300
3FFF00
3FFF00
300300
300300
300300
300300
0C0C00
0C0C00
03F000
03F000
000000
000000
000000
000000
000000
000000
000000
000000
ENDCHAR
STARTCHAR uni0190
ENCODING 400
SWIDTH 1080 0
DWIDTH 18 0
BBX 18 36 0 -8
BITMAP
000000
000000
000000
000000
000000
000000
000000
000000
0FFC00
0FFC00
300300
300300
300000
300000
300000
300000
0FF000
0FF000
300000
300000
300000
300000
300000
300000
300300
300300
0FFC00
0FFC00
000000
000000
000000
000000
000000
000000
000000
000000
ENDCHAR
STARTCHAR uni0191
ENCODING 401
SWIDTH 1080 0
DWIDTH 18 0
BBX 18 36 0 -8
BITMAP
000000
000000
000000
000000
000000
000000
000000
000000
0FFF00
0FFF00
0C0000
0C0000
0C0000
0C0000
0C0000
0C0000
0FF000
0FF000
0C0000
0C0000
0C0000
0C0000
0C0000
0C0000
0C0000
0C0000
CC0000
CC0000
CC0000
CC0000
300000
300000
000000
000000
000000
000000
ENDCHAR
STARTCHAR florin
ENCODING 402
SWIDTH 1080 0
DWIDTH 18 0
BBX 18 36 0 -8
BITMAP
000000
000000
000000
000000
000000
000000
000000
000000
003C00
003C00
00C300
00C300
00C000
00C000
00C000
00C000
00C000
00C000
0FFC00
0FFC00
00C000
00C000
00C000
00C000
00C000
00C000
00C000
00C000
30C000
30C000
0F0000
0F0000
000000
000000
000000
000000
ENDCHAR
STARTCHAR uni0193
ENCODING 403
SWIDTH 1080 0
DWIDTH 18 0
BBX 18 36 0 -8
BITMAP
000000
000000
000000
000000
0000C0
0000C0
000300
000300
03FC00
03FC00
0C0C00
0C0C00
300000
300000
300000
300000
300000
300000
303F00
303F00
300300
300300
300300
300300
0C0C00
0C0C00
03F000
03F000
000000
000000
000000
000000
000000
000000
000000
000000
ENDCHAR
STARTCHAR uni0194
ENCODING 404
SWIDTH 1080 0
DWIDTH 18 0
BBX 18 36 0 -8
BITMAP
000000
000000
000000
000000
000000
000000
000000
000000
300300
300300
300300
300300
0C0C00
0C0C00
0C0C00
0C0C00
033000
033000
033000
033000
00C000
00C000
033000
033000
033000
033000
00C000
00C000
000000
000000
000000
000000
000000
000000
000000
000000
ENDCHAR
STARTCHAR uni0195
ENCODING 405
SWIDTH 1080 0
DWIDTH 18 0
BBX 18 36 0 -8
BITMAP
000000
000000
000000
000000
000000
000000
000000
000000
300000
300000
300000
300000
300000
300000
330300
330300
3CC300
3CC300
30C300
30C300
30C300
30C300
30C300
30C300
30C300
30C300
303C00
303C00
000000
000000
000000
000000
000000
000000
000000
000000
ENDCHAR
STARTCHAR uni0196
ENCODING 406
SWIDTH 1080 0
DWIDTH 18 0
BBX 18 36 0 -8
BITMAP
000000
000000
000000
000000
000000
000000
000000
000000
0FC000
0FC000
00C000
00C000
00C000
00C000
00C000
00C000
00C000
00C000
00C000
00C000
00C000
00C000
00C000
00C000
00C000
00C000
003C00
003C00
000000
000000
000000
000000
000000
000000
000000
000000
ENDCHAR
STARTCHAR uni0197
ENCODING 407
SWIDTH 1080 0
DWIDTH 18 0
BBX 18 36 0 -8
BITMAP
000000
000000
000000
000000
000000
000000
000000
000000
0FFC00
0FFC00
00C000
00C000
00C000
00C000
00C000
00C000
0FFC00
0FFC00
00C000
00C000
00C000
00C000
00C000
00C000
00C000
00C000
0FFC00
0FFC00
000000
000000
000000
000000
000000
000000
000000
000000
ENDCHAR
STARTCHAR uni0198
ENCODING 408
SWIDTH 1080 0
DWIDTH 18 0
BBX 18 36 0 -8
BITMAP
000000
000000
000000
000000
000000
000000
000000
000000
300F00
300F00
3030C0
3030C0
30C000
30C000
330000
330000
3C0000
3C0000
330000
330000
30C000
30C000
303000
303000
300C00
300C00
300300
300300
000000
000000
000000
000000
000000
000000
000000
000000
ENDCHAR
STARTCHAR uni0199
ENCODING 409
SWIDTH 1080 0
DWIDTH 18 0
BBX 18 36 0 -8
BITMAP
000000
000000
000000
000000
000000
000000
0F0000
0F0000
30C000
30C000
300000
300000
300000
300000
300C00
300C00
303000
303000
30C000
30C000
33C000
33C000
3C3000
3C3000
300C00
300C00
300300
300300
000000
000000
000000
000000
000000
000000
000000
000000
ENDCHAR
STARTCHAR uni019A
ENCODING 410
SWIDTH 1080 0
DWIDTH 18 0
BBX 18 36 0 -8
BITMAP
000000
000000
000000
000000
000000
000000
000000
000000
0FC000
0FC000
00C000
00C000
00C000
00C000
00C000
00C000
0FFC00
0FFC00
00C000
00C000
00C000
00C000
00C000
00C000
00C000
00C000
0FFC00
0FFC00
000000
000000
000000
000000
000000
000000
000000
000000
ENDCHAR
STARTCHAR uni019B
ENCODING 411
SWIDTH 1080 0
DWIDTH 18 0
BBX 18 36 0 -8
BITMAP
000000
000000
000000
000000
000000
000000
000000
000000
0C3000
0C3000
03C000
03C000
030000
030000
0CC000
0CC000
30C000
30C000
033000
033000
033000
033000
0C0C00
0C0C00
0C0C00
0C0C00
0C0C00
0C0C00
000000
000000
000000
000000
000000
000000
000000
000000
ENDCHAR
STARTCHAR uni019C
ENCODING 412
SWIDTH 1080 0
DWIDTH 18 0
BBX 18 36 0 -8
BITMAP
000000
000000
000000
000000
000000
000000
000000
000000
30C300
30C300
30C300
30C300
30C300
30C300
30C300
30C300
30C300
30C300
30C300
30C300
30C300
30C300
30C300
30C300
30C300
30C300
0F3F00
0F3F00
000000
000000
000000
000000
000000
000000
000000
000000
ENDCHAR
STARTCHAR uni019D
ENCODING 413
SWIDTH 1080 0
DWIDTH 18 0
BBX 18 36 0 -8
BITMAP
000000
000000
000000
000000
000000
000000
000000
000000
0C0300
0C0300
0C0300
0C0300
0C0300
0C0300
0F0300
0F0300
0CC300
0CC300
0C3300
0C3300
0C0F00
0C0F00
0C0300
0C0300
0C0300
0C0300
0C0300
0C0300
CC0000
CC0000
300000
300000
000000
000000
000000
000000
ENDCHAR
STARTCHAR uni019E
ENCODING 414
SWIDTH 1080 0
DWIDTH 18 0
BBX 18 36 0 -8
BITMAP
000000
000000
000000
000000
000000
000000
000000
000000
000000
000000
000000
000000
000000
000000
33FC00
33FC00
3C0300
3C0300
300300
300300
300300
300300
300300
300300
300300
300300
300300
300300
000300
000300
000300
000300
000300
000300
000000
000000
ENDCHAR
STARTCHAR uni019F
ENCODING 415
SWIDTH 1080 0
DWIDTH 18 0
BBX 18 36 0 -8
BITMAP
000000
000000
000000
000000
000000
000000
000000
000000
0FFC00
0FFC00
300300
300300
300300
300300
300300
300300
3FFF00
3FFF00
300300
300300
300300
300300
300300
300300
300300
300300
0FFC00
0FFC00
000000
000000
000000
000000
000000
000000
000000
000000
ENDCHAR
STARTCHAR Ohorn
ENCODING 416
SWIDTH 1080 0
DWIDTH 18 0
BBX 18 36 0 -8
BITMAP
000000
000000
000000
000000
0000C0
0000C0
000300
000300
0FFC00
0FFC00
300300
300300
300300
300300
300300
300300
300300
300300
300300
300300
300300
300300
300300
300300
300300
300300
0FFC00
0FFC00
000000
000000
000000
000000
000000
000000
000000
000000
ENDCHAR
STARTCHAR ohorn
ENCODING 417
SWIDTH 1080 0
DWIDTH 18 0
BBX 18 36 0 -8
BITMAP
000000
000000
000000
000000
000000
000000
000000
000000
000000
000000
000300
000300
000C00
000C00
0FFC00
0FFC00
300300
300300
300300
300300
300300
300300
300300
300300
300300
300300
0FFC00
0FFC00
000000
000000
000000
000000
000000
000000
000000
000000
ENDCHAR
STARTCHAR uni01A2
ENCODING 418
SWIDTH 1080 0
DWIDTH 18 0
BBX 18 36 0 -8
BITMAP
000000
000000
000000
000000
000000
000000
000000
000000
0F3C00
0F3C00
30C300
30C300
30C300
30C300
30C300
30C300
30C300
30C300
30C300
30C300
30C300
30C300
30C300
30C300
30C300
30C300
0F0300
0F0300
000000
000000
000000
000000
000000
000000
000000
000000
ENDCHAR
STARTCHAR uni01A3
ENCODING 419
SWIDTH 1080 0
DWIDTH 18 0
BBX 18 36 0 -8
BITMAP
000000
000000
000000
000000
000000
000000
000000
000000
000000
000000
000000
000000
000000
000000
0F3C00
0F3C00
30C300
30C300
30C300
30C300
30C300
30C300
30C300
30C300
30C300
30C300
0F0300
0F0300
000300
000300
000300
000300
000000
000000
000000
000000
ENDCHAR
STARTCHAR uni01A4
ENCODING 420
SWIDTH 1080 0
DWIDTH 18 0
BBX 18 36 0 -8
BITMAP
000000
000000
000000
000000
000000
000000
000000
000000
3FF000
3FF000
CC0C00
CC0C00
CC0300
CC0300
0C0300
0C0300
0C0C00
0C0C00
0FF000
0FF000
0C0000
0C0000
0C0000
0C0000
0C0000
0C0000
0C0000
0C0000
000000
000000
000000
000000
000000
000000
000000
000000
ENDCHAR
STARTCHAR uni01A5
ENCODING 421
SWIDTH 1080 0
DWIDTH 18 0
BBX 18 36 0 -8
BITMAP
000000
000000
000000
000000
000000
000000
000000
000000
000000
000000
0F0000
0F0000
300000
300000
33F000
33F000
3C0C00
3C0C00
300300
300300
300300
300300
300300
300300
3C0C00
3C0C00
33F000
33F000
300000
300000
300000
300000
300000
300000
000000
000000
ENDCHAR
STARTCHAR uni01A6
ENCODING 422
SWIDTH 1080 0
DWIDTH 18 0
BBX 18 36 0 -8
BITMAP
000000
000000
000000
000000
000000
000000
000000
000000
300000
300000
300000
300000
3FF000
3FF000
300C00
300C00
300300
300300
300300
300300
300C00
300C00
3FF000
3FF000
30C000
30C000
303000
303000
003000
003000
000F00
000F00
000000
000000
000000
000000
ENDCHAR
STARTCHAR uni01A7
ENCODING 423
SWIDTH 1080 0
DWIDTH 18 0
BBX 18 36 0 -8
BITMAP
000000
000000
000000
000000
000000
000000
000000
000000
0FFC00
0FFC00
300300
300300
000300
000300
000300
000300
0FFC00
0FFC00
300000
300000
300000
300000
300000
300000
300300
300300
0FFC00
0FFC00
000000
000000
000000
000000
000000
000000
000000
000000
ENDCHAR
STARTCHAR uni01A8
ENCODING 424
SWIDTH 1080 0
DWIDTH 18 0
BBX 18 36 0 -8
BITMAP
000000
000000
000000
000000
000000
000000
000000
000000
000000
000000
000000
000000
000000
000000
0FFC00
0FFC00
300300
300300
000300
000300
0FFC00
0FFC00
300000
300000
300300
300300
0FFC00
0FFC00
000000
000000
000000
000000
000000
000000
000000
000000
ENDCHAR
STARTCHAR uni01A9
ENCODING 425
SWIDTH 1080 0
DWIDTH 18 0
BBX 18 36 0 -8
BITMAP
000000
000000
000000
000000
000000
000000
000000
000000
3FFF00
3FFF00
0C0000
0C0000
030000
030000
00C000
00C000
003000
003000
003000
003000
00C000
00C000
030000
030000
0C0000
0C0000
3FFF00
3FFF00
000000
000000
000000
000000
000000
000000
000000
000000
ENDCHAR
STARTCHAR uni01AA
ENCODING 426
SWIDTH 1080 0
DWIDTH 18 0
BBX 18 36 0 -8
BITMAP
000000
000000
000000
000000
000000
000000
000000
000000
0F0000
0F0000
30C000
30C000
30C000
30C000
0FF000
0FF000
00C000
00C000
00C000
00C000
00C000
00C000
00C000
00C000
00C000
00C000
00C000
00C000
00C300
00C300
003C00
003C00
000000
000000
000000
000000
ENDCHAR
STARTCHAR uni01AB
ENCODING 427
SWIDTH 1080 0
DWIDTH 18 0
BBX 18 36 0 -8
BITMAP
000000
000000
000000
000000
000000
000000
000000
000000
000000
000000
030000
030000
030000
030000
3FFC00
3FFC00
030000
030000
030000
030000
030000
030000
030000
030000
030300
030300
00FF00
00FF00
000300
000300
00C300
00C300
003C00
003C00
000000
000000
ENDCHAR
STARTCHAR uni01AC
ENCODING 428
SWIDTH 1080 0
DWIDTH 18 0
BBX 18 36 0 -8
BITMAP
000000
000000
000000
000000
000000
000000
000000
000000
0FFF00
0FFF00
30C000
30C000
30C000
30C000
00C000
00C000
00C000
00C000
00C000
00C000
00C000
00C000
00C000
00C000
00C000
00C000
00C000
00C000
000000
000000
000000
000000
000000
000000
000000
000000
ENDCHAR
STARTCHAR uni01AD
ENCODING 429
SWIDTH 1080 0
DWIDTH 18 0
BBX 18 36 0 -8
BITMAP
000000
000000
000000
000000
000000
000000
00FC00
00FC00
030300
030300
030000
030000
030000
030000
3FFC00
3FFC00
030000
030000
030000
030000
030000
030000
030000
030000
030300
030300
00FC00
00FC00
000000
000000
000000
000000
000000
000000
000000
000000
ENDCHAR
STARTCHAR uni01AE
ENCODING 430
SWIDTH 1080 0
DWIDTH 18 0
BBX 18 36 0 -8
BITMAP
000000
000000
000000
000000
000000
000000
000000
000000
3FFF00
3FFF00
00C000
00C000
00C000
00C000
00C000
00C000
00C000
00C000
00C000
00C000
00C000
00C000
00C000
00C000
00C000
00C000
00C000
00C000
00C000
00C000
003C00
003C00
000000
000000
000000
000000
ENDCHAR
STARTCHAR Uhorn
ENCODING 431
SWIDTH 1080 0
DWIDTH 18 0
BBX 18 36 0 -8
BITMAP
000000
000000
000F00
000F00
000F00
000F00
000300
000300
300C00
300C00
300C00
300C00
300C00
300C00
300C00
300C00
300C00
300C00
300C00
300C00
300C00
300C00
300C00
300C00
0C3000
0C3000
03C000
03C000
000000
000000
000000
000000
000000
000000
000000
000000
ENDCHAR
STARTCHAR uhorn
ENCODING 432
SWIDTH 1080 0
DWIDTH 18 0
BBX 18 36 0 -8
BITMAP
000000
000000
000000
000000
000000
000000
000000
000000
000F00
000F00
000F00
000F00
000300
000300
300C00
300C00
300C00
300C00
300C00
300C00
300C00
300C00
300C00
300C00
0C3C00
0C3C00
03CC00
03CC00
000000
000000
000000
000000
000000
000000
000000
000000
ENDCHAR
STARTCHAR uni01B1
ENCODING 433
SWIDTH 1080 0
DWIDTH 18 0
BBX 18 36 0 -8
BITMAP
000000
000000
000000
000000
000000
000000
000000
000000
0C0C00
0C0C00
0C0C00
0C0C00
300300
300300
300300
300300
300300
300300
300300
300300
300300
300300
300300
300300
0C0C00
0C0C00
03F000
03F000
000000
000000
000000
000000
000000
000000
000000
000000
ENDCHAR
STARTCHAR uni01B2
ENCODING 434
SWIDTH 1080 0
DWIDTH 18 0
BBX 18 36 0 -8
BITMAP
000000
000000
000000
000000
000000
000000
000000
000000
300C00
300C00
300C00
300C00
300300
300300
300300
300300
300300
300300
300300
300300
300300
300300
300300
300300
0C0C00
0C0C00
03F000
03F000
000000
000000
000000
000000
000000
000000
000000
000000
ENDCHAR
STARTCHAR uni01B3
ENCODING 435
SWIDTH 1080 0
DWIDTH 18 0
BBX 18 36 0 -8
BITMAP
000000
000000
000000
000000
000000
000000
000000
000000
3C0300
3C0300
030300
030300
030C00
030C00
033000
033000
00C000
00C000
00C000
00C000
00C000
00C000
00C000
00C000
00C000
00C000
00C000
00C000
000000
000000
000000
000000
000000
000000
000000
000000
ENDCHAR
STARTCHAR uni01B4
ENCODING 436
SWIDTH 1080 0
DWIDTH 18 0
BBX 18 36 0 -8
BITMAP
000000
000000
000000
000000
000000
000000
000000
000000
000000
000000
000000
000000
000300
000300
0C0CC0
0C0CC0
0C0C00
0C0C00
033000
033000
033000
033000
033000
033000
00C000
00C000
00C000
00C000
00C000
00C000
30C000
30C000
0F0000
0F0000
000000
000000
ENDCHAR
STARTCHAR uni01B5
ENCODING 437
SWIDTH 1080 0
DWIDTH 18 0
BBX 18 36 0 -8
BITMAP
000000
000000
000000
000000
000000
000000
000000
000000
3FFF00
3FFF00
000300
000300
000C00
000C00
003000
003000
0FFC00
0FFC00
030000
030000
0C0000
0C0000
300000
300000
300000
300000
3FFF00
3FFF00
000000
000000
000000
000000
000000
000000
000000
000000
ENDCHAR
STARTCHAR uni01B6
ENCODING 438
SWIDTH 1080 0
DWIDTH 18 0
BBX 18 36 0 -8
BITMAP
000000
000000
000000
000000
000000
000000
000000
000000
000000
000000
000000
000000
000000
000000
3FFF00
3FFF00
000C00
000C00
003000
003000
0FFC00
0FFC00
030000
030000
0C0000
0C0000
3FFF00
3FFF00
000000
000000
000000
000000
000000
000000
000000
000000
ENDCHAR
STARTCHAR uni01B7
ENCODING 439
SWIDTH 1080 0
DWIDTH 18 0
BBX 18 36 0 -8
BITMAP
000000
000000
000000
000000
000000
000000
000000
000000
3FFC00
3FFC00
003000
003000
00C000
00C000
030000
030000
0FC000
0FC000
003000
003000
000C00
000C00
000C00
000C00
303000
303000
0FC000
0FC000
000000
000000
000000
000000
000000
000000
000000
000000
ENDCHAR
STARTCHAR uni01B8
ENCODING 440
SWIDTH 1080 0
DWIDTH 18 0
BBX 18 36 0 -8
BITMAP
000000
000000
000000
000000
000000
000000
000000
000000
3FFC00
3FFC00
0C0000
0C0000
030000
030000
00C000
00C000
03F000
03F000
0C0000
0C0000
300000
300000
300000
300000
0C0C00
0C0C00
03F000
03F000
000000
000000
000000
000000
000000
000000
000000
000000
ENDCHAR
STARTCHAR uni01B9
ENCODING 441
SWIDTH 1080 0
DWIDTH 18 0
BBX 18 36 0 -8
BITMAP
000000
000000
000000
000000
000000
000000
000000
000000
000000
000000
000000
000000
000000
000000
3FFC00
3FFC00
0C0000
0C0000
030000
030000
00C000
00C000
03F000
03F000
0C0000
0C0000
300000
300000
300000
300000
0C0C00
0C0C00
03F000
03F000
000000
000000
ENDCHAR
STARTCHAR uni01BA
ENCODING 442
SWIDTH 1080 0
DWIDTH 18 0
BBX 18 36 0 -8
BITMAP
000000
000000
000000
000000
000000
000000
000000
000000
000000
000000
000000
000000
000000
000000
3FFC00
3FFC00
003000
003000
00C000
00C000
030000
030000
0FC000
0FC000
003000
003000
00C300
00C300
0F0300
0F0300
300C00
300C00
0FF000
0FF000
000000
000000
ENDCHAR
STARTCHAR uni01BB
ENCODING 443
SWIDTH 1080 0
DWIDTH 18 0
BBX 18 36 0 -8
BITMAP
000000
000000
000000
000000
000000
000000
000000
000000
03F000
03F000
0C0C00
0C0C00
300300
300300
000300
000300
000C00
000C00
0FFF00
0FFF00
00C000
00C000
030000
030000
0C0000
0C0000
3FFF00
3FFF00
000000
000000
000000
000000
000000
000000
000000
000000
ENDCHAR
STARTCHAR uni01BC
ENCODING 444
SWIDTH 1080 0
DWIDTH 18 0
BBX 18 36 0 -8
BITMAP
000000
000000
000000
000000
000000
000000
000000
000000
3FFF00
3FFF00
300300
300300
300000
300000
3FF000
3FF000
000C00
000C00
000300
000300
000300
000300
000300
000300
000C00
000C00
3FF000
3FF000
000000
000000
000000
000000
000000
000000
000000
000000
ENDCHAR
STARTCHAR uni01BD
ENCODING 445
SWIDTH 1080 0
DWIDTH 18 0
BBX 18 36 0 -8
BITMAP
000000
000000
000000
000000
000000
000000
000000
000000
000000
000000
000000
000000
000000
000000
0FFF00
0FFF00
0C0300
0C0300
0FF000
0FF000
000C00
000C00
000300
000300
0C0C00
0C0C00
03F000
03F000
000000
000000
000000
000000
000000
000000
000000
000000
ENDCHAR
STARTCHAR uni01BE
ENCODING 446
SWIDTH 1080 0
DWIDTH 18 0
BBX 18 36 0 -8
BITMAP
000000
000000
000000
000000
000000
000000
000000
000000
00C000
00C000
00C000
00C000
0FFC00
0FFC00
00C000
00C000
00F000
00F000
000C00
000C00
000C00
000C00
0C0C00
0C0C00
0C0C00
0C0C00
03F000
03F000
000000
000000
000000
000000
000000
000000
000000
000000
ENDCHAR
STARTCHAR uni01BF
ENCODING 447
SWIDTH 1080 0
DWIDTH 18 0
BBX 18 36 0 -8
BITMAP
000000
000000
000000
000000
000000
000000
000000
000000
000000
000000
000000
000000
000000
000000
33F000
33F000
3C0C00
3C0C00
300300
300300
300C00
300C00
303000
303000
30C000
30C000
330000
330000
3C0000
3C0000
300000
300000
300000
300000
000000
000000
ENDCHAR
STARTCHAR uni01C0
ENCODING 448
SWIDTH 1080 0
DWIDTH 18 0
BBX 18 36 0 -8
BITMAP
000000
000000
000000
000000
000000
000000
000000
000000
00C000
00C000
00C000
00C000
00C000
00C000
00C000
00C000
00C000
00C000
00C000
00C000
00C000
00C000
00C000
00C000
00C000
00C000
00C000
00C000
000000
000000
000000
000000
000000
000000
000000
000000
ENDCHAR
STARTCHAR uni01C1
ENCODING 449
SWIDTH 1080 0
DWIDTH 18 0
BBX 18 36 0 -8
BITMAP
000000
000000
000000
000000
000000
000000
000000
000000
033000
033000
033000
033000
033000
033000
033000
033000
033000
033000
033000
033000
033000
033000
033000
033000
033000
033000
033000
033000
000000
000000
000000
000000
000000
000000
000000
000000
ENDCHAR
STARTCHAR uni01C2
ENCODING 450
SWIDTH 1080 0
DWIDTH 18 0
BBX 18 36 0 -8
BITMAP
000000
000000
000000
000000
000000
000000
000000
000000
00C000
00C000
00C000
00C000
00C000
00C000
0FFC00
0FFC00
00C000
00C000
00C000
00C000
0FFC00
0FFC00
00C000
00C000
00C000
00C000
00C000
00C000
000000
000000
000000
000000
000000
000000
000000
000000
ENDCHAR
STARTCHAR uni01C3
ENCODING 451
SWIDTH 1080 0
DWIDTH 18 0
BBX 18 36 0 -8
BITMAP
000000
000000
000000
000000
000000
000000
000000
000000
000000
000000
03F000
03F000
03F000
03F000
03F000
03F000
03F000
03F000
00C000
00C000
00C000
00C000
000000
000000
03F000
03F000
00C000
00C000
000000
000000
000000
000000
000000
000000
000000
000000
ENDCHAR
STARTCHAR uni01C4
ENCODING 452
SWIDTH 1080 0
DWIDTH 18 0
BBX 18 36 0 -8
BITMAP
000000
000000
003300
003300
000C00
000C00
000000
000000
3F3F00
3F3F00
330300
330300
30C300
30C300
30C300
30C300
30CC00
30CC00
30CC00
30CC00
30F000
30F000
30F000
30F000
333000
333000
3C3F00
3C3F00
000000
000000
000000
000000
000000
000000
000000
000000
ENDCHAR
STARTCHAR uni01C5
ENCODING 453
SWIDTH 1080 0
DWIDTH 18 0
BBX 18 36 0 -8
BITMAP
000000
000000
000000
000000
000000
000000
003300
003300
3F0C00
3F0C00
330000
330000
30C000
30C000
30FF00
30FF00
30C300
30C300
30C300
30C300
30CC00
30CC00
30F000
30F000
333000
333000
3C3F00
3C3F00
000000
000000
000000
000000
000000
000000
000000
000000
ENDCHAR
STARTCHAR uni01C6
ENCODING 454
SWIDTH 1080 0
DWIDTH 18 0
BBX 18 36 0 -8
BITMAP
000000
000000
000000
000000
000000
000000
00F300
00F300
00CC00
00CC00
00C000
00C000
00C000
00C000
0FFF00
0FFF00
30C300
30C300
30C300
30C300
30CC00
30CC00
30F000
30F000
30F000
30F000
0FFF00
0FFF00
000000
000000
000000
000000
000000
000000
000000
000000
ENDCHAR
STARTCHAR uni01C7
ENCODING 455
SWIDTH 1080 0
DWIDTH 18 0
BBX 18 36 0 -8
BITMAP
000000
000000
000000
000000
000000
000000
000000
000000
300FC0
300FC0
300300
300300
300300
300300
300300
300300
300300
300300
300300
300300
300300
300300
300300
300300
303300
303300
3FCC00
3FCC00
000000
000000
000000
000000
000000
000000
000000
000000
ENDCHAR
STARTCHAR uni01C8
ENCODING 456
SWIDTH 1080 0
DWIDTH 18 0
BBX 18 36 0 -8
BITMAP
000000
000000
000000
000000
000000
000000
000000
000000
303C00
303C00
300000
300000
300000
300000
30FC00
30FC00
300C00
300C00
300C00
300C00
300C00
300C00
300C00
300C00
300C00
300C00
3FCC00
3FCC00
000C00
000C00
0C0C00
0C0C00
03F000
03F000
000000
000000
ENDCHAR
STARTCHAR uni01C9
ENCODING 457
SWIDTH 1080 0
DWIDTH 18 0
BBX 18 36 0 -8
BITMAP
000000
000000
000000
000000
000000
000000
000000
000000
3C3C00
3C3C00
0C0000
0C0000
0C0000
0C0000
0CFC00
0CFC00
0C0C00
0C0C00
0C0C00
0C0C00
0C0C00
0C0C00
0C0C00
0C0C00
0C0C00
0C0C00
3F0C00
3F0C00
000C00
000C00
0C0C00
0C0C00
03F000
03F000
000000
000000
ENDCHAR
STARTCHAR uni01CA
ENCODING 458
SWIDTH 1080 0
DWIDTH 18 0
BBX 18 36 0 -8
BITMAP
000000
000000
000000
000000
000000
000000
000000
000000
30CFC0
30CFC0
30C300
30C300
30C300
30C300
30C300
30C300
3CC300
3CC300
33C300
33C300
30C300
30C300
30C300
30C300
30F300
30F300
30CC00
30CC00
000000
000000
000000
000000
000000
000000
000000
000000
ENDCHAR
STARTCHAR uni01CB
ENCODING 459
SWIDTH 1080 0
DWIDTH 18 0
BBX 18 36 0 -8
BITMAP
000000
000000
000000
000000
000000
000000
000000
000000
30CC00
30CC00
30C000
30C000
30C000
30C000
30FC00
30FC00
3CCC00
3CCC00
33CC00
33CC00
30CC00
30CC00
30CC00
30CC00
30CC00
30CC00
30CC00
30CC00
000C00
000C00
0C0C00
0C0C00
03F000
03F000
000000
000000
ENDCHAR
STARTCHAR uni01CC
ENCODING 460
SWIDTH 1080 0
DWIDTH 18 0
BBX 18 36 0 -8
BITMAP
000000
000000
000000
000000
000000
000000
000000
000000
003C00
003C00
000000
000000
000000
000000
333C00
333C00
3CCC00
3CCC00
30CC00
30CC00
30CC00
30CC00
30CC00
30CC00
30CC00
30CC00
30CC00
30CC00
000C00
000C00
0C0C00
0C0C00
03F000
03F000
000000
000000
ENDCHAR
STARTCHAR uni01CD
ENCODING 461
SWIDTH 1080 0
DWIDTH 18 0
BBX 18 36 0 -8
BITMAP
0C0C00
0C0C00
033000
033000
00C000
00C000
000000
000000
00C000
00C000
033000
033000
033000
033000
033000
033000
0C0C00
0C0C00
0FFC00
0FFC00
0C0C00
0C0C00
300300
300300
300300
300300
300300
300300
000000
000000
000000
000000
000000
000000
000000
000000
ENDCHAR
STARTCHAR uni01CE
ENCODING 462
SWIDTH 1080 0
DWIDTH 18 0
BBX 18 36 0 -8
BITMAP
000000
000000
000000
000000
000000
000000
0C0C00
0C0C00
033000
033000
00C000
00C000
000000
000000
0FFC00
0FFC00
000300
000300
000300
000300
0FFF00
0FFF00
300300
300300
300F00
300F00
0FF300
0FF300
000000
000000
000000
000000
000000
000000
000000
000000
ENDCHAR
STARTCHAR uni01CF
ENCODING 463
SWIDTH 1080 0
DWIDTH 18 0
BBX 18 36 0 -8
BITMAP
0C0C00
0C0C00
033000
033000
00C000
00C000
000000
000000
0FFC00
0FFC00
00C000
00C000
00C000
00C000
00C000
00C000
00C000
00C000
00C000
00C000
00C000
00C000
00C000
00C000
00C000
00C000
0FFC00
0FFC00
000000
000000
000000
000000
000000
000000
000000
000000
ENDCHAR
STARTCHAR uni01D0
ENCODING 464
SWIDTH 1080 0
DWIDTH 18 0
BBX 18 36 0 -8
BITMAP
000000
000000
000000
000000
000000
000000
0C0C00
0C0C00
033000
033000
00C000
00C000
000000
000000
0FC000
0FC000
00C000
00C000
00C000
00C000
00C000
00C000
00C000
00C000
00C000
00C000
0FFC00
0FFC00
000000
000000
000000
000000
000000
000000
000000
000000
ENDCHAR
STARTCHAR uni01D1
ENCODING 465
SWIDTH 1080 0
DWIDTH 18 0
BBX 18 36 0 -8
BITMAP
0C0C00
0C0C00
033000
033000
00C000
00C000
000000
000000
0FFC00
0FFC00
300300
300300
300300
300300
300300
300300
300300
300300
300300
300300
300300
300300
300300
300300
300300
300300
0FFC00
0FFC00
000000
000000
000000
000000
000000
000000
000000
000000
ENDCHAR
STARTCHAR uni01D2
ENCODING 466
SWIDTH 1080 0
DWIDTH 18 0
BBX 18 36 0 -8
BITMAP
000000
000000
000000
000000
000000
000000
0C0C00
0C0C00
033000
033000
00C000
00C000
000000
000000
0FFC00
0FFC00
300300
300300
300300
300300
300300
300300
300300
300300
300300
300300
0FFC00
0FFC00
000000
000000
000000
000000
000000
000000
000000
000000
ENDCHAR
STARTCHAR uni01D3
ENCODING 467
SWIDTH 1080 0
DWIDTH 18 0
BBX 18 36 0 -8
BITMAP
0C0C00
0C0C00
033000
033000
00C000
00C000
000000
000000
300300
300300
300300
300300
300300
300300
300300
300300
300300
300300
300300
300300
300300
300300
300300
300300
0C0C00
0C0C00
03F000
03F000
000000
000000
000000
000000
000000
000000
000000
000000
ENDCHAR
STARTCHAR uni01D4
ENCODING 468
SWIDTH 1080 0
DWIDTH 18 0
BBX 18 36 0 -8
BITMAP
000000
000000
000000
000000
000000
000000
0C0C00
0C0C00
033000
033000
00C000
00C000
000000
000000
300300
300300
300300
300300
300300
300300
300300
300300
300300
300300
300F00
300F00
0FF300
0FF300
000000
000000
000000
000000
000000
000000
000000
000000
ENDCHAR
STARTCHAR uni01D5
ENCODING 469
SWIDTH 1080 0
DWIDTH 18 0
BBX 18 36 0 -8
BITMAP
0FFC00
0FFC00
000000
000000
033000
033000
033000
033000
300300
300300
300300
300300
300300
300300
300300
300300
300300
300300
300300
300300
300300
300300
300300
300300
0C0C00
0C0C00
03F000
03F000
000000
000000
000000
000000
000000
000000
000000
000000
ENDCHAR
STARTCHAR uni01D6
ENCODING 470
SWIDTH 1080 0
DWIDTH 18 0
BBX 18 36 0 -8
BITMAP
000000
000000
000000
000000
0FFC00
0FFC00
000000
000000
033000
033000
033000
033000
000000
000000
300300
300300
300300
300300
300300
300300
300300
300300
300300
300300
300F00
300F00
0FF300
0FF300
000000
000000
000000
000000
000000
000000
000000
000000
ENDCHAR
STARTCHAR uni01D7
ENCODING 471
SWIDTH 1080 0
DWIDTH 18 0
BBX 18 36 0 -8
BITMAP
003000
003000
00C000
00C000
000000
000000
033000
033000
300300
300300
300300
300300
300300
300300
300300
300300
300300
300300
300300
300300
300300
300300
300300
300300
0C0C00
0C0C00
03F000
03F000
000000
000000
000000
000000
000000
000000
000000
000000
ENDCHAR
STARTCHAR uni01D8
ENCODING 472
SWIDTH 1080 0
DWIDTH 18 0
BBX 18 36 0 -8
BITMAP
000000
000000
003000
003000
00C000
00C000
030000
030000
000000
000000
0C3000
0C3000
000000
000000
300300
300300
300300
300300
300300
300300
300300
300300
300300
300300
300F00
300F00
0FF300
0FF300
000000
000000
000000
000000
000000
000000
000000
000000
ENDCHAR
STARTCHAR uni01D9
ENCODING 473
SWIDTH 1080 0
DWIDTH 18 0
BBX 18 36 0 -8
BITMAP
033000
033000
00C000
00C000
000000
000000
033000
033000
300300
300300
300300
300300
300300
300300
300300
300300
300300
300300
300300
300300
300300
300300
300300
300300
0C0C00
0C0C00
03F000
03F000
000000
000000
000000
000000
000000
000000
000000
000000
ENDCHAR
STARTCHAR uni01DA
ENCODING 474
SWIDTH 1080 0
DWIDTH 18 0
BBX 18 36 0 -8
BITMAP
000000
000000
000000
000000
0C3000
0C3000
03C000
03C000
000000
000000
0C3000
0C3000
000000
000000
300300
300300
300300
300300
300300
300300
300300
300300
300300
300300
300F00
300F00
0FF300
0FF300
000000
000000
000000
000000
000000
000000
000000
000000
ENDCHAR
STARTCHAR uni01DB
ENCODING 475
SWIDTH 1080 0
DWIDTH 18 0
BBX 18 36 0 -8
BITMAP
030000
030000
00C000
00C000
000000
000000
033000
033000
300300
300300
300300
300300
300300
300300
300300
300300
300300
300300
300300
300300
300300
300300
300300
300300
0C0C00
0C0C00
03F000
03F000
000000
000000
000000
000000
000000
000000
000000
000000
ENDCHAR
STARTCHAR uni01DC
ENCODING 476
SWIDTH 1080 0
DWIDTH 18 0
BBX 18 36 0 -8
BITMAP
000000
000000
0C0000
0C0000
030000
030000
00C000
00C000
000000
000000
0C3000
0C3000
000000
000000
300300
300300
300300
300300
300300
300300
300300
300300
300300
300300
300F00
300F00
0FF300
0FF300
000000
000000
000000
000000
000000
000000
000000
000000
ENDCHAR
STARTCHAR uni01DD
ENCODING 477
SWIDTH 1080 0
DWIDTH 18 0
BBX 18 36 0 -8
BITMAP
000000
000000
000000
000000
000000
000000
000000
000000
000000
000000
000000
000000
000000
000000
0FFC00
0FFC00
300300
300300
000300
000300
3FFF00
3FFF00
300300
300300
300300
300300
0FFC00
0FFC00
000000
000000
000000
000000
000000
000000
000000
000000
ENDCHAR
STARTCHAR uni01DE
ENCODING 478
SWIDTH 1080 0
DWIDTH 18 0
BBX 18 36 0 -8
BITMAP
0FFC00
0FFC00
000000
000000
033000
033000
000000
000000
00C000
00C000
033000
033000
033000
033000
033000
033000
0C0C00
0C0C00
0FFC00
0FFC00
0C0C00
0C0C00
300300
300300
300300
300300
300300
300300
000000
000000
000000
000000
000000
000000
000000
000000
ENDCHAR
STARTCHAR uni01DF
ENCODING 479
SWIDTH 1080 0
DWIDTH 18 0
BBX 18 36 0 -8
BITMAP
000000
000000
000000
000000
000000
000000
0FFC00
0FFC00
000000
000000
033000
033000
000000
000000
0FFC00
0FFC00
000300
000300
000300
000300
0FFF00
0FFF00
300300
300300
300F00
300F00
0FF300
0FF300
000000
000000
000000
000000
000000
000000
000000
000000
ENDCHAR
STARTCHAR uni01E0
ENCODING 480
SWIDTH 1080 0
DWIDTH 18 0
BBX 18 36 0 -8
BITMAP
0FFC00
0FFC00
000000
000000
00C000
00C000
000000
000000
00C000
00C000
033000
033000
033000
033000
033000
033000
0C0C00
0C0C00
0FFC00
0FFC00
0C0C00
0C0C00
300300
300300
300300
300300
300300
300300
000000
000000
000000
000000
000000
000000
000000
000000
ENDCHAR
STARTCHAR uni01E1
ENCODING 481
SWIDTH 1080 0
DWIDTH 18 0
BBX 18 36 0 -8
BITMAP
000000
000000
000000
000000
000000
000000
0FFC00
0FFC00
000000
000000
00C000
00C000
000000
000000
0FFC00
0FFC00
000300
000300
000300
000300
0FFF00
0FFF00
300300
300300
300F00
300F00
0FF300
0FF300
000000
000000
000000
000000
000000
000000
000000
000000
ENDCHAR
STARTCHAR uni01E2
ENCODING 482
SWIDTH 1080 0
DWIDTH 18 0
BBX 18 36 0 -8
BITMAP
000000
000000
000000
000000
03FF00
03FF00
000000
000000
00FF00
00FF00
033000
033000
033000
033000
033000
033000
0C3F00
0C3F00
0FF000
0FF000
0C3000
0C3000
0C3000
0C3000
303000
303000
303F00
303F00
000000
000000
000000
000000
000000
000000
000000
000000
ENDCHAR
STARTCHAR uni01E3
ENCODING 483
SWIDTH 1080 0
DWIDTH 18 0
BBX 18 36 0 -8
BITMAP
000000
000000
000000
000000
000000
000000
000000
000000
000000
000000
0FFF00
0FFF00
000000
000000
0F3C00
0F3C00
00C300
00C300
00C300
00C300
0FFF00
0FFF00
30C000
30C000
30C300
30C300
0F3C00
0F3C00
000000
000000
000000
000000
000000
000000
000000
000000
ENDCHAR
STARTCHAR uni01E4
ENCODING 484
SWIDTH 1080 0
DWIDTH 18 0
BBX 18 36 0 -8
BITMAP
000000
000000
000000
000000
000000
000000
000000
000000
03F000
03F000
0C0C00
0C0C00
300300
300300
300000
300000
300000
300000
303F00
303F00
300300
300300
303FC0
303FC0
0C0C00
0C0C00
03F000
03F000
000000
000000
000000
000000
000000
000000
000000
000000
ENDCHAR
STARTCHAR uni01E5
ENCODING 485
SWIDTH 1080 0
DWIDTH 18 0
BBX 18 36 0 -8
BITMAP
000000
000000
000000
000000
000000
000000
000000
000000
000000
000000
000000
000000
000000
000000
0FF300
0FF300
300C00
300C00
300C00
300C00
300C00
300C00
0FF000
0FF000
300000
300000
0FFC00
0FFC00
300300
300300
FFFFC0
FFFFC0
300300
300300
0FFC00
0FFC00
ENDCHAR
STARTCHAR Gcaron
ENCODING 486
SWIDTH 1080 0
DWIDTH 18 0
BBX 18 36 0 -8
BITMAP
0C0C00
0C0C00
033000
033000
00C000
00C000
000000
000000
03F000
03F000
0C0C00
0C0C00
300300
300300
300000
300000
300000
300000
303F00
303F00
300300
300300
300300
300300
0C0C00
0C0C00
03F000
03F000
000000
000000
000000
000000
000000
000000
000000
000000
ENDCHAR
STARTCHAR gcaron
ENCODING 487
SWIDTH 1080 0
DWIDTH 18 0
BBX 18 36 0 -8
BITMAP
000000
000000
000000
000000
000000
000000
0C0C00
0C0C00
033000
033000
00C000
00C000
000000
000000
0FF300
0FF300
300C00
300C00
300C00
300C00
300C00
300C00
0FF000
0FF000
300000
300000
0FFC00
0FFC00
300300
300300
300300
300300
0FFC00
0FFC00
000000
000000
ENDCHAR
STARTCHAR uni01E8
ENCODING 488
SWIDTH 1080 0
DWIDTH 18 0
BBX 18 36 0 -8
BITMAP
0C0C00
0C0C00
033000
033000
00C000
00C000
000000
000000
300300
300300
300C00
300C00
303000
303000
30C000
30C000
330000
330000
3CC000
3CC000
303000
303000
300C00
300C00
300300
300300
300300
300300
000000
000000
000000
000000
000000
000000
000000
000000
ENDCHAR
STARTCHAR uni01E9
ENCODING 489
SWIDTH 1080 0
DWIDTH 18 0
BBX 18 36 0 -8
BITMAP
000000
000000
0C0C00
0C0C00
033000
033000
00C000
00C000
300000
300000
300000
300000
300000
300000
300C00
300C00
303000
303000
30C000
30C000
33C000
33C000
3C3000
3C3000
300C00
300C00
300300
300300
000000
000000
000000
000000
000000
000000
000000
000000
ENDCHAR
STARTCHAR uni01EA
ENCODING 490
SWIDTH 1080 0
DWIDTH 18 0
BBX 18 36 0 -8
BITMAP
000000
000000
000000
000000
000000
000000
000000
000000
0FFC00
0FFC00
300300
300300
300300
300300
300300
300300
300300
300300
300300
300300
300300
300300
300300
300300
300300
300300
0FFC00
0FFC00
00C000
00C000
030000
030000
00F000
00F000
000000
000000
ENDCHAR
STARTCHAR uni01EB
ENCODING 491
SWIDTH 1080 0
DWIDTH 18 0
BBX 18 36 0 -8
BITMAP
000000
000000
000000
000000
000000
000000
000000
000000
000000
000000
000000
000000
000000
000000
0FFC00
0FFC00
300300
300300
300300
300300
300300
300300
300300
300300
300300
300300
0FFC00
0FFC00
00C000
00C000
030000
030000
00F000
00F000
000000
000000
ENDCHAR
STARTCHAR uni01EC
ENCODING 492
SWIDTH 1080 0
DWIDTH 18 0
BBX 18 36 0 -8
BITMAP
000000
000000
000000
000000
0FFC00
0FFC00
000000
000000
0FFC00
0FFC00
300300
300300
300300
300300
300300
300300
300300
300300
300300
300300
300300
300300
300300
300300
300300
300300
0FFC00
0FFC00
00C000
00C000
030000
030000
00F000
00F000
000000
000000
ENDCHAR
STARTCHAR uni01ED
ENCODING 493
SWIDTH 1080 0
DWIDTH 18 0
BBX 18 36 0 -8
BITMAP
000000
000000
000000
000000
000000
000000
000000
000000
000000
000000
0FFC00
0FFC00
000000
000000
0FFC00
0FFC00
300300
300300
300300
300300
300300
300300
300300
300300
300300
300300
0FFC00
0FFC00
00C000
00C000
030000
030000
00F000
00F000
000000
000000
ENDCHAR
STARTCHAR uni01EE
ENCODING 494
SWIDTH 1080 0
DWIDTH 18 0
BBX 18 36 0 -8
BITMAP
0C0C00
0C0C00
033000
033000
00C000
00C000
000000
000000
3FFC00
3FFC00
003000
003000
00C000
00C000
030000
030000
0FC000
0FC000
003000
003000
000C00
000C00
000C00
000C00
303000
303000
0FC000
0FC000
000000
000000
000000
000000
000000
000000
000000
000000
ENDCHAR
STARTCHAR uni01EF
ENCODING 495
SWIDTH 1080 0
DWIDTH 18 0
BBX 18 36 0 -8
BITMAP
000000
000000
000000
000000
000000
000000
303000
303000
0CC000
0CC000
030000
030000
000000
000000
3FFC00
3FFC00
003000
003000
00C000
00C000
030000
030000
0FC000
0FC000
003000
003000
000C00
000C00
000C00
000C00
303000
303000
0FC000
0FC000
000000
000000
ENDCHAR
STARTCHAR uni01F0
ENCODING 496
SWIDTH 1080 0
DWIDTH 18 0
BBX 18 36 0 -8
BITMAP
000000
000000
000000
000000
000000
000000
00C300
00C300
003C00
003C00
000000
000000
000000
000000
00FC00
00FC00
000C00
000C00
000C00
000C00
000C00
000C00
000C00
000C00
000C00
000C00
000C00
000C00
0C0C00
0C0C00
0C0C00
0C0C00
03F000
03F000
000000
000000
ENDCHAR
STARTCHAR uni01F1
ENCODING 497
SWIDTH 1080 0
DWIDTH 18 0
BBX 18 36 0 -8
BITMAP
000000
000000
000000
000000
000000
000000
000000
000000
3F3F00
3F3F00
330300
330300
30C300
30C300
30C300
30C300
30CC00
30CC00
30CC00
30CC00
30F000
30F000
30F000
30F000
333000
333000
3C3F00
3C3F00
000000
000000
000000
000000
000000
000000
000000
000000
ENDCHAR
STARTCHAR uni01F2
ENCODING 498
SWIDTH 1080 0
DWIDTH 18 0
BBX 18 36 0 -8
BITMAP
000000
000000
000000
000000
000000
000000
000000
000000
3F0000
3F0000
330000
330000
30C000
30C000
30FF00
30FF00
30C300
30C300
30C300
30C300
30CC00
30CC00
30F000
30F000
333000
333000
3C3F00
3C3F00
000000
000000
000000
000000
000000
000000
000000
000000
ENDCHAR
STARTCHAR uni01F3
ENCODING 499
SWIDTH 1080 0
DWIDTH 18 0
BBX 18 36 0 -8
BITMAP
000000
000000
000000
000000
000000
000000
00C000
00C000
00C000
00C000
00C000
00C000
00C000
00C000
0FFF00
0FFF00
30C300
30C300
30C300
30C300
30CC00
30CC00
30F000
30F000
30F000
30F000
0FFF00
0FFF00
000000
000000
000000
000000
000000
000000
000000
000000
ENDCHAR
STARTCHAR uni01F4
ENCODING 500
SWIDTH 1080 0
DWIDTH 18 0
BBX 18 36 0 -8
BITMAP
003000
003000
00C000
00C000
030000
030000
000000
000000
03F000
03F000
0C0C00
0C0C00
300300
300300
300000
300000
300000
300000
303F00
303F00
300300
300300
300300
300300
0C0C00
0C0C00
03F000
03F000
000000
000000
000000
000000
000000
000000
000000
000000
ENDCHAR
STARTCHAR uni01F5
ENCODING 501
SWIDTH 1080 0
DWIDTH 18 0
BBX 18 36 0 -8
BITMAP
000000
000000
000000
000000
000000
000000
003000
003000
00C000
00C000
030000
030000
000000
000000
0FF300
0FF300
300C00
300C00
300C00
300C00
300C00
300C00
0FF000
0FF000
300000
300000
0FFC00
0FFC00
300300
300300
300300
300300
0FFC00
0FFC00
000000
000000
ENDCHAR
STARTCHAR uni01F6
ENCODING 502
SWIDTH 1080 0
DWIDTH 18 0
BBX 18 36 0 -8
BITMAP
000000
000000
000000
000000
000000
000000
000000
000000
30C000
30C000
30C000
30C000
30C000
30C000
30C000
30C000
3FC300
3FC300
30C300
30C300
30C300
30C300
30C300
30C300
30C300
30C300
303C00
303C00
000000
000000
000000
000000
000000
000000
000000
000000
ENDCHAR
STARTCHAR uni01F7
ENCODING 503
SWIDTH 1080 0
DWIDTH 18 0
BBX 18 36 0 -8
BITMAP
000000
000000
000000
000000
000000
000000
000000
000000
33F000
33F000
3C0C00
3C0C00
300C00
300C00
303000
303000
30C000
30C000
330000
330000
3C0000
3C0000
300000
300000
300000
300000
300000
300000
000000
000000
000000
000000
000000
000000
000000
000000
ENDCHAR
STARTCHAR uni01F8
ENCODING 504
SWIDTH 1080 0
DWIDTH 18 0
BBX 18 36 0 -8
BITMAP
030000
030000
00C000
00C000
003000
003000
000000
000000
300300
300300
300300
300300
3C0300
3C0300
330300
330300
30C300
30C300
303300
303300
300F00
300F00
300300
300300
300300
300300
300300
300300
000000
000000
000000
000000
000000
000000
000000
000000
ENDCHAR
STARTCHAR uni01F9
ENCODING 505
SWIDTH 1080 0
DWIDTH 18 0
BBX 18 36 0 -8
BITMAP
000000
000000
000000
000000
000000
000000
030000
030000
00C000
00C000
003000
003000
000000
000000
33FC00
33FC00
3C0300
3C0300
300300
300300
300300
300300
300300
300300
300300
300300
300300
300300
000000
000000
000000
000000
000000
000000
000000
000000
ENDCHAR
STARTCHAR Aringacute
ENCODING 506
SWIDTH 1080 0
DWIDTH 18 0
BBX 18 36 0 -8
BITMAP
003000
003000
00C000
00C000
030000
030000
00C000
00C000
033000
033000
00C000
00C000
033000
033000
033000
033000
0C0C00
0C0C00
0C0C00
0C0C00
0FFC00
0FFC00
300300
300300
300300
300300
300300
300300
000000
000000
000000
000000
000000
000000
000000
000000
ENDCHAR
STARTCHAR aringacute
ENCODING 507
SWIDTH 1080 0
DWIDTH 18 0
BBX 18 36 0 -8
BITMAP
003000
003000
00C000
00C000
030000
030000
000000
000000
03F000
03F000
0C0C00
0C0C00
03F000
03F000
0FFC00
0FFC00
000300
000300
000300
000300
0FFF00
0FFF00
300300
300300
300F00
300F00
0FF300
0FF300
000000
000000
000000
000000
000000
000000
000000
000000
ENDCHAR
STARTCHAR AEacute
ENCODING 508
SWIDTH 1080 0
DWIDTH 18 0
BBX 18 36 0 -8
BITMAP
000C00
000C00
003000
003000
00C000
00C000
000000
000000
00FF00
00FF00
033000
033000
033000
033000
033000
033000
0C3F00
0C3F00
0FF000
0FF000
0C3000
0C3000
303000
303000
303000
303000
303F00
303F00
000000
000000
000000
000000
000000
000000
000000
000000
ENDCHAR
STARTCHAR aeacute
ENCODING 509
SWIDTH 1080 0
DWIDTH 18 0
BBX 18 36 0 -8
BITMAP
000000
000000
000000
000000
000000
000000
000C00
000C00
003000
003000
00C000
00C000
000000
000000
0F3C00
0F3C00
00C300
00C300
00C300
00C300
0FFF00
0FFF00
30C000
30C000
30C300
30C300
0F3C00
0F3C00
000000
000000
000000
000000
000000
000000
000000
000000
ENDCHAR
STARTCHAR Oslashacute
ENCODING 510
SWIDTH 1080 0
DWIDTH 18 0
BBX 18 36 0 -8
BITMAP
003000
003000
00C000
00C000
030000
030000
000300
000300
0FFC00
0FFC00
300F00
300F00
303300
303300
303300
303300
30C300
30C300
30C300
30C300
330300
330300
330300
330300
3C0300
3C0300
0FFC00
0FFC00
300000
300000
000000
000000
000000
000000
000000
000000
ENDCHAR
STARTCHAR oslashacute
ENCODING 511
SWIDTH 1080 0
DWIDTH 18 0
BBX 18 36 0 -8
BITMAP
000000
000000
000000
000000
000000
000000
003000
003000
00C000
00C000
030000
030000
000300
000300
0FFC00
0FFC00
303300
303300
303300
303300
30C300
30C300
330300
330300
330300
330300
0FFC00
0FFC00
300000
300000
000000
000000
000000
000000
000000
000000
ENDCHAR
STARTCHAR uni0200
ENCODING 512
SWIDTH 1080 0
DWIDTH 18 0
BBX 18 36 0 -8
BITMAP
303000
303000
0C0C00
0C0C00
030300
030300
000000
000000
00C000
00C000
033000
033000
033000
033000
033000
033000
0C0C00
0C0C00
0FFC00
0FFC00
0C0C00
0C0C00
300300
300300
300300
300300
300300
300300
000000
000000
000000
000000
000000
000000
000000
000000
ENDCHAR
STARTCHAR uni0201
ENCODING 513
SWIDTH 1080 0
DWIDTH 18 0
BBX 18 36 0 -8
BITMAP
000000
000000
000000
000000
000000
000000
303000
303000
0C0C00
0C0C00
030300
030300
000000
000000
0FFC00
0FFC00
000300
000300
000300
000300
0FFF00
0FFF00
300300
300300
300F00
300F00
0FF300
0FF300
000000
000000
000000
000000
000000
000000
000000
000000
ENDCHAR
STARTCHAR uni0202
ENCODING 514
SWIDTH 1080 0
DWIDTH 18 0
BBX 18 36 0 -8
BITMAP
000000
000000
03F000
03F000
0C0C00
0C0C00
000000
000000
00C000
00C000
033000
033000
033000
033000
033000
033000
0C0C00
0C0C00
0FFC00
0FFC00
0C0C00
0C0C00
300300
300300
300300
300300
300300
300300
000000
000000
000000
000000
000000
000000
000000
000000
ENDCHAR
STARTCHAR uni0203
ENCODING 515
SWIDTH 1080 0
DWIDTH 18 0
BBX 18 36 0 -8
BITMAP
000000
000000
000000
000000
000000
000000
000000
000000
03F000
03F000
0C0C00
0C0C00
000000
000000
0FFC00
0FFC00
000300
000300
000300
000300
0FFF00
0FFF00
300300
300300
300F00
300F00
0FF300
0FF300
000000
000000
000000
000000
000000
000000
000000
000000
ENDCHAR
STARTCHAR uni0204
ENCODING 516
SWIDTH 1080 0
DWIDTH 18 0
BBX 18 36 0 -8
BITMAP
303000
303000
0C0C00
0C0C00
030300
030300
000000
000000
3FFF00
3FFF00
300000
300000
300000
300000
300000
300000
3FF000
3FF000
300000
300000
300000
300000
300000
300000
300000
300000
3FFF00
3FFF00
000000
000000
000000
000000
000000
000000
000000
000000
ENDCHAR
STARTCHAR uni0205
ENCODING 517
SWIDTH 1080 0
DWIDTH 18 0
BBX 18 36 0 -8
BITMAP
000000
000000
000000
000000
000000
000000
303000
303000
0C0C00
0C0C00
030300
030300
000000
000000
0FFC00
0FFC00
300300
300300
300300
300300
3FFF00
3FFF00
300000
300000
300300
300300
0FFC00
0FFC00
000000
000000
000000
000000
000000
000000
000000
000000
ENDCHAR
STARTCHAR uni0206
ENCODING 518
SWIDTH 1080 0
DWIDTH 18 0
BBX 18 36 0 -8
BITMAP
000000
000000
03F000
03F000
0C0C00
0C0C00
000000
000000
3FFF00
3FFF00
300000
300000
300000
300000
300000
300000
3FF000
3FF000
300000
300000
300000
300000
300000
300000
300000
300000
3FFF00
3FFF00
000000
000000
000000
000000
000000
000000
000000
000000
ENDCHAR
STARTCHAR uni0207
ENCODING 519
SWIDTH 1080 0
DWIDTH 18 0
BBX 18 36 0 -8
BITMAP
000000
000000
000000
000000
000000
000000
000000
000000
03F000
03F000
0C0C00
0C0C00
000000
000000
0FFC00
0FFC00
300300
300300
300300
300300
3FFF00
3FFF00
300000
300000
300300
300300
0FFC00
0FFC00
000000
000000
000000
000000
000000
000000
000000
000000
ENDCHAR
STARTCHAR uni0208
ENCODING 520
SWIDTH 1080 0
DWIDTH 18 0
BBX 18 36 0 -8
BITMAP
30C000
30C000
0C3000
0C3000
030C00
030C00
000000
000000
0FFC00
0FFC00
00C000
00C000
00C000
00C000
00C000
00C000
00C000
00C000
00C000
00C000
00C000
00C000
00C000
00C000
00C000
00C000
0FFC00
0FFC00
000000
000000
000000
000000
000000
000000
000000
000000
ENDCHAR
STARTCHAR uni0209
ENCODING 521
SWIDTH 1080 0
DWIDTH 18 0
BBX 18 36 0 -8
BITMAP
000000
000000
000000
000000
000000
000000
30C000
30C000
0C3000
0C3000
030C00
030C00
000000
000000
0FC000
0FC000
00C000
00C000
00C000
00C000
00C000
00C000
00C000
00C000
00C000
00C000
0FFC00
0FFC00
000000
000000
000000
000000
000000
000000
000000
000000
ENDCHAR
STARTCHAR uni020A
ENCODING 522
SWIDTH 1080 0
DWIDTH 18 0
BBX 18 36 0 -8
BITMAP
000000
000000
03F000
03F000
0C0C00
0C0C00
000000
000000
0FFC00
0FFC00
00C000
00C000
00C000
00C000
00C000
00C000
00C000
00C000
00C000
00C000
00C000
00C000
00C000
00C000
00C000
00C000
0FFC00
0FFC00
000000
000000
000000
000000
000000
000000
000000
000000
ENDCHAR
STARTCHAR uni020B
ENCODING 523
SWIDTH 1080 0
DWIDTH 18 0
BBX 18 36 0 -8
BITMAP
000000
000000
000000
000000
000000
000000
000000
000000
03F000
03F000
0C0C00
0C0C00
000000
000000
0FC000
0FC000
00C000
00C000
00C000
00C000
00C000
00C000
00C000
00C000
00C000
00C000
0FFC00
0FFC00
000000
000000
000000
000000
000000
000000
000000
000000
ENDCHAR
STARTCHAR uni020C
ENCODING 524
SWIDTH 1080 0
DWIDTH 18 0
BBX 18 36 0 -8
BITMAP
30C000
30C000
0C3000
0C3000
030C00
030C00
000000
000000
0FFC00
0FFC00
300300
300300
300300
300300
300300
300300
300300
300300
300300
300300
300300
300300
300300
300300
300300
300300
0FFC00
0FFC00
000000
000000
000000
000000
000000
000000
000000
000000
ENDCHAR
STARTCHAR uni020D
ENCODING 525
SWIDTH 1080 0
DWIDTH 18 0
BBX 18 36 0 -8
BITMAP
000000
000000
000000
000000
000000
000000
30C000
30C000
0C3000
0C3000
030C00
030C00
000000
000000
0FFC00
0FFC00
300300
300300
300300
300300
300300
300300
300300
300300
300300
300300
0FFC00
0FFC00
000000
000000
000000
000000
000000
000000
000000
000000
ENDCHAR
STARTCHAR uni020E
ENCODING 526
SWIDTH 1080 0
DWIDTH 18 0
BBX 18 36 0 -8
BITMAP
000000
000000
03F000
03F000
0C0C00
0C0C00
000000
000000
0FFC00
0FFC00
300300
300300
300300
300300
300300
300300
300300
300300
300300
300300
300300
300300
300300
300300
300300
300300
0FFC00
0FFC00
000000
000000
000000
000000
000000
000000
000000
000000
ENDCHAR
STARTCHAR uni020F
ENCODING 527
SWIDTH 1080 0
DWIDTH 18 0
BBX 18 36 0 -8
BITMAP
000000
000000
000000
000000
000000
000000
000000
000000
03F000
03F000
0C0C00
0C0C00
000000
000000
0FFC00
0FFC00
300300
300300
300300
300300
300300
300300
300300
300300
300300
300300
0FFC00
0FFC00
000000
000000
000000
000000
000000
000000
000000
000000
ENDCHAR
STARTCHAR uni0210
ENCODING 528
SWIDTH 1080 0
DWIDTH 18 0
BBX 18 36 0 -8
BITMAP
30C000
30C000
0C3000
0C3000
030C00
030C00
000000
000000
3FF000
3FF000
300C00
300C00
300300
300300
300300
300300
300C00
300C00
3FF000
3FF000
30C000
30C000
303000
303000
300C00
300C00
300300
300300
000000
000000
000000
000000
000000
000000
000000
000000
ENDCHAR
STARTCHAR uni0211
ENCODING 529
SWIDTH 1080 0
DWIDTH 18 0
BBX 18 36 0 -8
BITMAP
000000
000000
000000
000000
000000
000000
30C000
30C000
0C3000
0C3000
030C00
030C00
000000
000000
30FC00
30FC00
0F0300
0F0300
0C0300
0C0300
0C0000
0C0000
0C0000
0C0000
0C0000
0C0000
0C0000
0C0000
000000
000000
000000
000000
000000
000000
000000
000000
ENDCHAR
STARTCHAR uni0212
ENCODING 530
SWIDTH 1080 0
DWIDTH 18 0
BBX 18 36 0 -8
BITMAP
000000
000000
03F000
03F000
0C0C00
0C0C00
000000
000000
3FF000
3FF000
300C00
300C00
300300
300300
300300
300300
300C00
300C00
3FF000
3FF000
30C000
30C000
303000
303000
300C00
300C00
300300
300300
000000
000000
000000
000000
000000
000000
000000
000000
ENDCHAR
STARTCHAR uni0213
ENCODING 531
SWIDTH 1080 0
DWIDTH 18 0
BBX 18 36 0 -8
BITMAP
000000
000000
000000
000000
000000
000000
000000
000000
03F000
03F000
0C0C00
0C0C00
000000
000000
30FC00
30FC00
0F0300
0F0300
0C0300
0C0300
0C0000
0C0000
0C0000
0C0000
0C0000
0C0000
0C0000
0C0000
000000
000000
000000
000000
000000
000000
000000
000000
ENDCHAR
STARTCHAR uni0214
ENCODING 532
SWIDTH 1080 0
DWIDTH 18 0
BBX 18 36 0 -8
BITMAP
303000
303000
0C0C00
0C0C00
030300
030300
000000
000000
300300
300300
300300
300300
300300
300300
300300
300300
300300
300300
300300
300300
300300
300300
300300
300300
0C0C00
0C0C00
03F000
03F000
000000
000000
000000
000000
000000
000000
000000
000000
ENDCHAR
STARTCHAR uni0215
ENCODING 533
SWIDTH 1080 0
DWIDTH 18 0
BBX 18 36 0 -8
BITMAP
000000
000000
000000
000000
000000
000000
30C000
30C000
0C3000
0C3000
030C00
030C00
000000
000000
300300
300300
300300
300300
300300
300300
300300
300300
300300
300300
300F00
300F00
0FF300
0FF300
000000
000000
000000
000000
000000
000000
000000
000000
ENDCHAR
STARTCHAR uni0216
ENCODING 534
SWIDTH 1080 0
DWIDTH 18 0
BBX 18 36 0 -8
BITMAP
000000
000000
03F000
03F000
0C0C00
0C0C00
000000
000000
300300
300300
300300
300300
300300
300300
300300
300300
300300
300300
300300
300300
300300
300300
300300
300300
0C0C00
0C0C00
03F000
03F000
000000
000000
000000
000000
000000
000000
000000
000000
ENDCHAR
STARTCHAR uni0217
ENCODING 535
SWIDTH 1080 0
DWIDTH 18 0
BBX 18 36 0 -8
BITMAP
000000
000000
000000
000000
000000
000000
000000
000000
03F000
03F000
0C0C00
0C0C00
000000
000000
300300
300300
300300
300300
300300
300300
300300
300300
300300
300300
300F00
300F00
0FF300
0FF300
000000
000000
000000
000000
000000
000000
000000
000000
ENDCHAR
STARTCHAR Scommaaccent
ENCODING 536
SWIDTH 1080 0
DWIDTH 18 0
BBX 18 36 0 -8
BITMAP
000000
000000
000000
000000
000000
000000
000000
000000
0FFC00
0FFC00
300300
300300
300300
300300
300000
300000
0FFC00
0FFC00
000300
000300
000300
000300
300300
300300
300300
300300
0FFC00
0FFC00
00F000
00F000
003000
003000
00C000
00C000
000000
000000
ENDCHAR
STARTCHAR scommaaccent
ENCODING 537
SWIDTH 1080 0
DWIDTH 18 0
BBX 18 36 0 -8
BITMAP
000000
000000
000000
000000
000000
000000
000000
000000
000000
000000
000000
000000
000000
000000
0FFC00
0FFC00
300300
300300
300000
300000
0FFC00
0FFC00
000300
000300
300300
300300
0FFC00
0FFC00
00F000
00F000
003000
003000
00C000
00C000
000000
000000
ENDCHAR
STARTCHAR Tcommaaccent
ENCODING 538
SWIDTH 1080 0
DWIDTH 18 0
BBX 18 36 0 -8
BITMAP
000000
000000
000000
000000
000000
000000
000000
000000
3FFF00
3FFF00
00C000
00C000
00C000
00C000
00C000
00C000
00C000
00C000
00C000
00C000
00C000
00C000
00C000
00C000
00C000
00C000
00C000
00C000
00F000
00F000
003000
003000
00C000
00C000
000000
000000
ENDCHAR
STARTCHAR tcommaaccent
ENCODING 539
SWIDTH 1080 0
DWIDTH 18 0
BBX 18 36 0 -8
BITMAP
000000
000000
000000
000000
000000
000000
000000
000000
000000
000000
030000
030000
030000
030000
3FFC00
3FFC00
030000
030000
030000
030000
030000
030000
030000
030000
030300
030300
00FC00
00FC00
00F000
00F000
003000
003000
00C000
00C000
000000
000000
ENDCHAR
STARTCHAR uni021C
ENCODING 540
SWIDTH 1080 0
DWIDTH 18 0
BBX 18 36 0 -8
BITMAP
000000
000000
000000
000000
000000
000000
000000
000000
0FC000
0FC000
303000
303000
000C00
000C00
000C00
000C00
003000
003000
00CC00
00CC00
030C00
030C00
000C00
000C00
003000
003000
3FC000
3FC000
000000
000000
000000
000000
000000
000000
000000
000000
ENDCHAR
STARTCHAR uni021D
ENCODING 541
SWIDTH 1080 0
DWIDTH 18 0
BBX 18 36 0 -8
BITMAP
000000
000000
000000
000000
000000
000000
000000
000000
000000
000000
000000
000000
000000
000000
0FC000
0FC000
303000
303000
000C00
000C00
000C00
000C00
003000
003000
00CC00
00CC00
030C00
030C00
000C00
000C00
003000
003000
3FC000
3FC000
000000
000000
ENDCHAR
STARTCHAR uni021E
ENCODING 542
SWIDTH 1080 0
DWIDTH 18 0
BBX 18 36 0 -8
BITMAP
000000
000000
0C0C00
0C0C00
033000
033000
00C000
00C000
300300
300300
300300
300300
300300
300300
300300
300300
3FFF00
3FFF00
300300
300300
300300
300300
300300
300300
300300
300300
300300
300300
000000
000000
000000
000000
000000
000000
000000
000000
ENDCHAR
STARTCHAR uni021F
ENCODING 543
SWIDTH 1080 0
DWIDTH 18 0
BBX 18 36 0 -8
BITMAP
000000
000000
0C0C00
0C0C00
033000
033000
00C000
00C000
300000
300000
300000
300000
300000
300000
33FC00
33FC00
3C0300
3C0300
300300
300300
300300
300300
300300
300300
300300
300300
300300
300300
000000
000000
000000
000000
000000
000000
000000
000000
ENDCHAR
STARTCHAR uni0220
ENCODING 544
SWIDTH 1080 0
DWIDTH 18 0
BBX 18 36 0 -8
BITMAP
000000
000000
000000
000000
000000
000000
000000
000000
33FC00
33FC00
3C0300
3C0300
300300
300300
300300
300300
300300
300300
300300
300300
300300
300300
300300
300300
300300
300300
300300
300300
000300
000300
000300
000300
000300
000300
000000
000000
ENDCHAR
STARTCHAR uni0222
ENCODING 546
SWIDTH 1080 0
DWIDTH 18 0
BBX 18 36 0 -8
BITMAP
000000
000000
000000
000000
000000
000000
000000
000000
0C0C00
0C0C00
300300
300300
300300
300300
300300
300300
0FFC00
0FFC00
300300
300300
300300
300300
300300
300300
300300
300300
0FFC00
0FFC00
000000
000000
000000
000000
000000
000000
000000
000000
ENDCHAR
STARTCHAR uni0223
ENCODING 547
SWIDTH 1080 0
DWIDTH 18 0
BBX 18 36 0 -8
BITMAP
000000
000000
000000
000000
000000
000000
000000
000000
000000
000000
000000
000000
0C0C00
0C0C00
300300
300300
300300
300300
0FFC00
0FFC00
300300
300300
300300
300300
300300
300300
0FFC00
0FFC00
000000
000000
000000
000000
000000
000000
000000
000000
ENDCHAR
STARTCHAR uni0224
ENCODING 548
SWIDTH 1080 0
DWIDTH 18 0
BBX 18 36 0 -8
BITMAP
000000
000000
000000
000000
000000
000000
000000
000000
3FFF00
3FFF00
000300
000300
000C00
000C00
003000
003000
00C000
00C000
030000
030000
0C0000
0C0000
300000
300000
300000
300000
3FFF00
3FFF00
000300
000300
000300
000300
003C00
003C00
000000
000000
ENDCHAR
STARTCHAR uni0225
ENCODING 549
SWIDTH 1080 0
DWIDTH 18 0
BBX 18 36 0 -8
BITMAP
000000
000000
000000
000000
000000
000000
000000
000000
000000
000000
000000
000000
000000
000000
3FFF00
3FFF00
000C00
000C00
003000
003000
00C000
00C000
030000
030000
0C0000
0C0000
3FFF00
3FFF00
000300
000300
000300
000300
003C00
003C00
000000
000000
ENDCHAR
STARTCHAR uni0226
ENCODING 550
SWIDTH 1080 0
DWIDTH 18 0
BBX 18 36 0 -8
BITMAP
000000
000000
00C000
00C000
00C000
00C000
000000
000000
00C000
00C000
033000
033000
033000
033000
033000
033000
0C0C00
0C0C00
0FFC00
0FFC00
0C0C00
0C0C00
300300
300300
300300
300300
300300
300300
000000
000000
000000
000000
000000
000000
000000
000000
ENDCHAR
STARTCHAR uni0227
ENCODING 551
SWIDTH 1080 0
DWIDTH 18 0
BBX 18 36 0 -8
BITMAP
000000
000000
000000
000000
000000
000000
000000
000000
00C000
00C000
00C000
00C000
000000
000000
0FFC00
0FFC00
000300
000300
000300
000300
0FFF00
0FFF00
300300
300300
300F00
300F00
0FF300
0FF300
000000
000000
000000
000000
000000
000000
000000
000000
ENDCHAR
STARTCHAR uni0228
ENCODING 552
SWIDTH 1080 0
DWIDTH 18 0
BBX 18 36 0 -8
BITMAP
000000
000000
000000
000000
000000
000000
000000
000000
3FFF00
3FFF00
300000
300000
300000
300000
300000
300000
3FF000
3FF000
300000
300000
300000
300000
300000
300000
300000
300000
3FFF00
3FFF00
000300
000300
000300
000300
003C00
003C00
000000
000000
ENDCHAR
STARTCHAR uni0229
ENCODING 553
SWIDTH 1080 0
DWIDTH 18 0
BBX 18 36 0 -8
BITMAP
000000
000000
000000
000000
000000
000000
000000
000000
000000
000000
000000
000000
000000
000000
0FFC00
0FFC00
300300
300300
300300
300300
3FFF00
3FFF00
300000
300000
300300
300300
0FFC00
0FFC00
000C00
000C00
000C00
000C00
00F000
00F000
000000
000000
ENDCHAR
STARTCHAR uni022A
ENCODING 554
SWIDTH 1080 0
DWIDTH 18 0
BBX 18 36 0 -8
BITMAP
0FFC00
0FFC00
000000
000000
033000
033000
000000
000000
0FFC00
0FFC00
300300
300300
300300
300300
300300
300300
300300
300300
300300
300300
300300
300300
300300
300300
300300
300300
0FFC00
0FFC00
000000
000000
000000
000000
000000
000000
000000
000000
ENDCHAR
STARTCHAR uni022B
ENCODING 555
SWIDTH 1080 0
DWIDTH 18 0
BBX 18 36 0 -8
BITMAP
000000
000000
000000
000000
000000
000000
0FFC00
0FFC00
000000
000000
033000
033000
000000
000000
0FFC00
0FFC00
300300
300300
300300
300300
300300
300300
300300
300300
300300
300300
0FFC00
0FFC00
000000
000000
000000
000000
000000
000000
000000
000000
ENDCHAR
STARTCHAR uni022C
ENCODING 556
SWIDTH 1080 0
DWIDTH 18 0
BBX 18 36 0 -8
BITMAP
0FFC00
0FFC00
000000
000000
03CC00
03CC00
0CF000
0CF000
000000
000000
0FFC00
0FFC00
300300
300300
300300
300300
300300
300300
300300
300300
300300
300300
300300
300300
300300
300300
0FFC00
0FFC00
000000
000000
000000
000000
000000
000000
000000
000000
ENDCHAR
STARTCHAR uni022D
ENCODING 557
SWIDTH 1080 0
DWIDTH 18 0
BBX 18 36 0 -8
BITMAP
000000
000000
000000
000000
0FFC00
0FFC00
000000
000000
03CC00
03CC00
0CF000
0CF000
000000
000000
0FFC00
0FFC00
300300
300300
300300
300300
300300
300300
300300
300300
300300
300300
0FFC00
0FFC00
000000
000000
000000
000000
000000
000000
000000
000000
ENDCHAR
STARTCHAR uni022E
ENCODING 558
SWIDTH 1080 0
DWIDTH 18 0
BBX 18 36 0 -8
BITMAP
000000
000000
00C000
00C000
00C000
00C000
000000
000000
0FFC00
0FFC00
300300
300300
300300
300300
300300
300300
300300
300300
300300
300300
300300
300300
300300
300300
300300
300300
0FFC00
0FFC00
000000
000000
000000
000000
000000
000000
000000
000000
ENDCHAR
STARTCHAR uni022F
ENCODING 559
SWIDTH 1080 0
DWIDTH 18 0
BBX 18 36 0 -8
BITMAP
000000
000000
000000
000000
000000
000000
000000
000000
00C000
00C000
00C000
00C000
000000
000000
0FFC00
0FFC00
300300
300300
300300
300300
300300
300300
300300
300300
300300
300300
0FFC00
0FFC00
000000
000000
000000
000000
000000
000000
000000
000000
ENDCHAR
STARTCHAR uni0230
ENCODING 560
SWIDTH 1080 0
DWIDTH 18 0
BBX 18 36 0 -8
BITMAP
0FFC00
0FFC00
000000
000000
00C000
00C000
000000
000000
0FFC00
0FFC00
300300
300300
300300
300300
300300
300300
300300
300300
300300
300300
300300
300300
300300
300300
300300
300300
0FFC00
0FFC00
000000
000000
000000
000000
000000
000000
000000
000000
ENDCHAR
STARTCHAR uni0231
ENCODING 561
SWIDTH 1080 0
DWIDTH 18 0
BBX 18 36 0 -8
BITMAP
000000
000000
000000
000000
0FFC00
0FFC00
000000
000000
00C000
00C000
00C000
00C000
000000
000000
0FFC00
0FFC00
300300
300300
300300
300300
300300
300300
300300
300300
300300
300300
0FFC00
0FFC00
000000
000000
000000
000000
000000
000000
000000
000000
ENDCHAR
STARTCHAR uni0232
ENCODING 562
SWIDTH 1080 0
DWIDTH 18 0
BBX 18 36 0 -8
BITMAP
000000
000000
000000
000000
0FFC00
0FFC00
000000
000000
300300
300300
300300
300300
0C0C00
0C0C00
033000
033000
00C000
00C000
00C000
00C000
00C000
00C000
00C000
00C000
00C000
00C000
00C000
00C000
000000
000000
000000
000000
000000
000000
000000
000000
ENDCHAR
STARTCHAR uni0233
ENCODING 563
SWIDTH 1080 0
DWIDTH 18 0
BBX 18 36 0 -8
BITMAP
000000
000000
000000
000000
000000
000000
000000
000000
000000
000000
03FF00
03FF00
000000
000000
0C0300
0C0300
0C0300
0C0300
030C00
030C00
030C00
030C00
030C00
030C00
00F000
00F000
00F000
00F000
00C000
00C000
30C000
30C000
0F0000
0F0000
000000
000000
ENDCHAR
STARTCHAR uni0250
ENCODING 592
SWIDTH 1080 0
DWIDTH 18 0
BBX 18 36 0 -8
BITMAP
000000
000000
000000
000000
000000
000000
000000
000000
000000
000000
000000
000000
000000
000000
33FC00
33FC00
3C0300
3C0300
300300
300300
3FFC00
3FFC00
300000
300000
300000
300000
0FFC00
0FFC00
000000
000000
000000
000000
000000
000000
000000
000000
ENDCHAR
STARTCHAR uni0251
ENCODING 593
SWIDTH 1080 0
DWIDTH 18 0
BBX 18 36 0 -8
BITMAP
000000
000000
000000
000000
000000
000000
000000
000000
000000
000000
000000
000000
000000
000000
0FF300
0FF300
300F00
300F00
300300
300300
300300
300300
300300
300300
300F00
300F00
0FF300
0FF300
000000
000000
000000
000000
000000
000000
000000
000000
ENDCHAR
STARTCHAR uni0252
ENCODING 594
SWIDTH 1080 0
DWIDTH 18 0
BBX 18 36 0 -8
BITMAP
000000
000000
000000
000000
000000
000000
000000
000000
000000
000000
000000
000000
000000
000000
33FC00
33FC00
3C0300
3C0300
300300
300300
300300
300300
300300
300300
3C0300
3C0300
33FC00
33FC00
000000
000000
000000
000000
000000
000000
000000
000000
ENDCHAR
STARTCHAR uni0253
ENCODING 595
SWIDTH 1080 0
DWIDTH 18 0
BBX 18 36 0 -8
BITMAP
000000
000000
000000
000000
000000
000000
0FF000
0FF000
300C00
300C00
300000
300000
300000
300000
33F000
33F000
3C0C00
3C0C00
300300
300300
300300
300300
300300
300300
3C0C00
3C0C00
33F000
33F000
000000
000000
000000
000000
000000
000000
000000
000000
ENDCHAR
STARTCHAR uni0254
ENCODING 596
SWIDTH 1080 0
DWIDTH 18 0
BBX 18 36 0 -8
BITMAP
000000
000000
000000
000000
000000
000000
000000
000000
000000
000000
000000
000000
000000
000000
0FFC00
0FFC00
300300
300300
000300
000300
000300
000300
000300
000300
300300
300300
0FFC00
0FFC00
000000
000000
000000
000000
000000
000000
000000
000000
ENDCHAR
STARTCHAR uni0255
ENCODING 597
SWIDTH 1080 0
DWIDTH 18 0
BBX 18 36 0 -8
BITMAP
000000
000000
000000
000000
000000
000000
000000
000000
000000
000000
000000
000000
000000
000000
0FFC00
0FFC00
300300
300300
300000
300000
300000
300000
303C00
303C00
30C300
30C300
0FFC00
0FFC00
030000
030000
000000
000000
000000
000000
000000
000000
ENDCHAR
STARTCHAR uni0256
ENCODING 598
SWIDTH 1080 0
DWIDTH 18 0
BBX 18 36 0 -8
BITMAP
000000
000000
000000
000000
000000
000000
000000
000000
000C00
000C00
000C00
000C00
000C00
000C00
0FCC00
0FCC00
303C00
303C00
300C00
300C00
300C00
300C00
300C00
300C00
303C00
303C00
0FCC00
0FCC00
0003C0
0003C0
000000
000000
000000
000000
000000
000000
ENDCHAR
STARTCHAR uni0257
ENCODING 599
SWIDTH 1080 0
DWIDTH 18 0
BBX 18 36 0 -8
BITMAP
000000
000000
000000
000000
000000
000000
000000
000000
0003C0
0003C0
000C00
000C00
000C00
000C00
0FCC00
0FCC00
303C00
303C00
300C00
300C00
300C00
300C00
300C00
300C00
303C00
303C00
0FCC00
0FCC00
000000
000000
000000
000000
000000
000000
000000
000000
ENDCHAR
STARTCHAR uni0258
ENCODING 600
SWIDTH 1080 0
DWIDTH 18 0
BBX 18 36 0 -8
BITMAP
000000
000000
000000
000000
000000
000000
000000
000000
000000
000000
000000
000000
000000
000000
0FFC00
0FFC00
300300
300300
300300
300300
3FFF00
3FFF00
000300
000300
300300
300300
0FFC00
0FFC00
000000
000000
000000
000000
000000
000000
000000
000000
ENDCHAR
STARTCHAR uni0259
ENCODING 601
SWIDTH 1080 0
DWIDTH 18 0
BBX 18 36 0 -8
BITMAP
000000
000000
000000
000000
000000
000000
000000
000000
000000
000000
000000
000000
000000
000000
0FFC00
0FFC00
300300
300300
000300
000300
3FFF00
3FFF00
300300
300300
300300
300300
0FFC00
0FFC00
000000
000000
000000
000000
000000
000000
000000
000000
ENDCHAR
STARTCHAR uni025A
ENCODING 602
SWIDTH 1080 0
DWIDTH 18 0
BBX 18 36 0 -8
BITMAP
000000
000000
000000
000000
000000
000000
000000
000000
000000
000000
000000
000000
000000
000000
0FF000
0FF000
300F00
300F00
000CC0
000CC0
3FFC00
3FFC00
300C00
300C00
300C00
300C00
0FF000
0FF000
000000
000000
000000
000000
000000
000000
000000
000000
ENDCHAR
STARTCHAR uni025B
ENCODING 603
SWIDTH 1080 0
DWIDTH 18 0
BBX 18 36 0 -8
BITMAP
000000
000000
000000
000000
000000
000000
000000
000000
000000
000000
000000
000000
000000
000000
0FFC00
0FFC00
300300
300300
300000
300000
0FF000
0FF000
300000
300000
300300
300300
0FFC00
0FFC00
000000
000000
000000
000000
000000
000000
000000
000000
ENDCHAR
STARTCHAR uni025C
ENCODING 604
SWIDTH 1080 0
DWIDTH 18 0
BBX 18 36 0 -8
BITMAP
000000
000000
000000
000000
000000
000000
000000
000000
000000
000000
000000
000000
000000
000000
0FFC00
0FFC00
300300
300300
000300
000300
03FC00
03FC00
000300
000300
300300
300300
0FFC00
0FFC00
000000
000000
000000
000000
000000
000000
000000
000000
ENDCHAR
STARTCHAR uni025D
ENCODING 605
SWIDTH 1080 0
DWIDTH 18 0
BBX 18 36 0 -8
BITMAP
000000
000000
000000
000000
000000
000000
000000
000000
000000
000000
000000
000000
000000
000000
0FF000
0FF000
300F00
300F00
000CC0
000CC0
03F000
03F000
000C00
000C00
300C00
300C00
0FF000
0FF000
000000
000000
000000
000000
000000
000000
000000
000000
ENDCHAR
STARTCHAR uni025E
ENCODING 606
SWIDTH 1080 0
DWIDTH 18 0
BBX 18 36 0 -8
BITMAP
000000
000000
000000
000000
000000
000000
000000
000000
000000
000000
000000
000000
000000
000000
0FFC00
0FFC00
300300
300300
300300
300300
33FC00
33FC00
300300
300300
300300
300300
0FFC00
0FFC00
000000
000000
000000
000000
000000
000000
000000
000000
ENDCHAR
STARTCHAR uni025F
ENCODING 607
SWIDTH 1080 0
DWIDTH 18 0
BBX 18 36 0 -8
BITMAP
000000
000000
000000
000000
000000
000000
000000
000000
000000
000000
000000
000000
000000
000000
003000
003000
003000
003000
003000
003000
003000
003000
03FF00
03FF00
003000
003000
003000
003000
303000
303000
303000
303000
0FC000
0FC000
000000
000000
ENDCHAR
STARTCHAR uni0260
ENCODING 608
SWIDTH 1080 0
DWIDTH 18 0
BBX 18 36 0 -8
BITMAP
000000
000000
000000
000000
000000
000000
000000
000000
000300
000300
000C00
000C00
000C00
000C00
0FFC00
0FFC00
300C00
300C00
300C00
300C00
300C00
300C00
300C00
300C00
303C00
303C00
0FCC00
0FCC00
000C00
000C00
300C00
300C00
0FF000
0FF000
000000
000000
ENDCHAR
STARTCHAR uni0261
ENCODING 609
SWIDTH 1080 0
DWIDTH 18 0
BBX 18 36 0 -8
BITMAP
000000
000000
000000
000000
000000
000000
000000
000000
000000
000000
000000
000000
000000
000000
0FF000
0FF000
300C00
300C00
300C00
300C00
300C00
300C00
300C00
300C00
303C00
303C00
0FCC00
0FCC00
000C00
000C00
300C00
300C00
0FF000
0FF000
000000
000000
ENDCHAR
STARTCHAR uni0262
ENCODING 610
SWIDTH 1080 0
DWIDTH 18 0
BBX 18 36 0 -8
BITMAP
000000
000000
000000
000000
000000
000000
000000
000000
000000
000000
000000
000000
000000
000000
0FFC00
0FFC00
300300
300300
300000
300000
303F00
303F00
300300
300300
300300
300300
0FFC00
0FFC00
000000
000000
000000
000000
000000
000000
000000
000000
ENDCHAR
STARTCHAR uni0263
ENCODING 611
SWIDTH 1080 0
DWIDTH 18 0
BBX 18 36 0 -8
BITMAP
000000
000000
000000
000000
000000
000000
000000
000000
000000
000000
000000
000000
000000
000000
300300
300300
300300
300300
0C0C00
0C0C00
033000
033000
033000
033000
00C000
00C000
00C000
00C000
033000
033000
00C000
00C000
000000
000000
000000
000000
ENDCHAR
STARTCHAR uni0264
ENCODING 612
SWIDTH 1080 0
DWIDTH 18 0
BBX 18 36 0 -8
BITMAP
000000
000000
000000
000000
000000
000000
000000
000000
000000
000000
000000
000000
000000
000000
0C0C00
0C0C00
333300
333300
033000
033000
00C000
00C000
033000
033000
033000
033000
00C000
00C000
000000
000000
000000
000000
000000
000000
000000
000000
ENDCHAR
STARTCHAR uni0265
ENCODING 613
SWIDTH 1080 0
DWIDTH 18 0
BBX 18 36 0 -8
BITMAP
000000
000000
000000
000000
000000
000000
000000
000000
000000
000000
000000
000000
000000
000000
300300
300300
300300
300300
300300
300300
300300
300300
300300
300300
0C0F00
0C0F00
03F300
03F300
000300
000300
000300
000300
000300
000300
000000
000000
ENDCHAR
STARTCHAR uni0266
ENCODING 614
SWIDTH 1080 0
DWIDTH 18 0
BBX 18 36 0 -8
BITMAP
000000
000000
000000
000000
000000
000000
0FF000
0FF000
300C00
300C00
300000
300000
300000
300000
33F000
33F000
3C0C00
3C0C00
300300
300300
300300
300300
300300
300300
300300
300300
300300
300300
000000
000000
000000
000000
000000
000000
000000
000000
ENDCHAR
STARTCHAR uni0267
ENCODING 615
SWIDTH 1080 0
DWIDTH 18 0
BBX 18 36 0 -8
BITMAP
000000
000000
000000
000000
000000
000000
0FF000
0FF000
300C00
300C00
300000
300000
300000
300000
33F000
33F000
3C0C00
3C0C00
300300
300300
300300
300300
300300
300300
300300
300300
300300
300300
000300
000300
030300
030300
00FC00
00FC00
000000
000000
ENDCHAR
STARTCHAR uni0268
ENCODING 616
SWIDTH 1080 0
DWIDTH 18 0
BBX 18 36 0 -8
BITMAP
000000
000000
000000
000000
000000
000000
000000
000000
03C000
03C000
000000
000000
000000
000000
0FC000
0FC000
00C000
00C000
00C000
00C000
03F000
03F000
00C000
00C000
00C000
00C000
0FFC00
0FFC00
000000
000000
000000
000000
000000
000000
000000
000000
ENDCHAR
STARTCHAR uni0269
ENCODING 617
SWIDTH 1080 0
DWIDTH 18 0
BBX 18 36 0 -8
BITMAP
000000
000000
000000
000000
000000
000000
000000
000000
000000
000000
000000
000000
000000
000000
03C000
03C000
00C000
00C000
00C000
00C000
00C000
00C000
00C000
00C000
00CC00
00CC00
003000
003000
000000
000000
000000
000000
000000
000000
000000
000000
ENDCHAR
STARTCHAR uni026A
ENCODING 618
SWIDTH 1080 0
DWIDTH 18 0
BBX 18 36 0 -8
BITMAP
000000
000000
000000
000000
000000
000000
000000
000000
000000
000000
000000
000000
000000
000000
0FFC00
0FFC00
00C000
00C000
00C000
00C000
00C000
00C000
00C000
00C000
00C000
00C000
0FFC00
0FFC00
000000
000000
000000
000000
000000
000000
000000
000000
ENDCHAR
STARTCHAR uni026B
ENCODING 619
SWIDTH 1080 0
DWIDTH 18 0
BBX 18 36 0 -8
BITMAP
000000
000000
000000
000000
000000
000000
000000
000000
0FC000
0FC000
00C000
00C000
00C000
00C000
00C000
00C000
03CC00
03CC00
0CF000
0CF000
00C000
00C000
00C000
00C000
00C000
00C000
0FFC00
0FFC00
000000
000000
000000
000000
000000
000000
000000
000000
ENDCHAR
STARTCHAR uni026C
ENCODING 620
SWIDTH 1080 0
DWIDTH 18 0
BBX 18 36 0 -8
BITMAP
000000
000000
000000
000000
000000
000000
000000
000000
0FC000
0FC000
00C000
00C000
00C000
00C000
03C000
03C000
0CC000
0CC000
03FC00
03FC00
00C000
00C000
00C000
00C000
00C000
00C000
0FFC00
0FFC00
000000
000000
000000
000000
000000
000000
000000
000000
ENDCHAR
STARTCHAR uni026D
ENCODING 621
SWIDTH 1080 0
DWIDTH 18 0
BBX 18 36 0 -8
BITMAP
000000
000000
000000
000000
000000
000000
000000
000000
0FC000
0FC000
00C000
00C000
00C000
00C000
00C000
00C000
00C000
00C000
00C000
00C000
00C000
00C000
00C000
00C000
00C000
00C000
00C000
00C000
00C300
00C300
003C00
003C00
000000
000000
000000
000000
ENDCHAR
STARTCHAR uni026E
ENCODING 622
SWIDTH 1080 0
DWIDTH 18 0
BBX 18 36 0 -8
BITMAP
000000
000000
000000
000000
000000
000000
000000
000000
3C0000
3C0000
0C0000
0C0000
0C0000
0C0000
0CFF00
0CFF00
0C0300
0C0300
0C0C00
0C0C00
0C3C00
0C3C00
0C0300
0C0300
0C0300
0C0300
3F0300
3F0300
00FC00
00FC00
000000
000000
000000
000000
000000
000000
ENDCHAR
STARTCHAR uni026F
ENCODING 623
SWIDTH 1080 0
DWIDTH 18 0
BBX 18 36 0 -8
BITMAP
000000
000000
000000
000000
000000
000000
000000
000000
000000
000000
000000
000000
000000
000000
300300
300300
30C300
30C300
30C300
30C300
30C300
30C300
30C300
30C300
30C300
30C300
0F3F00
0F3F00
000000
000000
000000
000000
000000
000000
000000
000000
ENDCHAR
STARTCHAR uni0270
ENCODING 624
SWIDTH 1080 0
DWIDTH 18 0
BBX 18 36 0 -8
BITMAP
000000
000000
000000
000000
000000
000000
000000
000000
000000
000000
000000
000000
000000
000000
300300
300300
30C300
30C300
30C300
30C300
30C300
30C300
30C300
30C300
30C300
30C300
0F3F00
0F3F00
000300
000300
000300
000300
000000
000000
000000
000000
ENDCHAR
STARTCHAR uni0271
ENCODING 625
SWIDTH 1080 0
DWIDTH 18 0
BBX 18 36 0 -8
BITMAP
000000
000000
000000
000000
000000
000000
000000
000000
000000
000000
000000
000000
000000
000000
3F3C00
3F3C00
30C300
30C300
30C300
30C300
30C300
30C300
30C300
30C300
30C300
30C300
300300
300300
000300
000300
030300
030300
00FC00
00FC00
000000
000000
ENDCHAR
STARTCHAR uni0272
ENCODING 626
SWIDTH 1080 0
DWIDTH 18 0
BBX 18 36 0 -8
BITMAP
000000
000000
000000
000000
000000
000000
000000
000000
000000
000000
000000
000000
000000
000000
0CFC00
0CFC00
0F0300
0F0300
0C0300
0C0300
0C0300
0C0300
0C0300
0C0300
0C0300
0C0300
0C0300
0C0300
0C0000
0C0000
0C0000
0C0000
F00000
F00000
000000
000000
ENDCHAR
STARTCHAR uni0273
ENCODING 627
SWIDTH 1080 0
DWIDTH 18 0
BBX 18 36 0 -8
BITMAP
000000
000000
000000
000000
000000
000000
000000
000000
000000
000000
000000
000000
000000
000000
33F000
33F000
3C0C00
3C0C00
300C00
300C00
300C00
300C00
300C00
300C00
300C00
300C00
300C00
300C00
000C00
000C00
000C00
000C00
0003C0
0003C0
000000
000000
ENDCHAR
STARTCHAR uni0274
ENCODING 628
SWIDTH 1080 0
DWIDTH 18 0
BBX 18 36 0 -8
BITMAP
000000
000000
000000
000000
000000
000000
000000
000000
000000
000000
000000
000000
000000
000000
300300
300300
3C0300
3C0300
330300
330300
30C300
30C300
303300
303300
300F00
300F00
300300
300300
000000
000000
000000
000000
000000
000000
000000
000000
ENDCHAR
STARTCHAR uni0275
ENCODING 629
SWIDTH 1080 0
DWIDTH 18 0
BBX 18 36 0 -8
BITMAP
000000
000000
000000
000000
000000
000000
000000
000000
000000
000000
000000
000000
000000
000000
0FFC00
0FFC00
300300
300300
300300
300300
3FFF00
3FFF00
300300
300300
300300
300300
0FFC00
0FFC00
000000
000000
000000
000000
000000
000000
000000
000000
ENDCHAR
STARTCHAR uni0276
ENCODING 630
SWIDTH 1080 0
DWIDTH 18 0
BBX 18 36 0 -8
BITMAP
000000
000000
000000
000000
000000
000000
000000
000000
000000
000000
000000
000000
000000
000000
0FFF00
0FFF00
30C000
30C000
30C000
30C000
30FC00
30FC00
30C000
30C000
30C000
30C000
0FFF00
0FFF00
000000
000000
000000
000000
000000
000000
000000
000000
ENDCHAR
STARTCHAR uni0277
ENCODING 631
SWIDTH 1080 0
DWIDTH 18 0
BBX 18 36 0 -8
BITMAP
000000
000000
000000
000000
000000
000000
000000
000000
000000
000000
000000
000000
0FFC00
0FFC00
300300
300300
30C300
30C300
30C300
30C300
30C300
30C300
30C300
30C300
30C300
30C300
0F3C00
0F3C00
000000
000000
000000
000000
000000
000000
000000
000000
ENDCHAR
STARTCHAR uni0278
ENCODING 632
SWIDTH 1080 0
DWIDTH 18 0
BBX 18 36 0 -8
BITMAP
000000
000000
000000
000000
000000
000000
000000
000000
00C000
00C000
00C000
00C000
00C000
00C000
0FFC00
0FFC00
30C300
30C300
30C300
30C300
30C300
30C300
30C300
30C300
0FFC00
0FFC00
00C000
00C000
00C000
00C000
00C000
00C000
000000
000000
000000
000000
ENDCHAR
STARTCHAR uni0279
ENCODING 633
SWIDTH 1080 0
DWIDTH 18 0
BBX 18 36 0 -8
BITMAP
000000
000000
000000
000000
000000
000000
000000
000000
000000
000000
000000
000000
000000
000000
000C00
000C00
000C00
000C00
000C00
000C00
000C00
000C00
300C00
300C00
303C00
303C00
0FC300
0FC300
000000
000000
000000
000000
000000
000000
000000
000000
ENDCHAR
STARTCHAR uni027A
ENCODING 634
SWIDTH 1080 0
DWIDTH 18 0
BBX 18 36 0 -8
BITMAP
000000
000000
000000
000000
000000
000000
000000
000000
000C00
000C00
000C00
000C00
000C00
000C00
000C00
000C00
000C00
000C00
000C00
000C00
000C00
000C00
300C00
300C00
303C00
303C00
0FC300
0FC300
000000
000000
000000
000000
000000
000000
000000
000000
ENDCHAR
STARTCHAR uni027B
ENCODING 635
SWIDTH 1080 0
DWIDTH 18 0
BBX 18 36 0 -8
BITMAP
000000
000000
000000
000000
000000
000000
000000
000000
000000
000000
000000
000000
000000
000000
000C00
000C00
000C00
000C00
000C00
000C00
000C00
000C00
300C00
300C00
303C00
303C00
0FCC00
0FCC00
000C00
000C00
0003C0
0003C0
000000
000000
000000
000000
ENDCHAR
STARTCHAR uni027C
ENCODING 636
SWIDTH 1080 0
DWIDTH 18 0
BBX 18 36 0 -8
BITMAP
000000
000000
000000
000000
000000
000000
000000
000000
000000
000000
000000
000000
000000
000000
30FC00
30FC00
0F0300
0F0300
0C0300
0C0300
0C0000
0C0000
0C0000
0C0000
0C0000
0C0000
0C0000
0C0000
0C0000
0C0000
0C0000
0C0000
0C0000
0C0000
000000
000000
ENDCHAR
STARTCHAR uni027D
ENCODING 637
SWIDTH 1080 0
DWIDTH 18 0
BBX 18 36 0 -8
BITMAP
000000
000000
000000
000000
000000
000000
000000
000000
000000
000000
000000
000000
000000
000000
30FC00
30FC00
0F0300
0F0300
0C0300
0C0300
0C0000
0C0000
0C0000
0C0000
0C0000
0C0000
0C0000
0C0000
0C3000
0C3000
03C000
03C000
000000
000000
000000
000000
ENDCHAR
STARTCHAR uni027E
ENCODING 638
SWIDTH 1080 0
DWIDTH 18 0
BBX 18 36 0 -8
BITMAP
000000
000000
000000
000000
000000
000000
000000
000000
000000
000000
000000
000000
000000
000000
00FC00
00FC00
030300
030300
0C0300
0C0300
0C0000
0C0000
0C0000
0C0000
0C0000
0C0000
0C0000
0C0000
000000
000000
000000
000000
000000
000000
000000
000000
ENDCHAR
STARTCHAR uni027F
ENCODING 639
SWIDTH 1080 0
DWIDTH 18 0
BBX 18 36 0 -8
BITMAP
000000
000000
000000
000000
000000
000000
000000
000000
000000
000000
000000
000000
000000
000000
03F000
03F000
0C0C00
0C0C00
0C0300
0C0300
000300
000300
000300
000300
000300
000300
000300
000300
000000
000000
000000
000000
000000
000000
000000
000000
ENDCHAR
STARTCHAR uni0280
ENCODING 640
SWIDTH 1080 0
DWIDTH 18 0
BBX 18 36 0 -8
BITMAP
000000
000000
000000
000000
000000
000000
000000
000000
000000
000000
000000
000000
000000
000000
3FFC00
3FFC00
300300
300300
300300
300300
3FFC00
3FFC00
300300
300300
300300
300300
300300
300300
000000
000000
000000
000000
000000
000000
000000
000000
ENDCHAR
STARTCHAR uni0281
ENCODING 641
SWIDTH 1080 0
DWIDTH 18 0
BBX 18 36 0 -8
BITMAP
000000
000000
000000
000000
000000
000000
000000
000000
000000
000000
000000
000000
000000
000000
300300
300300
300300
300300
300300
300300
3FFC00
3FFC00
300300
300300
300300
300300
3FFC00
3FFC00
000000
000000
000000
000000
000000
000000
000000
000000
ENDCHAR
STARTCHAR uni0282
ENCODING 642
SWIDTH 1080 0
DWIDTH 18 0
BBX 18 36 0 -8
BITMAP
000000
000000
000000
000000
000000
000000
000000
000000
000000
000000
000000
000000
000000
000000
0FFC00
0FFC00
300300
300300
300000
300000
0FFC00
0FFC00
000300
000300
300300
300300
3FFC00
3FFC00
300000
300000
0FC000
0FC000
000000
000000
000000
000000
ENDCHAR
STARTCHAR uni0283
ENCODING 643
SWIDTH 1080 0
DWIDTH 18 0
BBX 18 36 0 -8
BITMAP
000000
000000
000000
000000
000000
000000
000000
000000
003C00
003C00
00C300
00C300
00C000
00C000
00C000
00C000
00C000
00C000
00C000
00C000
00C000
00C000
00C000
00C000
00C000
00C000
00C000
00C000
30C000
30C000
0F0000
0F0000
000000
000000
000000
000000
ENDCHAR
STARTCHAR uni0284
ENCODING 644
SWIDTH 1080 0
DWIDTH 18 0
BBX 18 36 0 -8
BITMAP
000000
000000
000000
000000
000000
000000
000000
000000
003C00
003C00
00C300
00C300
00C000
00C000
00C000
00C000
00C000
00C000
00C000
00C000
00C000
00C000
0FFC00
0FFC00
00C000
00C000
00C000
00C000
30C000
30C000
0F0000
0F0000
000000
000000
000000
000000
ENDCHAR
STARTCHAR uni0285
ENCODING 645
SWIDTH 1080 0
DWIDTH 18 0
BBX 18 36 0 -8
BITMAP
000000
000000
000000
000000
000000
000000
000000
000000
000000
000000
000000
000000
000000
000000
0F0000
0F0000
30C000
30C000
00C000
00C000
00C000
00C000
00C000
00C000
00C000
00C000
00C000
00C000
00C300
00C300
003C00
003C00
000000
000000
000000
000000
ENDCHAR
STARTCHAR uni0286
ENCODING 646
SWIDTH 1080 0
DWIDTH 18 0
BBX 18 36 0 -8
BITMAP
000000
000000
000000
000000
000000
000000
000000
000000
003C00
003C00
00C300
00C300
00C000
00C000
00C000
00C000
00C000
00C000
00C000
00C000
00C000
00C000
00C000
00C000
00C000
00C000
0FC000
0FC000
30F000
30F000
0F0C00
0F0C00
000000
000000
000000
000000
ENDCHAR
STARTCHAR uni0287
ENCODING 647
SWIDTH 1080 0
DWIDTH 18 0
BBX 18 36 0 -8
BITMAP
000000
000000
000000
000000
000000
000000
000000
000000
000000
000000
000000
000000
000000
000000
0FC000
0FC000
303000
303000
003000
003000
003000
003000
003000
003000
003000
003000
0FFF00
0FFF00
003000
003000
003000
003000
000000
000000
000000
000000
ENDCHAR
STARTCHAR uni0288
ENCODING 648
SWIDTH 1080 0
DWIDTH 18 0
BBX 18 36 0 -8
BITMAP
000000
000000
000000
000000
000000
000000
000000
000000
000000
000000
030000
030000
030000
030000
3FFC00
3FFC00
030000
030000
030000
030000
030000
030000
030000
030000
030000
030000
030000
030000
030C00
030C00
00F000
00F000
000000
000000
000000
000000
ENDCHAR
STARTCHAR uni0289
ENCODING 649
SWIDTH 1080 0
DWIDTH 18 0
BBX 18 36 0 -8
BITMAP
000000
000000
000000
000000
000000
000000
000000
000000
000000
000000
000000
000000
000000
000000
0C0C00
0C0C00
0C0C00
0C0C00
0C0C00
0C0C00
3FFF00
3FFF00
0C0C00
0C0C00
0C0C00
0C0C00
03F300
03F300
000000
000000
000000
000000
000000
000000
000000
000000
ENDCHAR
STARTCHAR uni028A
ENCODING 650
SWIDTH 1080 0
DWIDTH 18 0
BBX 18 36 0 -8
BITMAP
000000
000000
000000
000000
000000
000000
000000
000000
000000
000000
000000
000000
000000
000000
3F3F00
3F3F00
0C0C00
0C0C00
300300
300300
300300
300300
300300
300300
0C0C00
0C0C00
03F000
03F000
000000
000000
000000
000000
000000
000000
000000
000000
ENDCHAR
STARTCHAR uni028B
ENCODING 651
SWIDTH 1080 0
DWIDTH 18 0
BBX 18 36 0 -8
BITMAP
000000
000000
000000
000000
000000
000000
000000
000000
000000
000000
000000
000000
000000
000000
0C3000
0C3000
0C0C00
0C0C00
0C0300
0C0300
0C0300
0C0300
0C0300
0C0300
0C0C00
0C0C00
03F000
03F000
000000
000000
000000
000000
000000
000000
000000
000000
ENDCHAR
STARTCHAR uni028C
ENCODING 652
SWIDTH 1080 0
DWIDTH 18 0
BBX 18 36 0 -8
BITMAP
000000
000000
000000
000000
000000
000000
000000
000000
000000
000000
000000
000000
000000
000000
00C000
00C000
033000
033000
033000
033000
0C0C00
0C0C00
0C0C00
0C0C00
300300
300300
300300
300300
000000
000000
000000
000000
000000
000000
000000
000000
ENDCHAR
STARTCHAR uni028D
ENCODING 653
SWIDTH 1080 0
DWIDTH 18 0
BBX 18 36 0 -8
BITMAP
000000
000000
000000
000000
000000
000000
000000
000000
000000
000000
000000
000000
000000
000000
0C0C00
0C0C00
333300
333300
30C300
30C300
30C300
30C300
30C300
30C300
300300
300300
300300
300300
000000
000000
000000
000000
000000
000000
000000
000000
ENDCHAR
STARTCHAR uni028E
ENCODING 654
SWIDTH 1080 0
DWIDTH 18 0
BBX 18 36 0 -8
BITMAP
000000
000000
000000
000000
000000
000000
000000
000000
003C00
003C00
00C300
00C300
00C000
00C000
03C000
03C000
03C000
03C000
0C3000
0C3000
0C3000
0C3000
0C3000
0C3000
300C00
300C00
300C00
300C00
000000
000000
000000
000000
000000
000000
000000
000000
ENDCHAR
STARTCHAR uni028F
ENCODING 655
SWIDTH 1080 0
DWIDTH 18 0
BBX 18 36 0 -8
BITMAP
000000
000000
000000
000000
000000
000000
000000
000000
000000
000000
000000
000000
000000
000000
300300
300300
0C0C00
0C0C00
033000
033000
00C000
00C000
00C000
00C000
00C000
00C000
00C000
00C000
000000
000000
000000
000000
000000
000000
000000
000000
ENDCHAR
STARTCHAR uni0290
ENCODING 656
SWIDTH 1080 0
DWIDTH 18 0
BBX 18 36 0 -8
BITMAP
000000
000000
000000
000000
000000
000000
000000
000000
000000
000000
000000
000000
000000
000000
3FFF00
3FFF00
000C00
000C00
003000
003000
00C000
00C000
030000
030000
0C0000
0C0000
3FFC00
3FFC00
003000
003000
000F00
000F00
000000
000000
000000
000000
ENDCHAR
STARTCHAR uni0291
ENCODING 657
SWIDTH 1080 0
DWIDTH 18 0
BBX 18 36 0 -8
BITMAP
000000
000000
000000
000000
000000
000000
000000
000000
000000
000000
000000
000000
000000
000000
3FFF00
3FFF00
000C00
000C00
003000
003000
00C000
00C000
030C00
030C00
0C3300
0C3300
3FFC00
3FFC00
00C000
00C000
030000
030000
000000
000000
000000
000000
ENDCHAR
STARTCHAR uni0292
ENCODING 658
SWIDTH 1080 0
DWIDTH 18 0
BBX 18 36 0 -8
BITMAP
000000
000000
000000
000000
000000
000000
000000
000000
000000
000000
000000
000000
000000
000000
3FFC00
3FFC00
003000
003000
00C000
00C000
030000
030000
0FC000
0FC000
003000
003000
000C00
000C00
000C00
000C00
303000
303000
0FC000
0FC000
000000
000000
ENDCHAR
STARTCHAR uni0293
ENCODING 659
SWIDTH 1080 0
DWIDTH 18 0
BBX 18 36 0 -8
BITMAP
000000
000000
000000
000000
000000
000000
000000
000000
000000
000000
000000
000000
000000
000000
0FFF00
0FFF00
000C00
000C00
003000
003000
00C000
00C000
03F000
03F000
000C00
000C00
030300
030300
0CF300
0CF300
0C0C00
0C0C00
03F300
03F300
000000
000000
ENDCHAR
STARTCHAR uni0294
ENCODING 660
SWIDTH 1080 0
DWIDTH 18 0
BBX 18 36 0 -8
BITMAP
000000
000000
000000
000000
000000
000000
000000
000000
03F000
03F000
0C0C00
0C0C00
0C0C00
0C0C00
000C00
000C00
000C00
000C00
00F000
00F000
00C000
00C000
00C000
00C000
00C000
00C000
00C000
00C000
000000
000000
000000
000000
000000
000000
000000
000000
ENDCHAR
STARTCHAR uni0295
ENCODING 661
SWIDTH 1080 0
DWIDTH 18 0
BBX 18 36 0 -8
BITMAP
000000
000000
000000
000000
000000
000000
000000
000000
03F000
03F000
0C0C00
0C0C00
0C0C00
0C0C00
0C0000
0C0000
0C0000
0C0000
03C000
03C000
00C000
00C000
00C000
00C000
00C000
00C000
00C000
00C000
000000
000000
000000
000000
000000
000000
000000
000000
ENDCHAR
STARTCHAR uni0296
ENCODING 662
SWIDTH 1080 0
DWIDTH 18 0
BBX 18 36 0 -8
BITMAP
000000
000000
000000
000000
000000
000000
000000
000000
00C000
00C000
00C000
00C000
00C000
00C000
00C000
00C000
00F000
00F000
000C00
000C00
000C00
000C00
0C0C00
0C0C00
0C0C00
0C0C00
03F000
03F000
000000
000000
000000
000000
000000
000000
000000
000000
ENDCHAR
STARTCHAR uni0297
ENCODING 663
SWIDTH 1080 0
DWIDTH 18 0
BBX 18 36 0 -8
BITMAP
000000
000000
000000
000000
000000
000000
000000
000000
000000
000000
0FF000
0FF000
300C00
300C00
300000
300000
300000
300000
300000
300000
300000
300000
300000
300000
300000
300000
300000
300000
300C00
300C00
0FF000
0FF000
000000
000000
000000
000000
ENDCHAR
STARTCHAR uni0298
ENCODING 664
SWIDTH 1080 0
DWIDTH 18 0
BBX 18 36 0 -8
BITMAP
000000
000000
000000
000000
000000
000000
000000
000000
000000
000000
000000
000000
000000
000000
0FFC00
0FFC00
300300
300300
300300
300300
30C300
30C300
300300
300300
300300
300300
0FFC00
0FFC00
000000
000000
000000
000000
000000
000000
000000
000000
ENDCHAR
STARTCHAR uni0299
ENCODING 665
SWIDTH 1080 0
DWIDTH 18 0
BBX 18 36 0 -8
BITMAP
000000
000000
000000
000000
000000
000000
000000
000000
000000
000000
000000
000000
000000
000000
0FFC00
0FFC00
0C0300
0C0300
0C0300
0C0300
0FFC00
0FFC00
0C0300
0C0300
0C0300
0C0300
0FFC00
0FFC00
000000
000000
000000
000000
000000
000000
000000
000000
ENDCHAR
STARTCHAR uni029A
ENCODING 666
SWIDTH 1080 0
DWIDTH 18 0
BBX 18 36 0 -8
BITMAP
000000
000000
000000
000000
000000
000000
000000
000000
000000
000000
000000
000000
000000
000000
0FF000
0FF000
300C00
300C00
300300
300300
0FC300
0FC300
300300
300300
300C00
300C00
0FF000
0FF000
000000
000000
000000
000000
000000
000000
000000
000000
ENDCHAR
STARTCHAR uni029B
ENCODING 667
SWIDTH 1080 0
DWIDTH 18 0
BBX 18 36 0 -8
BITMAP
000000
000000
000000
000000
000000
000000
000000
000000
000000
000000
000300
000300
000C00
000C00
0FFC00
0FFC00
300300
300300
300000
300000
303F00
303F00
300300
300300
300300
300300
0FFC00
0FFC00
000000
000000
000000
000000
000000
000000
000000
000000
ENDCHAR
STARTCHAR uni029C
ENCODING 668
SWIDTH 1080 0
DWIDTH 18 0
BBX 18 36 0 -8
BITMAP
000000
000000
000000
000000
000000
000000
000000
000000
000000
000000
000000
000000
000000
000000
300300
300300
300300
300300
300300
300300
3FFF00
3FFF00
300300
300300
300300
300300
300300
300300
000000
000000
000000
000000
000000
000000
000000
000000
ENDCHAR
STARTCHAR uni029D
ENCODING 669
SWIDTH 1080 0
DWIDTH 18 0
BBX 18 36 0 -8
BITMAP
000000
000000
000000
000000
000000
000000
000000
000000
00F000
00F000
000000
000000
000000
000000
03F000
03F000
003000
003000
003000
003000
003000
003000
003000
003000
003000
003000
0FF000
0FF000
303C00
303C00
303300
303300
0FC000
0FC000
000000
000000
ENDCHAR
STARTCHAR uni029E
ENCODING 670
SWIDTH 1080 0
DWIDTH 18 0
BBX 18 36 0 -8
BITMAP
000000
000000
000000
000000
000000
000000
000000
000000
000000
000000
000000
000000
000000
000000
300300
300300
0F0300
0F0300
00F300
00F300
000F00
000F00
00F300
00F300
0F0300
0F0300
300300
300300
000300
000300
000300
000300
000300
000300
000000
000000
ENDCHAR
STARTCHAR uni029F
ENCODING 671
SWIDTH 1080 0
DWIDTH 18 0
BBX 18 36 0 -8
BITMAP
000000
000000
000000
000000
000000
000000
000000
000000
000000
000000
000000
000000
000000
000000
300000
300000
300000
300000
300000
300000
300000
300000
300000
300000
300000
300000
3FFC00
3FFC00
000000
000000
000000
000000
000000
000000
000000
000000
ENDCHAR
STARTCHAR uni02A0
ENCODING 672
SWIDTH 1080 0
DWIDTH 18 0
BBX 18 36 0 -8
BITMAP
000000
000000
000000
000000
000000
000000
000000
000000
0003C0
0003C0
000C00
000C00
000C00
000C00
0FCC00
0FCC00
303C00
303C00
300C00
300C00
300C00
300C00
300C00
300C00
303C00
303C00
0FCC00
0FCC00
000C00
000C00
000C00
000C00
000C00
000C00
000000
000000
ENDCHAR
STARTCHAR uni02A1
ENCODING 673
SWIDTH 1080 0
DWIDTH 18 0
BBX 18 36 0 -8
BITMAP
000000
000000
000000
000000
000000
000000
000000
000000
03F000
03F000
0C0C00
0C0C00
0C0C00
0C0C00
000C00
000C00
000C00
000C00
00F000
00F000
00C000
00C000
0FFC00
0FFC00
00C000
00C000
00C000
00C000
000000
000000
000000
000000
000000
000000
000000
000000
ENDCHAR
STARTCHAR uni02A2
ENCODING 674
SWIDTH 1080 0
DWIDTH 18 0
BBX 18 36 0 -8
BITMAP
000000
000000
000000
000000
000000
000000
000000
000000
03F000
03F000
0C0C00
0C0C00
0C0C00
0C0C00
0C0000
0C0000
0C0000
0C0000
03C000
03C000
00C000
00C000
0FFC00
0FFC00
00C000
00C000
00C000
00C000
000000
000000
000000
000000
000000
000000
000000
000000
ENDCHAR
STARTCHAR uni02A3
ENCODING 675
SWIDTH 1080 0
DWIDTH 18 0
BBX 18 36 0 -8
BITMAP
000000
000000
000000
000000
000000
000000
000000
000000
00C000
00C000
00C000
00C000
00C000
00C000
0CFFC0
0CFFC0
33C0C0
33C0C0
30C300
30C300
30CC00
30CC00
30F000
30F000
33F000
33F000
0CFFC0
0CFFC0
000000
000000
000000
000000
000000
000000
000000
000000
ENDCHAR
STARTCHAR uni02A4
ENCODING 676
SWIDTH 1080 0
DWIDTH 18 0
BBX 18 36 0 -8
BITMAP
000000
000000
000000
000000
000000
000000
000000
000000
030000
030000
030000
030000
030000
030000
33FF00
33FF00
CF0300
CF0300
C30C00
C30C00
C33C00
C33C00
C30300
C30300
CF0300
CF0300
330300
330300
00C300
00C300
003C00
003C00
000000
000000
000000
000000
ENDCHAR
STARTCHAR uni02A5
ENCODING 677
SWIDTH 1080 0
DWIDTH 18 0
BBX 18 36 0 -8
BITMAP
000000
000000
000000
000000
000000
000000
000000
000000
030000
030000
030000
030000
030000
030000
33FF00
33FF00
CF0300
CF0300
C30C00
C30C00
C33000
C33000
C33000
C33000
CFCF00
CFCF00
33FC00
33FC00
00C000
00C000
030000
030000
000000
000000
000000
000000
ENDCHAR
STARTCHAR uni02A6
ENCODING 678
SWIDTH 1080 0
DWIDTH 18 0
BBX 18 36 0 -8
BITMAP
000000
000000
000000
000000
000000
000000
000000
000000
000000
000000
0C0000
0C0000
0C0000
0C0000
3F3F00
3F3F00
0CC000
0CC000
0CC000
0CC000
0C3C00
0C3C00
0C0300
0C0300
0C0300
0C0300
03FC00
03FC00
000000
000000
000000
000000
000000
000000
000000
000000
ENDCHAR
STARTCHAR uni02A7
ENCODING 679
SWIDTH 1080 0
DWIDTH 18 0
BBX 18 36 0 -8
BITMAP
000000
000000
000000
000000
000000
000000
000000
000000
000C00
000C00
0C3300
0C3300
0C3000
0C3000
3F3000
3F3000
0C3000
0C3000
0C3000
0C3000
0C3000
0C3000
0C3000
0C3000
0C3000
0C3000
033000
033000
003000
003000
03C000
03C000
000000
000000
000000
000000
ENDCHAR
STARTCHAR uni02A8
ENCODING 680
SWIDTH 1080 0
DWIDTH 18 0
BBX 18 36 0 -8
BITMAP
000000
000000
000000
000000
000000
000000
000000
000000
000000
000000
0C0000
0C0000
0C0000
0C0000
3F3F00
3F3F00
0CC000
0CC000
0CC000
0CC000
0CC000
0CC000
0CCC00
0CCC00
0CF300
0CF300
033C00
033C00
003000
003000
000000
000000
000000
000000
000000
000000
ENDCHAR
ENDFONT
